<?xml version="1.0" standalone="no"?>
<!DOCTYPE svg PUBLIC "-//W3C//DTD SVG 1.1//EN" "http://www.w3.org/Graphics/SVG/1.1/DTD/svg11.dtd" >
<svg xmlns="http://www.w3.org/2000/svg" xmlns:xlink="http://www.w3.org/1999/xlink" version="1.1">
<metadata>
Created by FontForge 20161116 at Wed Sep 18 14:42:10 2013
 By Jimmy Wärting
2013 published by FontShop International GmbH
</metadata>
<defs>
<font id="Faohdjgheworbylvlprzpybfjlf" horiz-adv-x="1200" >
  <font-face 
    font-family="Faohdjgheworbylvlprzpybfjlf"
    font-weight="400"
    font-stretch="normal"
    units-per-em="2000"
    panose-1="2 11 6 4 2 1 1 1 1 2"
    ascent="1580"
    descent="-420"
    x-height="950"
    cap-height="1400"
    bbox="-1351 -476 2696 2209"
    underline-thickness="136"
    underline-position="-260"
    unicode-range="U+0020-FEFF"
  />
<missing-glyph horiz-adv-x="1205" 
d="M173 1400h859v-1400h-859v1400zM884 148v1104h-563v-1104h563z" />
    <glyph glyph-name="uniFB00" unicode="ff" horiz-adv-x="1694" 
d="M792 801h-365v-801h-164v801h-211v149h211v162q0 75 18 138.5t56 110t98 73t144 26.5q81 0 145.5 -20t115.5 -51l-59 -137q-38 23 -88 39t-103 16q-85 0 -124 -51t-39 -144v-162h365v-149zM1627 801h-365v-801h-164v801h-211v149h211v162q0 75 18 138.5t56 110t98 73
t144 26.5q81 0 145.5 -20t115.5 -51l-59 -137q-38 23 -88 39t-103 16q-85 0 -124 -51t-39 -144v-162h365v-149z" />
    <glyph glyph-name="fi" unicode="fi" horiz-adv-x="1368" 
d="M792 801h-365v-801h-164v801h-211v149h211v162q0 75 18 138.5t56 110t98 73t144 26.5q81 0 145.5 -20t115.5 -51l-59 -137q-38 23 -88 39t-103 16q-85 0 -124 -51t-39 -144v-162h365v-149zM1195 0h-163v950h163v-950zM1112 1401q24 0 45.5 -9t37.5 -25t25 -37t9 -46
q0 -24 -9 -45t-25 -36.5t-37.5 -24t-45.5 -8.5t-45 8.5t-36.5 24t-24.5 36.5t-9 45q0 25 9 46t24.5 37t36.5 25t45 9z" />
    <glyph glyph-name="fl" unicode="fl" horiz-adv-x="1368" 
d="M792 801h-365v-801h-164v801h-211v149h211v162q0 75 18 138.5t56 110t98 73t144 26.5q81 0 145.5 -20t115.5 -51l-59 -137q-38 23 -88 39t-103 16q-85 0 -124 -51t-39 -144v-162h365v-149zM1195 0h-163v1440h163v-1440z" />
    <glyph glyph-name="uniFB03" unicode="ffi" horiz-adv-x="2203" 
d="M792 801h-365v-801h-164v801h-211v149h211v162q0 75 18 138.5t56 110t98 73t144 26.5q81 0 145.5 -20t115.5 -51l-59 -137q-38 23 -88 39t-103 16q-85 0 -124 -51t-39 -144v-162h365v-149zM1627 801h-365v-801h-164v801h-211v149h211v162q0 75 18 138.5t56 110t98 73
t144 26.5q81 0 145.5 -20t115.5 -51l-59 -137q-38 23 -88 39t-103 16q-85 0 -124 -51t-39 -144v-162h365v-149zM2030 0h-163v950h163v-950zM1947 1401q24 0 45.5 -9t37.5 -25t25 -37t9 -46q0 -24 -9 -45t-25 -36.5t-37.5 -24t-45.5 -8.5t-45 8.5t-36.5 24t-24.5 36.5t-9 45
q0 25 9 46t24.5 37t36.5 25t45 9z" />
    <glyph glyph-name="uniFB04" unicode="ffl" horiz-adv-x="2203" 
d="M792 801h-365v-801h-164v801h-211v149h211v162q0 75 18 138.5t56 110t98 73t144 26.5q81 0 145.5 -20t115.5 -51l-59 -137q-38 23 -88 39t-103 16q-85 0 -124 -51t-39 -144v-162h365v-149zM1627 801h-365v-801h-164v801h-211v149h211v162q0 75 18 138.5t56 110t98 73
t144 26.5q81 0 145.5 -20t115.5 -51l-59 -137q-38 23 -88 39t-103 16q-85 0 -124 -51t-39 -144v-162h365v-149zM2030 0h-163v1440h163v-1440z" />
    <glyph glyph-name=".notdef" horiz-adv-x="1205" 
d="M173 1400h859v-1400h-859v1400zM884 148v1104h-563v-1104h563z" />
    <glyph glyph-name=".null" horiz-adv-x="0" 
 />
    <glyph glyph-name="nonmarkingreturn" horiz-adv-x="535" 
 />
    <glyph glyph-name="space" unicode=" " horiz-adv-x="535" 
 />
    <glyph glyph-name="exclam" unicode="!" horiz-adv-x="525" 
d="M336 449h-148l-26 951h200zM263 255q27 0 52 -11t43.5 -30t29.5 -43.5t11 -52.5q0 -27 -11 -52t-29.5 -44t-43.5 -30.5t-52 -11.5t-52 11.5t-44 30.5t-30 44t-11 52q0 28 11 52.5t30 43.5t44 30t52 11z" />
    <glyph glyph-name="quotedbl" unicode="&#x22;" horiz-adv-x="1065" 
d="M443 1440v-516h-164v516h164zM785 1440v-516h-164v516h164z" />
    <glyph glyph-name="numbersign" unicode="#" horiz-adv-x="1468" 
d="M488 1035l78 365h153l-78 -365h327l78 365h153l-78 -365h227l-31 -146h-227l-79 -372h226l-31 -145h-226l-79 -372h-153l79 372h-327l-79 -372h-153l79 372h-228l31 145h228l79 372h-229l32 146h228zM531 517h327l79 372h-327z" />
    <glyph glyph-name="dollar" unicode="$" horiz-adv-x="1400" 
d="M790 1578v-191q132 -9 238 -48.5t193 -96.5l-86 -138q-71 48 -158 81t-187 42v-453l23 -3q88 -11 166 -36.5t135.5 -69t90.5 -106.5t32 -148q-2 -89 -37 -159t-95 -119.5t-140.5 -79.5t-173.5 -40v-198h-152v196q-65 4 -131.5 18t-129 36t-118 51t-98.5 64l92 135
q31 -26 74 -49.5t93.5 -43t106 -33.5t111.5 -19l-1 458l-31 4q-88 11 -162.5 37.5t-128.5 71t-84 107.5t-29 147q1 85 34.5 153.5t92 118t137.5 80t171 39.5v192h152zM1066 403q1 82 -70.5 132t-205.5 73l1 -435q60 8 110 26t86.5 47t57 68t21.5 89zM375 999
q-1 -81 62.5 -132t200.5 -74v432q-59 -8 -107 -27t-82.5 -47.5t-53.5 -67t-20 -84.5z" />
    <glyph glyph-name="percent" unicode="%" horiz-adv-x="1950" 
d="M467 1420q80 0 148.5 -28t119 -77t79 -116t28.5 -145q0 -79 -28.5 -146t-79 -116t-119 -77t-148.5 -28q-79 0 -147 28t-117.5 77t-78 116t-28.5 146q0 78 28.5 145t78 116t117.5 77t147 28zM467 1276q-46 0 -85.5 -16.5t-69 -46t-46 -70t-16.5 -89.5t16.5 -89.5t46 -70
t69 -46t85.5 -16.5q48 0 88.5 16.5t70 46t46 70t16.5 89.5t-16.5 89.5t-46 70t-70 46t-88.5 16.5zM619 0h-171l883 1400h171zM1480 713q80 0 148.5 -28t118.5 -77t78.5 -116.5t28.5 -145.5t-28.5 -145t-78.5 -116t-118.5 -77t-148.5 -28t-147.5 28t-117.5 77t-78 116
t-28 145t28 145.5t78 116.5t117.5 77t147.5 28zM1480 568q-47 0 -86.5 -16.5t-68.5 -46t-45.5 -70t-16.5 -89.5t16.5 -89.5t45.5 -70t68.5 -46t86.5 -16.5q48 0 88 16.5t69.5 46t46 70t16.5 89.5t-16.5 89.5t-46 70t-69.5 46t-88 16.5z" />
    <glyph glyph-name="ampersand" unicode="&#x26;" horiz-adv-x="1419" 
d="M1147 0l-204 197q-38 -45 -82 -85t-96.5 -69t-114.5 -46t-136 -17q-93 0 -168 24t-127.5 70t-80.5 111.5t-28 148.5q0 67 22.5 124t59.5 106.5t85.5 93t100.5 83.5q-51 50 -88.5 93.5t-62 85.5t-37 86t-12.5 95q0 67 26 125t73.5 101t114 68t146.5 25q79 0 145.5 -23
t113.5 -64.5t73.5 -98.5t26.5 -126q0 -60 -22.5 -111.5t-60 -97t-86.5 -86t-101 -79.5l301 -292l211 319l132 -83l-228 -347l341 -331h-237zM524 134q49 0 91 11.5t79 33.5t70.5 54t66.5 73l-341 328q-42 -32 -79.5 -65.5t-65 -69.5t-43.5 -75.5t-16 -83.5q0 -46 17.5 -84
t49 -65t75 -42t96.5 -15zM354 1091q0 -30 8 -56t26.5 -54t49.5 -62t78 -79q42 31 80 62t66 63t44.5 65.5t16.5 70.5q0 75 -49.5 119.5t-135.5 44.5q-42 0 -76 -12.5t-58 -35.5t-37 -55t-13 -71z" />
    <glyph glyph-name="quotesingle" unicode="'" horiz-adv-x="723" 
d="M443 1440v-516h-164v516h164z" />
    <glyph glyph-name="parenleft" unicode="(" horiz-adv-x="826" 
d="M746 1282q-99 -42 -178 -114t-134.5 -165.5t-85 -204.5t-29.5 -230t29.5 -230t85 -204.5t134.5 -165.5t178 -114l-58 -150q-122 48 -222 132.5t-171.5 197t-111 248.5t-39.5 286t39.5 286t111 248.5t171.5 197.5t222 133z" />
    <glyph glyph-name="parenright" unicode=")" horiz-adv-x="826" 
d="M80 -144q99 42 178 114t134.5 165.5t85 204.5t29.5 230t-29.5 230t-85 204.5t-134.5 165.5t-178 114l58 150q122 -48 222 -132.5t171.5 -197t111 -248.5t39.5 -286t-39.5 -286t-111 -248.5t-171.5 -197.5t-222 -133z" />
    <glyph glyph-name="asterisk" unicode="*" horiz-adv-x="910" 
d="M392 1173v267h126v-267l254 83l38 -120l-254 -83l158 -216l-102 -74l-157 216l-157 -216l-102 74l157 216l-253 83l38 120z" />
    <glyph glyph-name="plus" unicode="+" 
d="M523 93v363h-361v148h361v366h152v-366h363v-148h-363v-363h-152z" />
    <glyph glyph-name="comma" unicode="," horiz-adv-x="497" 
d="M370 253l-108 -515h-141l58 515h191z" />
    <glyph glyph-name="hyphen" unicode="-" horiz-adv-x="841" 
d="M702 456h-562v148h562v-148z" />
    <glyph glyph-name="period" unicode="." horiz-adv-x="525" 
d="M263 254q27 0 52 -11t43.5 -29.5t29.5 -43.5t11 -52q0 -28 -11 -53t-29.5 -44t-43.5 -30t-52 -11t-52 11t-44 30t-30 44t-11 53q0 27 11 52t30 43.5t44 29.5t52 11z" />
    <glyph glyph-name="slash" unicode="/" horiz-adv-x="996" 
d="M166 -200h-180l849 1740h180z" />
    <glyph glyph-name="zero" unicode="0" 
d="M603 1420q107 0 202 -43t166.5 -132t113 -224.5t41.5 -320.5q0 -193 -41.5 -329.5t-113 -223.5t-166.5 -127t-202 -40q-108 0 -204 40t-168.5 127t-115 223.5t-42.5 329.5t42.5 330t115 223.5t168.5 126.5t204 40zM603 1257q-72 0 -136.5 -29t-112.5 -95t-76.5 -172.5
t-28.5 -260.5t28.5 -260t76.5 -172t112.5 -95.5t136.5 -29.5q70 0 133.5 29.5t111 95.5t75.5 172t28 260q0 145 -28 250t-75.5 173.5t-111 101t-133.5 32.5z" />
    <glyph glyph-name="one" unicode="1" 
d="M581 161v1025l-400 -143v173l569 202v-1257h359v-161h-912v161h384z" />
    <glyph glyph-name="two" unicode="2" 
d="M132 1187q25 36 61.5 77t88.5 75.5t121.5 57.5t160.5 23q107 0 191 -33t142 -91.5t88.5 -139t30.5 -174.5q0 -65 -16.5 -121.5t-43.5 -105t-60.5 -90t-67.5 -77.5l-402 -427h634v-161h-885v133l524 553q63 66 101.5 138t38.5 159q0 58 -18.5 108.5t-54.5 87.5t-88 58
t-118 21q-59 0 -104.5 -14t-82 -37.5t-65.5 -54t-54 -64.5z" />
    <glyph glyph-name="three" unicode="3" 
d="M559 1420q104 0 190 -28t147 -79t94.5 -122.5t33.5 -158.5q0 -122 -58 -202.5t-154 -122.5q54 -21 99 -52.5t77.5 -72.5t50 -92.5t17.5 -112.5q0 -101 -41 -175.5t-108.5 -123.5t-154.5 -73.5t-180 -24.5q-150 0 -267 49.5t-194 138.5l108 114q66 -68 156.5 -106
t192.5 -38q63 0 119.5 15t99 45.5t67.5 76.5t25 109q0 59 -26 104.5t-71 77t-105 47.5t-128 16h-180v155h180q63 0 117.5 15t95 45t63.5 75t23 105q0 55 -23 99t-63.5 75t-95.5 47.5t-118 16.5q-52 0 -97 -12.5t-83 -34.5t-69 -50.5t-53 -59.5l-122 103q30 45 72.5 84
t97 67.5t121 44.5t144.5 16z" />
    <glyph glyph-name="four" unicode="4" 
d="M896 449h233v-160h-233v-289h-169v289h-647v130l523 979h192l-512 -949h444v387h169v-387z" />
    <glyph glyph-name="five" unicode="5" 
d="M996 1240h-609l-12 -396h201q123 0 214.5 -33.5t152 -90t90.5 -131.5t30 -159q0 -109 -38 -193t-104 -141t-153.5 -86.5t-186.5 -29.5q-299 0 -477 219l112 110q33 -40 75 -71t89 -52.5t97.5 -33t102.5 -11.5q75 0 132.5 22t96 59.5t58.5 87.5t20 106q0 54 -19 103
t-61.5 85.5t-112 58t-170.5 21.5h-309l16 716h765v-160z" />
    <glyph glyph-name="six" unicode="6" 
d="M466 863q29 14 68.5 23.5t91.5 9.5q97 0 183 -34.5t149.5 -96t100.5 -145.5t37 -182t-37.5 -182t-104.5 -145.5t-158 -96t-199 -34.5q-107 0 -198.5 35t-158.5 96.5t-104.5 145t-37.5 181.5q0 85 28 161.5t81 158.5l413 642h207zM597 739q-70 0 -129.5 -22.5t-103 -62
t-68 -95t-24.5 -121.5t24.5 -121.5t68 -95t103 -62t129.5 -22.5t129 22.5t102.5 62t68 95t24.5 121.5t-24.5 121.5t-68 95t-102.5 62t-129 22.5z" />
    <glyph glyph-name="seven" unicode="7" 
d="M1080 1267l-626 -1267h-197l620 1240h-750v160h953v-133z" />
    <glyph glyph-name="eight" unicode="8" 
d="M600 1420q101 0 190.5 -26t156 -76t105 -122t38.5 -164q0 -63 -18.5 -114.5t-50 -91.5t-75 -69.5t-92.5 -49.5q56 -20 105 -49.5t85.5 -70t57.5 -93.5t21 -119q0 -94 -41 -167.5t-112.5 -124t-166.5 -77t-203 -26.5t-203 26.5t-166 77t-112 124t-41 167.5q0 66 21 119
t57.5 94t85.5 70.5t105 48.5q-50 20 -93 49.5t-75 69.5t-50 91.5t-18 114.5q0 92 38.5 164t105 122t155.5 76t190 26zM600 631q-71 0 -133 -16t-109 -47t-74 -77.5t-27 -106.5q0 -61 27 -107t74 -77t109 -47t133 -16q70 0 132.5 16t109.5 47t74 77t27 107q0 60 -27 106.5
t-74 77.5t-109.5 47t-132.5 16zM600 1262q-64 0 -120.5 -15.5t-98.5 -45.5t-66.5 -74.5t-24.5 -102.5q0 -61 24.5 -107t66.5 -76.5t98.5 -46t120.5 -15.5t120.5 15.5t99 46t67 76.5t24.5 107q0 58 -24.5 102.5t-67 74.5t-99 45.5t-120.5 15.5z" />
    <glyph glyph-name="nine" unicode="9" 
d="M733 536q-29 -14 -68.5 -23t-91.5 -9q-98 0 -183.5 34.5t-149 96t-100.5 145.5t-37 182t37.5 181.5t104.5 145t158 96.5t199 35q107 0 198.5 -35t158.5 -96.5t105 -145t38 -181.5q0 -85 -28.5 -161.5t-81.5 -158.5l-413 -642h-207zM602 661q70 0 129.5 22.5t103 62t68 95
t24.5 121.5t-24.5 121.5t-68 95t-103 62t-129.5 22.5t-129 -22.5t-102.5 -62.5t-68 -95t-24.5 -121t24.5 -121.5t68 -95t102.5 -62t129 -22.5z" />
    <glyph glyph-name="colon" unicode=":" horiz-adv-x="525" 
d="M263 970q27 0 52 -11t43.5 -29.5t29.5 -43.5t11 -52q0 -28 -11 -53t-29.5 -44t-43.5 -30t-52 -11t-52 11t-44 30t-30 44t-11 53q0 27 11 52t30 43.5t44 29.5t52 11zM263 255q27 0 52 -11t43.5 -30t29.5 -43.5t11 -52.5q0 -27 -11 -52t-29.5 -44t-43.5 -30.5t-52 -11.5
t-52 11.5t-44 30.5t-30 44t-11 52q0 28 11 52.5t30 43.5t44 30t52 11z" />
    <glyph glyph-name="semicolon" unicode=";" horiz-adv-x="497" 
d="M260 970q27 0 52 -11t43.5 -29.5t29.5 -43.5t11 -52q0 -28 -11 -53t-29.5 -44t-43.5 -30t-52 -11t-52 11t-44 30t-30 44t-11 53q0 27 11 52t30 43.5t44 29.5t52 11zM370 253l-108 -515h-141l58 515h191z" />
    <glyph glyph-name="less" unicode="&#x3c;" 
d="M997 76l-793 374v161l793 374v-175l-626 -279l626 -280v-175z" />
    <glyph glyph-name="equal" unicode="=" 
d="M1038 267h-876v149h876v-149zM1038 644h-876v149h876v-149z" />
    <glyph glyph-name="greater" unicode="&#x3e;" 
d="M204 985l793 -374v-161l-793 -374v175l626 279l-626 280v175z" />
    <glyph glyph-name="question" unicode="?" horiz-adv-x="870" 
d="M206 449v316h69q85 0 151 17t112 49.5t70 79t24 106.5q0 55 -24 99t-69.5 75t-110.5 47t-146 16q-39 0 -76.5 -2.5t-66.5 -5.5l-14 168q34 5 80 8.5t85 3.5q122 0 219 -28.5t165 -81t104.5 -127t36.5 -165.5q0 -87 -30 -158t-88 -123t-142 -85t-193 -45l-8 -164h-148z
M280 254q27 0 52 -11t43.5 -29.5t29.5 -43.5t11 -52q0 -28 -11 -53t-29.5 -44t-43.5 -30t-52 -11t-52 11t-44 30t-30 44t-11 53q0 27 11 52t30 43.5t44 29.5t52 11z" />
    <glyph glyph-name="at" unicode="@" horiz-adv-x="1976" 
d="M1366 431q0 -109 27.5 -157.5t86.5 -48.5q39 0 71.5 19t56.5 57t37.5 96.5t13.5 137.5q0 142 -51 259.5t-140.5 202.5t-212.5 132t-267 47t-267 -50t-212.5 -140t-140.5 -214t-51 -272q0 -150 51 -275t140.5 -216t212.5 -141.5t267 -50.5q120 0 227 35t201 100l76 -106
q-110 -80 -237 -120t-267 -40q-178 0 -328 62t-259.5 171t-171 258t-61.5 323q0 115 28 219.5t79.5 194t125 162.5t164.5 124.5t197.5 79.5t225.5 28q118 0 225 -26.5t198 -75.5t164.5 -118.5t125 -155.5t79.5 -186.5t28 -210.5q0 -94 -22.5 -174.5t-65.5 -139.5t-105 -92.5
t-141 -33.5q-47 0 -84.5 10.5t-66 29.5t-48 45t-31.5 57q-45 -61 -116.5 -99t-172.5 -38q-81 0 -151 30t-121.5 83.5t-81 127t-29.5 159.5t29.5 159.5t81 127t121.5 83.5t151 30q92 0 159 -33.5t112 -88.5v105h140v-452zM975 768q-58 0 -105.5 -21t-81.5 -57t-52.5 -85
t-18.5 -105t18.5 -105t52.5 -85t81.5 -57t105.5 -21q57 0 104.5 20.5t81.5 56.5t53 85t19 106t-19 106t-53 85t-81.5 56.5t-104.5 20.5z" />
    <glyph glyph-name="A" unicode="A" horiz-adv-x="1428" 
d="M1393 0h-189l-154 382h-679l-153 -382h-183l569 1400h219zM438 549h545l-272 677z" />
    <glyph glyph-name="B" unicode="B" horiz-adv-x="1402" 
d="M741 1400q111 0 204.5 -20.5t161.5 -65t106 -115t38 -171.5q0 -57 -14.5 -106t-41 -88t-63 -67.5t-81.5 -45.5q50 -18 92.5 -48t73 -71t48 -94t17.5 -117q0 -102 -36.5 -176t-103 -122t-161.5 -70.5t-212 -22.5h-570v1400h542zM375 627v-462h386q76 0 138 11t106 37.5
t68 71.5t24 113q0 67 -24 111t-68 70.5t-106 37t-138 10.5h-386zM375 1235v-444h361q69 0 129.5 9.5t105.5 34t70.5 68t25.5 112.5q0 67 -26 109.5t-71 67t-106 34t-130 9.5h-359z" />
    <glyph glyph-name="C" unicode="C" horiz-adv-x="1530" 
d="M845 1421q92 0 177.5 -20t159.5 -57.5t134.5 -91.5t101.5 -121l-147 -99q-69 102 -179 161t-247 59q-116 0 -214.5 -40t-171.5 -112.5t-114 -174.5t-41 -225t41 -225t114 -174.5t171.5 -112.5t214.5 -40q135 0 245.5 58t179.5 161l144 -105q-44 -66 -104.5 -118
t-133.5 -89t-156.5 -56.5t-174.5 -19.5q-158 0 -290.5 53.5t-229.5 149.5t-151 228.5t-54 289.5t54 289.5t151 228.5t229.5 149.5t290.5 53.5z" />
    <glyph glyph-name="D" unicode="D" horiz-adv-x="1595" 
d="M733 1400q169 0 306.5 -49.5t234 -141t149 -220.5t52.5 -289t-52.5 -289t-149 -220.5t-234 -141t-306.5 -49.5h-534v1400h534zM375 1233v-1066h358q138 0 242 38.5t174 109t105.5 168.5t35.5 217q0 120 -35.5 218t-105.5 168t-174 108.5t-242 38.5h-358z" />
    <glyph glyph-name="E" unicode="E" horiz-adv-x="1353" 
d="M1193 0h-994v1400h984v-165h-808v-447h782v-166h-782v-457h818v-165z" />
    <glyph glyph-name="F" unicode="F" horiz-adv-x="1296" 
d="M1136 622h-761v-622h-176v1400h977v-167h-801v-445h761v-166z" />
    <glyph glyph-name="G" unicode="G" horiz-adv-x="1639" 
d="M845 1421q168 0 307 -61.5t235 -170.5l-129 -125q-73 88 -179 138t-234 50q-116 0 -214.5 -40t-171.5 -112.5t-114 -174.5t-41 -225t41 -225t113 -174.5t169 -112.5t210 -40q107 0 193 30t148.5 87t100 138.5t47.5 184.5h-420v164h611q1 -11 1.5 -22t0.5 -22
q0 -153 -47 -285.5t-135 -231t-214.5 -155t-285.5 -56.5q-92 0 -180.5 21.5t-168.5 63.5t-147.5 103.5t-116.5 141.5t-76.5 178t-27.5 212q0 105 25 199.5t70.5 174.5t111 144.5t146 109.5t174.5 69t198 24z" />
    <glyph glyph-name="H" unicode="H" horiz-adv-x="1577" 
d="M375 788h826v612h176v-1400h-176v622h-826v-622h-176v1400h176v-612z" />
    <glyph glyph-name="I" unicode="I" horiz-adv-x="575" 
d="M375 0h-176v1400h176v-1400z" />
    <glyph glyph-name="J" unicode="J" horiz-adv-x="1151" 
d="M961 498q0 -125 -37 -221.5t-102.5 -162.5t-154.5 -100t-193 -34q-86 0 -154 18t-121 47t-92.5 64.5t-68.5 71.5l118 121q24 -32 55.5 -59.5t71 -48.5t87 -33t103.5 -12q70 0 128 23t98.5 69t63 114.5t22.5 159.5v885h176v-902z" />
    <glyph glyph-name="K" unicode="K" horiz-adv-x="1397" 
d="M535 621h-160v-621h-176v1400h176v-613h162l568 613h228l-651 -686l694 -714h-240z" />
    <glyph glyph-name="L" unicode="L" horiz-adv-x="1217" 
d="M1177 0h-978v1400h176v-1233h802v-167z" />
    <glyph glyph-name="M" unicode="M" horiz-adv-x="1875" 
d="M1675 0h-176v1205l-469 -1054h-186l-469 1046v-1197h-176v1401h269l469 -1045l469 1045h269v-1401z" />
    <glyph glyph-name="N" unicode="N" horiz-adv-x="1581" 
d="M1381 -1h-159l-846 1100l-1 -1099h-176v1401h159l847 -1100v1099h176v-1401z" />
    <glyph glyph-name="O" unicode="O" horiz-adv-x="1690" 
d="M845 1421q105 0 199.5 -24.5t175 -69.5t145.5 -109.5t110.5 -144.5t70 -174t24.5 -199t-24.5 -199t-70 -174t-110.5 -144.5t-145.5 -109.5t-175 -69.5t-199.5 -24.5q-158 0 -290.5 53.5t-229.5 149.5t-151 228.5t-54 289.5t54 289.5t151 228.5t229.5 149.5t290.5 53.5z
M845 1252q-116 0 -214.5 -40t-171.5 -112.5t-114 -174.5t-41 -225t41 -225t114 -174.5t171.5 -112.5t214.5 -40q115 0 214 40t172 112.5t114 174.5t41 225t-41 225t-114 174.5t-172 112.5t-214 40z" />
    <glyph glyph-name="P" unicode="P" horiz-adv-x="1327" 
d="M375 560v-560h-176v1400h532q118 0 210.5 -29t155.5 -83t96 -132t33 -176t-33 -176t-96 -132t-155.5 -83t-210.5 -29h-356zM375 1234v-508h352q156 0 236 63t80 191t-80 191t-236 63h-352z" />
    <glyph glyph-name="Q" unicode="Q" horiz-adv-x="1690" 
d="M845 1421q105 0 199.5 -24.5t175 -69.5t145.5 -109.5t110.5 -144.5t70 -174t24.5 -199q0 -137 -40.5 -254t-115.5 -209l182 -237h-207l-96 121q-91 -69 -204 -105.5t-244 -36.5q-158 0 -290.5 53.5t-229.5 149.5t-151 228.5t-54 289.5t54 289.5t151 228.5t229.5 149.5
t290.5 53.5zM845 1252q-116 0 -214.5 -40t-171.5 -112.5t-114 -174.5t-41 -225t41 -225t114 -174.5t171.5 -112.5t214.5 -40q99 0 185.5 29.5t155.5 83.5l-317 408h211l219 -283q42 66 64.5 144.5t22.5 169.5q0 123 -41 225t-114 174.5t-172 112.5t-214 40z" />
    <glyph glyph-name="R" unicode="R" horiz-adv-x="1357" 
d="M755 1400q238 0 364 -102.5t126 -294.5q0 -91 -34 -165t-98 -126t-154.5 -80t-202.5 -28h-11l493 -604h-218l-481 604h-164v-604h-176v1400h556zM375 1235v-471h376q155 0 233 60.5t78 178.5q0 117 -79 174.5t-232 57.5h-376z" />
    <glyph glyph-name="S" unicode="S" horiz-adv-x="1347" 
d="M1113 1124q-86 58 -189.5 93.5t-225.5 35.5q-77 0 -141.5 -16.5t-111 -48t-72.5 -76.5t-26 -102q0 -96 79.5 -147t237.5 -71l123 -15q89 -11 169 -35.5t140 -68.5t95.5 -109.5t35.5 -158.5q0 -105 -44.5 -184.5t-120 -133t-176.5 -80.5t-215 -27q-75 0 -151.5 12.5
t-148.5 36t-136.5 57.5t-115.5 76l96 140q36 -32 87 -60t110.5 -49t125.5 -33.5t133 -12.5q78 0 146.5 15.5t118.5 46.5t79 76.5t29 104.5q0 97 -86 148t-249 71l-130 16q-87 10 -162.5 36.5t-131.5 71.5t-88.5 110.5t-32.5 155.5q0 101 42 179.5t115 132t170 81.5t208 28
q79 0 149 -11t132.5 -31.5t117.5 -48.5t105 -62z" />
    <glyph glyph-name="T" unicode="T" horiz-adv-x="1211" 
d="M1171 1233h-477v-1233h-176v1233h-478v167h1131v-167z" />
    <glyph glyph-name="U" unicode="U" horiz-adv-x="1521" 
d="M1341 549q0 -143 -45.5 -250t-124 -178t-184.5 -106t-227 -35t-227 35t-184.5 106t-124 178t-45.5 250v851h176v-838q0 -108 30.5 -186t84.5 -128.5t128 -74.5t162 -24t162 24t128 74.5t84 128.5t30 186v838h177v-851z" />
    <glyph glyph-name="V" unicode="V" horiz-adv-x="1398" 
d="M808 -1h-218l-555 1401h188l478 -1226l480 1226h182z" />
    <glyph glyph-name="W" unicode="W" horiz-adv-x="2194" 
d="M1690 -1h-218l-375 1169l-375 -1169h-217l-449 1401h185l375 -1202l383 1203h200l384 -1203l374 1202h181z" />
    <glyph glyph-name="X" unicode="X" horiz-adv-x="1364" 
d="M790 715l518 -715h-213l-415 580l-416 -580h-207l518 715l-495 685h213l391 -549l393 549h209z" />
    <glyph glyph-name="Y" unicode="Y" horiz-adv-x="1298" 
d="M739 582v-582h-176v584l-552 816h211l430 -655l430 655h205z" />
    <glyph glyph-name="Z" unicode="Z" horiz-adv-x="1308" 
d="M1186 1264l-833 -1097h835v-167h-1069v136l833 1097h-825v167h1059v-136z" />
    <glyph glyph-name="bracketleft" unicode="[" horiz-adv-x="757" 
d="M677 -263h-478v1663h478v-152h-309v-1359h309v-152z" />
    <glyph glyph-name="backslash" unicode="\" horiz-adv-x="996" 
d="M-19 1540h180l849 -1740h-180z" />
    <glyph glyph-name="bracketright" unicode="]" horiz-adv-x="757" 
d="M80 1400h478v-1663h-478v152h309v1359h-309v152z" />
    <glyph glyph-name="asciicircum" unicode="^" 
d="M164 645l356 755h160l356 -755h-178l-261 583l-259 -583h-174z" />
    <glyph glyph-name="underscore" unicode="_" horiz-adv-x="938" 
d="M943 -279h-948v148h948v-148z" />
    <glyph glyph-name="grave" unicode="`" horiz-adv-x="954" 
d="M522 1097l-251 300h208l205 -300h-162z" />
    <glyph glyph-name="a" unicode="a" horiz-adv-x="1248" 
d="M1075 0h-164v127q-57 -67 -140 -107t-195 -40q-100 0 -187 37t-151 103t-100.5 156.5t-36.5 198.5t36.5 198.5t100.5 156.5t151 103t187 37q112 0 195 -40t140 -108v128h164v-950zM595 816q-74 0 -134.5 -26.5t-103.5 -73t-66 -108.5t-23 -133t23.5 -133t66.5 -108.5
t103.5 -73.5t133.5 -27q72 0 132 26t103 72t67 108.5t24 135.5t-24 135t-67 108t-103 72t-132 26z" />
    <glyph glyph-name="b" unicode="b" horiz-adv-x="1247" 
d="M671 970q100 0 186.5 -37t150.5 -103t101 -156.5t37 -198.5t-37 -198.5t-101 -156.5t-150.5 -103t-186.5 -37q-113 0 -196 40t-139 107v-127h-163v1440h163v-617q56 67 139 107t196 40zM652 816q-72 0 -132 -26t-103 -72t-67 -108t-24 -135t24 -135.5t67 -108.5t103 -72
t132 -26q74 0 134 27t103 73.5t66 108.5t23 133t-23.5 133t-66.5 108.5t-103 73t-133 26.5z" />
    <glyph glyph-name="c" unicode="c" horiz-adv-x="1025" 
d="M594 970q106 0 197.5 -38t155.5 -112l-105 -111q-53 51 -114.5 79t-137.5 28q-69 0 -127.5 -25.5t-102 -70.5t-68 -107.5t-24.5 -137.5t24.5 -137.5t68 -108t102 -71t127.5 -25.5q76 0 141 30.5t115 78.5l101 -113q-65 -73 -156 -111t-197 -38q-110 0 -201 37.5t-156 104
t-100.5 157t-35.5 196.5t35.5 196.5t100.5 157t156 104t201 37.5z" />
    <glyph glyph-name="d" unicode="d" horiz-adv-x="1248" 
d="M576 970q112 0 195 -40t140 -108v618h164v-1440h-164v127q-57 -67 -140 -107t-195 -40q-100 0 -187 37t-151 103t-100.5 156.5t-36.5 198.5t36.5 198.5t100.5 156.5t151 103t187 37zM595 816q-74 0 -134.5 -26.5t-103.5 -73t-66 -108.5t-23 -133t23.5 -133t66.5 -108.5
t103.5 -73.5t133.5 -27q72 0 132 26t103 72t67 108.5t24 135.5t-24 135t-67 108t-103 72t-132 26z" />
    <glyph glyph-name="e" unicode="e" horiz-adv-x="1121" 
d="M573 970q97 0 179 -36t141 -101t92.5 -155.5t34.5 -199.5q0 -16 -1 -31.5t-2 -29.5h-747q9 -74 37.5 -129t71.5 -92t98 -55t116 -18q84 0 158 30t135 83l87 -112q-44 -41 -91 -69t-96 -44.5t-100 -23.5t-103 -7q-106 0 -194.5 35.5t-152.5 101t-99.5 156.5t-35.5 202
q0 109 35.5 200.5t98.5 156.5t149.5 101.5t188.5 36.5zM570 825q-63 0 -114 -20.5t-88.5 -57t-62 -87t-33.5 -111.5h581q-8 63 -31.5 114t-60 87t-85 55.5t-106.5 19.5z" />
    <glyph glyph-name="f" unicode="f" horiz-adv-x="859" 
d="M792 801h-365v-801h-164v801h-211v149h211v162q0 75 18 138.5t56 110t98 73t144 26.5q81 0 145.5 -20t115.5 -51l-59 -137q-38 23 -88 39t-103 16q-85 0 -124 -51t-39 -144v-162h365v-149z" />
    <glyph glyph-name="g" unicode="g" horiz-adv-x="1235" 
d="M571 970q111 0 192 -40t135 -109v129h164v-884q0 -115 -36.5 -205t-103.5 -151.5t-160 -93.5t-205 -32q-56 0 -111 8t-107 24t-98 39t-82 52l71 132q69 -49 151.5 -77.5t175.5 -28.5q76 0 139 21.5t108 62.5t69.5 102t24.5 140v84q-54 -69 -135 -108.5t-192 -39.5
q-100 0 -186 35.5t-149 100t-99 154t-36 198.5q0 108 36 198t99 154t149 99.5t186 35.5zM590 816q-73 0 -132.5 -26.5t-101.5 -71.5t-65 -105.5t-23 -129.5t23 -130t65 -106.5t101.5 -71.5t132.5 -26q71 0 130 25.5t102 70.5t66.5 106t23.5 132t-23.5 132t-66.5 105.5
t-102 70t-130 25.5z" />
    <glyph glyph-name="h" unicode="h" horiz-adv-x="1205" 
d="M336 827q29 40 65.5 67.5t77 44t83.5 24t84 7.5q88 0 160.5 -27.5t125 -77t81.5 -120t29 -155.5v-590h-164v537q0 132 -68 205t-193 73q-57 0 -108.5 -19t-89.5 -55.5t-60.5 -89t-22.5 -118.5v-533h-163v1440h163v-613z" />
    <glyph glyph-name="i" unicode="i" horiz-adv-x="509" 
d="M336 0h-163v950h163v-950zM253 1401q24 0 45.5 -9t37.5 -25t25 -37t9 -46q0 -24 -9 -45t-25 -36.5t-37.5 -24t-45.5 -8.5t-45 8.5t-36.5 24t-24.5 36.5t-9 45q0 25 9 46t24.5 37t36.5 25t45 9z" />
    <glyph glyph-name="j" unicode="j" horiz-adv-x="514" 
d="M341 -147q0 -66 -17.5 -116t-50 -84t-78 -51.5t-101.5 -17.5q-36 0 -73.5 8.5t-64.5 22.5l39 142q19 -8 40.5 -13.5t44.5 -5.5q44 0 70.5 29t26.5 94v1089h164v-1097zM257 1401q24 0 45.5 -9t37.5 -25t25 -37t9 -46q0 -24 -9 -45t-25 -36.5t-37.5 -24t-45.5 -8.5t-45 8.5
t-36.5 24t-24.5 36.5t-9 45q0 25 9 46t24.5 37t36.5 25t45 9z" />
    <glyph glyph-name="k" unicode="k" horiz-adv-x="1064" 
d="M336 570h130l353 380h206l-424 -448l430 -502h-207l-359 422h-129v-422h-163v1440h163v-870z" />
    <glyph glyph-name="l" unicode="l" horiz-adv-x="509" 
d="M336 0h-163v1440h163v-1440z" />
    <glyph glyph-name="m" unicode="m" horiz-adv-x="1910" 
d="M1351 970q88 0 161 -27.5t125 -77t81 -120t29 -155.5v-590h-164v537q0 132 -68 205t-193 73q-59 0 -110 -19.5t-89 -56.5t-59.5 -89t-21.5 -117v-533h-164v537q0 132 -68 205t-193 73q-57 0 -108.5 -19t-89.5 -55.5t-60.5 -89t-22.5 -118.5v-533h-163v950h162v-124
q29 40 66 67.5t77.5 44.5t83.5 24.5t84 7.5q121 0 212 -50.5t139 -140.5q29 54 70 90.5t88 59t97.5 32t98.5 9.5z" />
    <glyph glyph-name="n" unicode="n" horiz-adv-x="1205" 
d="M646 970q88 0 160.5 -27.5t125 -77t81.5 -120t29 -155.5v-590h-164v537q0 132 -68 205t-193 73q-57 0 -108.5 -19t-89.5 -55.5t-60.5 -89t-22.5 -118.5v-533h-163v950h162v-124q29 40 66 67.5t77.5 44.5t83.5 24.5t84 7.5z" />
    <glyph glyph-name="o" unicode="o" horiz-adv-x="1207" 
d="M603 970q108 0 200 -37.5t159.5 -104t105.5 -157t38 -196.5t-38 -196.5t-105.5 -157t-159.5 -104t-200 -37.5t-200 37.5t-159 104t-105 157t-38 196.5t38 196.5t105 157t159 104t200 37.5zM603 816q-72 0 -133 -25.5t-106 -70.5t-70.5 -107.5t-25.5 -137.5t25.5 -137.5
t70.5 -108t106 -71t133 -25.5q71 0 132.5 25.5t106.5 71t70.5 108t25.5 137.5t-25.5 137.5t-70.5 107.5t-106.5 70.5t-132.5 25.5z" />
    <glyph glyph-name="p" unicode="p" horiz-adv-x="1247" 
d="M671 970q100 0 186.5 -37t150.5 -103t101 -156.5t37 -198.5t-37 -198.5t-101 -156.5t-150.5 -103t-186.5 -37q-113 0 -196 40t-139 107v-527h-163v1350h163v-127q56 67 139 107t196 40zM652 816q-72 0 -132 -26t-103 -72t-67 -108t-24 -135t24 -135.5t67 -108.5t103 -72
t132 -26q74 0 134 27t103 73.5t66 108.5t23 133t-23.5 133t-66.5 108.5t-103 73t-133 26.5z" />
    <glyph glyph-name="q" unicode="q" horiz-adv-x="1248" 
d="M576 970q112 0 195 -40t140 -108v128h164v-1350h-164v527q-57 -67 -140 -107t-195 -40q-100 0 -187 37t-151 103t-100.5 156.5t-36.5 198.5t36.5 198.5t100.5 156.5t151 103t187 37zM595 816q-74 0 -134.5 -26.5t-103.5 -73t-66 -108.5t-23 -133t23.5 -133t66.5 -108.5
t103.5 -73.5t133.5 -27q72 0 132 26t103 72t67 108.5t24 135.5t-24 135t-67 108t-103 72t-132 26z" />
    <glyph glyph-name="r" unicode="r" horiz-adv-x="838" 
d="M612 970q51 0 93.5 -7t80.5 -24l-40 -161q-34 18 -78 27.5t-85 9.5q-54 0 -99.5 -20t-78.5 -57.5t-51 -90t-18 -118.5v-529h-163v950h161v-125q50 70 121.5 107.5t156.5 37.5z" />
    <glyph glyph-name="s" unicode="s" horiz-adv-x="994" 
d="M813 739q-23 15 -56 31t-73 28.5t-85 20.5t-92 8q-98 0 -156 -38t-58 -103q0 -57 48.5 -85.5t135.5 -39.5l110 -14q76 -10 135.5 -31.5t100.5 -54.5t63 -78.5t22 -104.5q0 -68 -29.5 -123t-84 -94t-132.5 -60t-175 -21q-44 0 -94.5 6t-102.5 20t-104 37.5t-99 58.5
l76 122q27 -21 58.5 -39t71 -32t87.5 -22t108 -8q118 0 185 37t67 108q0 106 -191 130l-110 13q-161 20 -238.5 88.5t-77.5 177.5q0 68 27 122.5t77 92t120.5 57.5t157.5 20q113 0 211.5 -27.5t167.5 -75.5z" />
    <glyph glyph-name="t" unicode="t" horiz-adv-x="907" 
d="M818 801h-399v-463q0 -54 13.5 -92.5t37.5 -63.5t56.5 -37t71.5 -12q53 0 103 18t91 46l77 -123q-55 -40 -126 -67t-159 -27q-77 0 -138 21.5t-103.5 65.5t-65 110.5t-22.5 157.5v466h-203v149h203v298h164v-298h399v-149z" />
    <glyph glyph-name="u" unicode="u" horiz-adv-x="1193" 
d="M1030 398q0 -108 -35.5 -186.5t-95.5 -130t-138.5 -76.5t-163.5 -25q-86 0 -164.5 25t-138.5 76.5t-95.5 130t-35.5 186.5v552h164v-537q0 -73 20.5 -125.5t56.5 -87t85.5 -51t107.5 -16.5t107 16.5t85 51t56.5 87t20.5 125.5v537h164v-552z" />
    <glyph glyph-name="v" unicode="v" horiz-adv-x="1047" 
d="M620 -1h-192l-400 951h178l319 -785l320 785h173z" />
    <glyph glyph-name="w" unicode="w" horiz-adv-x="1699" 
d="M1215 171l270 779h171l-342 -950h-195l-272 773l-271 -773h-192l-342 950h175l269 -777l271 777h185z" />
    <glyph glyph-name="x" unicode="x" horiz-adv-x="1030" 
d="M619 487l376 -487h-201l-286 365l-282 -365h-191l375 485l-366 465h200l273 -351l275 351h193z" />
    <glyph glyph-name="y" unicode="y" horiz-adv-x="1064" 
d="M283 -405h-181l351 608l-433 747h183l342 -584l325 584h180z" />
    <glyph glyph-name="z" unicode="z" horiz-adv-x="1053" 
d="M923 831l-585 -683h594v-148h-811v119l592 682h-575v149h785v-119z" />
    <glyph glyph-name="braceleft" unicode="{" horiz-adv-x="860" 
d="M724 1248q-50 0 -91.5 -14.5t-70.5 -43t-43.5 -71t-11.5 -99.5l7 -128q6 -125 -47 -206.5t-158 -116.5q105 -35 158 -116.5t47 -206.5l-7 -128q-3 -57 11.5 -100t43.5 -71.5t70.5 -42.5t91.5 -14h56v-152h-56q-96 0 -170.5 27t-124 78t-73 125t-18.5 169l7 128
q3 57 -12 99.5t-44.5 71t-72.5 43t-96 14.5v152q53 0 96 14t72.5 42.5t44.5 71.5t12 100l-7 128q-5 94 18.5 168.5t73 125.5t124 78t170.5 27h56v-152h-56z" />
    <glyph glyph-name="bar" unicode="|" horiz-adv-x="723" 
d="M443 -265h-164v1665h164v-1665z" />
    <glyph glyph-name="braceright" unicode="}" horiz-adv-x="860" 
d="M136 -110q50 0 91.5 14t71 42.5t44 71.5t10.5 100l-7 128q-6 125 47 206.5t158 116.5q-105 35 -158 116.5t-47 206.5l7 128q3 57 -11.5 99.5t-43.5 71t-70.5 43t-91.5 14.5h-56v152h56q96 0 170 -27t123.5 -78t73 -125.5t19.5 -168.5l-7 -128q-3 -57 12 -100t44.5 -71.5
t72.5 -42.5t96 -14v-152q-53 0 -96 -14.5t-72.5 -43t-44.5 -71t-12 -99.5l7 -128q5 -95 -18.5 -169t-73 -125t-124 -78t-170.5 -27h-56v152h56z" />
    <glyph glyph-name="asciitilde" unicode="~" 
d="M1053 535q-56 -60 -119 -89.5t-149 -29.5q-47 0 -83 6.5t-66 15.5t-56 20.5t-52.5 20.5t-56.5 15.5t-67 6.5q-47 0 -85.5 -20.5t-81.5 -61.5l-90 104q56 60 118.5 89t149.5 29q70 0 117.5 -13t87.5 -29t80 -29t96 -13q47 0 85 20.5t82 61.5z" />
    <glyph glyph-name="uni00A0" unicode="&#xa0;" horiz-adv-x="535" 
 />
    <glyph glyph-name="exclamdown" unicode="&#xa1;" horiz-adv-x="525" 
d="M189 501h148l26 -951h-200zM262 695q-27 0 -52 11t-43.5 29.5t-29.5 43.5t-11 53q0 27 11 52t29.5 44t43.5 30.5t52 11.5t52 -11.5t44 -30.5t30 -44t11 -52q0 -28 -11 -53t-30 -43.5t-44 -29.5t-52 -11z" />
    <glyph glyph-name="cent" unicode="&#xa2;" horiz-adv-x="1400" 
d="M825 1400v-208q94 -8 175.5 -45.5t141.5 -101.5l-97 -107q-48 43 -102 70t-118 35v-686q66 9 122.5 37t102.5 69l92 -108q-60 -65 -141.5 -102t-175.5 -45v-208h-151v214q-94 16 -170.5 59t-130.5 107t-83 145.5t-29 174.5t29 174.5t83 145t130.5 106.5t170.5 59v215h151
zM422 700q0 -63 18.5 -117t52 -97.5t79.5 -73.5t102 -45v666q-56 -15 -102 -45t-79.5 -73.5t-52 -97.5t-18.5 -117z" />
    <glyph glyph-name="sterling" unicode="&#xa3;" horiz-adv-x="1400" 
d="M1219 0h-1037v161h176v465h-176v148h176v124q0 131 38 229t103 163t151.5 97.5t184.5 32.5q112 0 206.5 -39.5t162.5 -119.5l-123 -109q-46 54 -108.5 80t-137.5 26q-66 0 -122.5 -22t-98 -67.5t-65 -115.5t-23.5 -167v-112h521v-148h-521v-465h693v-161z" />
    <glyph glyph-name="currency" unicode="&#xa4;" horiz-adv-x="1400" 
d="M292 1204l146 -145q55 40 121.5 62.5t141.5 22.5q74 0 140.5 -22.5t122.5 -62.5l144 145l96 -97l-144 -144q41 -56 63.5 -122.5t22.5 -140.5q0 -75 -22.5 -142t-63.5 -122l145 -144l-96 -96l-145 144q-56 -41 -122.5 -63t-140.5 -22q-75 0 -142 22.5t-122 63.5l-144 -145
l-95 96l143 144q-41 56 -63 122.5t-22 141.5q0 74 22 140.5t63 121.5l-144 145zM701 389q64 0 120.5 24.5t98.5 66.5t66.5 98.5t24.5 121.5q0 64 -24.5 120.5t-66.5 98.5t-98.5 66.5t-120.5 24.5q-65 0 -121.5 -24.5t-98.5 -66.5t-66 -98.5t-24 -120.5q0 -65 24 -121.5
t66 -98.5t98.5 -66.5t121.5 -24.5z" />
    <glyph glyph-name="yen" unicode="&#xa5;" horiz-adv-x="1400" 
d="M1181 308h-391v-308h-169v308h-392v135h392v187h-392v136h319l-446 634h202l402 -583l394 583h198l-439 -634h322v-136h-391v-187h391v-135z" />
    <glyph glyph-name="brokenbar" unicode="&#xa6;" horiz-adv-x="723" 
d="M443 706h-164v694h164v-694zM443 -265h-164v694h164v-694z" />
    <glyph glyph-name="section" unicode="&#xa7;" horiz-adv-x="1309" 
d="M1053 1152q-75 49 -168.5 82t-202.5 33q-69 0 -127.5 -13.5t-101 -39t-66.5 -62t-24 -81.5q0 -81 76.5 -122t219.5 -57l108 -12q79 -9 151 -30.5t127 -60t87.5 -94t32.5 -131.5q0 -86 -42 -149.5t-114 -107.5q62 -38 98.5 -95.5t36.5 -138.5q0 -92 -40.5 -160.5
t-109 -114.5t-159.5 -68.5t-193 -22.5q-71 0 -140.5 11t-134 31.5t-122 49.5t-102.5 64l87 133q33 -27 78 -51.5t98 -43t113 -30t123 -11.5q70 0 131.5 12.5t106.5 37.5t71.5 62t26.5 87q0 40 -22 70t-62 51.5t-96.5 35t-124.5 21.5l-116 13q-79 9 -148.5 31.5t-121 61
t-81.5 94.5t-30 132q0 81 40 144.5t111 107.5q-61 38 -96 96.5t-35 142.5q0 85 38 152t103.5 113t154 70.5t189.5 24.5q70 0 133 -10t119 -28t105.5 -42.5t93.5 -53.5zM576 741q-52 6 -100 18q-63 -26 -98 -71.5t-35 -108.5q0 -80 76.5 -121t219.5 -57l110 -13
q57 -8 111 -21q63 25 100.5 71t37.5 112q0 40 -22 69.5t-62 51t-96 35.5t-124 22z" />
    <glyph glyph-name="dieresis" unicode="&#xa8;" horiz-adv-x="969" 
d="M282 1356q24 0 45.5 -9t37 -24.5t24.5 -37t9 -45.5q0 -25 -9 -46t-24.5 -36.5t-37 -24t-45.5 -8.5t-45 8.5t-36.5 24t-24.5 36.5t-9 46q0 24 9 45.5t24.5 37t36.5 24.5t45 9zM687 1356q24 0 45.5 -9t37 -24.5t24.5 -37t9 -45.5q0 -25 -9 -46t-24.5 -36.5t-37 -24
t-45.5 -8.5q-50 0 -82.5 32.5t-32.5 82.5q0 24 8.5 45.5t24 37t36.5 24.5t46 9z" />
    <glyph glyph-name="copyright" unicode="&#xa9;" horiz-adv-x="1907" 
d="M954 1512q112 0 215.5 -29t193 -81t163.5 -125.5t126.5 -163t81.5 -192t29 -213.5t-29 -213.5t-81.5 -192t-126.5 -163t-163.5 -125.5t-193 -81t-215.5 -29t-215.5 29t-193.5 81t-164 125.5t-126.5 163t-81.5 192t-29 213.5t29 213.5t81.5 192t126.5 163t164 125.5
t193.5 81t215.5 29zM954 1367q-91 0 -175.5 -23.5t-158 -66.5t-133.5 -103t-103 -133t-66.5 -157.5t-23.5 -175.5q0 -137 52 -257t141.5 -209.5t209.5 -141.5t257 -52q91 0 175.5 23.5t157.5 66.5t133.5 103t103.5 133.5t66.5 158t23.5 175.5t-23.5 175.5t-66.5 157.5
t-103.5 133t-133.5 103t-157.5 66.5t-175.5 23.5zM1197 878q-38 55 -95 86t-129 31q-57 0 -107 -21t-86.5 -59t-57.5 -91t-21 -116q0 -68 22 -121t59.5 -90t86.5 -56.5t105 -19.5q71 0 129 31.5t96 86.5l115 -91q-56 -79 -142.5 -124.5t-196.5 -45.5q-92 0 -170 32t-135 89
t-89.5 136t-32.5 173t32.5 173.5t89.5 136.5t135 89t170 32q54 0 104.5 -12.5t94.5 -35.5t81 -56t64 -75z" />
    <glyph glyph-name="ordfeminine" unicode="&#xaa;" horiz-adv-x="786" 
d="M374 1290q68 0 123 -17.5t93.5 -53t59.5 -88.5t21 -124v-397h-132v84q-38 -42 -95.5 -70.5t-132.5 -28.5q-55 0 -98.5 15.5t-74 43t-46.5 66t-16 84.5q0 91 72.5 144.5t202.5 53.5h185q-2 85 -47.5 126.5t-130.5 41.5q-61 0 -109.5 -21t-84.5 -49l-53 104
q53 41 118.5 63.5t144.5 22.5zM342 707q57 0 108.5 26.5t87.5 70.5v104h-168q-41 0 -70 -8t-47 -22t-26.5 -32.5t-8.5 -38.5q0 -40 31 -70t93 -30z" />
    <glyph glyph-name="guillemotleft" unicode="&#xab;" horiz-adv-x="1031" 
d="M891 158h-176l-191 372l191 372h176l-191 -372zM488 158h-176l-191 372l191 372h176l-191 -372z" />
    <glyph glyph-name="logicalnot" unicode="&#xac;" 
d="M162 604h874v-461h-152v313h-722v148z" />
    <glyph glyph-name="uni00AD" unicode="&#xad;" horiz-adv-x="841" 
d="M702 456h-562v148h562v-148z" />
    <glyph glyph-name="registered" unicode="&#xae;" horiz-adv-x="951" 
d="M477 1436q88 0 166 -33t135.5 -89.5t91 -132.5t33.5 -163q0 -86 -33.5 -161.5t-91 -132.5t-135.5 -90t-166 -33q-90 0 -168.5 33t-136.5 90t-91 132.5t-33 161.5q0 87 33 163t91 132.5t136.5 89.5t168.5 33zM477 699q66 0 124 25t100.5 68.5t67.5 101.5t25 124
q0 67 -25 125t-67.5 101.5t-100.5 68.5t-124 25q-68 0 -126 -25t-101.5 -68.5t-68 -101.5t-24.5 -125q0 -66 24.5 -124t68 -101.5t101.5 -68.5t126 -25zM502 1212q75 0 115 -34t40 -91q0 -47 -31 -77.5t-88 -38.5l123 -143h-106l-114 141h-31v-141h-89v384h181zM410 1135
v-95h90q31 0 48.5 11.5t17.5 35.5t-17.5 36t-48.5 12h-90z" />
    <glyph glyph-name="macron" unicode="&#xaf;" horiz-adv-x="954" 
d="M175 1305h604v-133h-604v133z" />
    <glyph glyph-name="degree" unicode="&#xb0;" horiz-adv-x="806" 
d="M403 718q-74 0 -138.5 27.5t-112.5 75t-76 111.5t-28 138q0 72 28 136t76 111.5t112.5 75t138.5 27.5q73 0 138 -27.5t113 -75t76 -111.5t28 -136q0 -74 -28 -138t-76 -111.5t-113 -75t-138 -27.5zM403 851q43 0 82.5 17t68.5 46.5t46.5 69.5t17.5 86q0 45 -17.5 84.5
t-46.5 69t-68.5 46.5t-82.5 17q-44 0 -83 -17t-68 -46.5t-46 -69t-17 -84.5q0 -46 17 -86t46 -69.5t68 -46.5t83 -17z" />
    <glyph glyph-name="plusminus" unicode="&#xb1;" 
d="M523 290v294h-361v149h361v342h152v-342h363v-149h-363v-294h-152zM1038 35h-876v148h876v-148z" />
    <glyph glyph-name="twosuperior" unicode="&#xb2;" horiz-adv-x="690" 
d="M64 1276q16 22 40 46t57 43.5t75.5 32.5t96.5 13q62 0 111 -18.5t83.5 -51.5t53 -78.5t18.5 -100.5q0 -71 -32 -126t-85 -107l-193 -193h333v-126h-526v106l291 290q33 32 52.5 68t19.5 78q0 28 -10 51.5t-28 41t-43.5 27.5t-56.5 10q-30 0 -54.5 -7.5t-45 -20
t-37.5 -28.5t-32 -34z" />
    <glyph glyph-name="threesuperior" unicode="&#xb3;" horiz-adv-x="695" 
d="M313 1411q62 0 114 -16t89 -44.5t57.5 -69.5t20.5 -90q0 -66 -34.5 -112.5t-93.5 -70.5q66 -23 105.5 -70t39.5 -113q0 -57 -24.5 -99.5t-65 -70.5t-93.5 -42t-109 -14q-88 0 -156 28t-114 80l79 89q35 -36 83 -56t102 -20q32 0 60.5 7t50 21.5t34 36t12.5 51.5
q0 27 -13.5 48t-36 35t-53 21.5t-64.5 7.5h-99v120h100q31 0 58.5 7t48 21.5t32 35.5t11.5 48q0 51 -41.5 80t-105.5 29q-59 0 -101.5 -24t-70.5 -58l-82 87q42 51 105 84t155 33z" />
    <glyph glyph-name="acute" unicode="&#xb4;" horiz-adv-x="954" 
d="M271 1097l205 300h208l-251 -300h-162z" />
    <glyph glyph-name="mu" unicode="&#xb5;" horiz-adv-x="1205" 
d="M163 -400v1350h164v-537q0 -132 68 -205t193 -73q57 0 108.5 19t89.5 55.5t60.5 89t22.5 118.5v533h163v-950h-162v124q-29 -40 -66 -67.5t-77.5 -44.5t-83.5 -24.5t-84 -7.5q-34 0 -67.5 5t-64.5 15.5t-57 26t-45 35.5v-462h-162z" />
    <glyph glyph-name="paragraph" unicode="&#xb6;" horiz-adv-x="1195" 
d="M553 687q-99 1 -176 26t-129.5 71t-79.5 111.5t-27 147.5t27 148.5t79.5 112.5t129.5 71t176 25h130v-1400h-130v687zM786 1400h130v-1400h-130v1400z" />
    <glyph glyph-name="periodcentered" unicode="&#xb7;" horiz-adv-x="702" 
d="M351 667q27 0 52 -11t44 -29.5t30 -43.5t11 -52q0 -28 -11 -53t-30 -44t-44 -30t-52 -11t-52 11t-43.5 30t-30 44t-11.5 53q0 27 11.5 52t30 43.5t43.5 29.5t52 11z" />
    <glyph glyph-name="cedilla" unicode="&#xb8;" horiz-adv-x="994" 
d="M531 -322h-171l109 328h163z" />
    <glyph glyph-name="onesuperior" unicode="&#xb9;" horiz-adv-x="554" 
d="M396 610h-136v612l-211 -84v134l347 138v-800z" />
    <glyph glyph-name="ordmasculine" unicode="&#xba;" horiz-adv-x="859" 
d="M429 1290q76 0 141 -26.5t112 -73t74 -110t27 -137.5t-27 -138t-74 -110.5t-112 -73t-141 -26.5t-140.5 26.5t-112 73t-74 110.5t-26.5 138t26.5 137.5t74 110t112 73t140.5 26.5zM429 1164q-46 0 -85 -16.5t-67.5 -46t-45 -70t-16.5 -88.5t16.5 -89t45 -70t67.5 -45.5
t85 -16.5t85.5 16.5t68.5 45.5t45.5 70t16.5 89t-16.5 88.5t-45.5 70t-68.5 46t-85.5 16.5z" />
    <glyph glyph-name="guillemotright" unicode="&#xbb;" horiz-adv-x="1031" 
d="M140 902h176l191 -372l-191 -372h-176l191 372zM543 902h176l191 -372l-191 -372h-176l191 372z" />
    <glyph glyph-name="onequarter" unicode="&#xbc;" horiz-adv-x="1643" 
d="M440 0h-163l883 1400h163zM1485 274h119v-124h-119v-150h-135v150h-366v97l278 542h149l-267 -515h206v217h135v-217zM396 610h-136v612l-211 -84v134l347 138v-800z" />
    <glyph glyph-name="onehalf" unicode="&#xbd;" horiz-adv-x="1711" 
d="M440 0h-163l883 1400h163zM1085 666q16 22 40 46t57 43.5t75.5 32.5t96.5 13q62 0 111 -18.5t83.5 -51.5t53 -78.5t18.5 -100.5q0 -71 -32 -126t-85 -107l-193 -193h333v-126h-526v106l291 290q33 32 52.5 68t19.5 78q0 28 -10 51.5t-28 41t-43.5 27.5t-56.5 10
q-30 0 -54.5 -7.5t-45 -20t-37.5 -28.5t-32 -34zM396 610h-136v612l-211 -84v134l347 138v-800z" />
    <glyph glyph-name="threequarters" unicode="&#xbe;" horiz-adv-x="1759" 
d="M556 0h-163l883 1400h163zM1601 274h119v-124h-119v-150h-135v150h-366v97l278 542h149l-267 -515h206v217h135v-217zM313 1411q62 0 114 -16t89 -44.5t57.5 -69.5t20.5 -90q0 -66 -34.5 -112.5t-93.5 -70.5q66 -23 105.5 -70t39.5 -113q0 -57 -24.5 -99.5t-65 -70.5
t-93.5 -42t-109 -14q-88 0 -156 28t-114 80l79 89q35 -36 83 -56t102 -20q32 0 60.5 7t50 21.5t34 36t12.5 51.5q0 27 -13.5 48t-36 35t-53 21.5t-64.5 7.5h-99v120h100q31 0 58.5 7t48 21.5t32 35.5t11.5 48q0 51 -41.5 80t-105.5 29q-59 0 -101.5 -24t-70.5 -58l-82 87
q42 51 105 84t155 33z" />
    <glyph glyph-name="questiondown" unicode="&#xbf;" horiz-adv-x="870" 
d="M664 501v-316h-69q-85 0 -151.5 -17t-112 -49.5t-69.5 -79t-24 -106.5q0 -56 24 -99.5t69.5 -74.5t110.5 -47t146 -16q39 0 76.5 2.5t66.5 5.5l14 -168q-34 -5 -80 -8.5t-85 -3.5q-122 0 -219 28.5t-165 81t-104.5 126.5t-36.5 166q0 87 30 157.5t87.5 123t142 85
t192.5 44.5l9 165h148zM590 696q-27 0 -52 11t-43.5 29.5t-29.5 43.5t-11 52q0 28 11 53t29.5 44t43.5 30t52 11t52 -11t44 -30t30 -44t11 -53q0 -27 -11 -52t-30 -43.5t-44 -29.5t-52 -11z" />
    <glyph glyph-name="Agrave" unicode="&#xc0;" horiz-adv-x="1428" 
d="M1393 0h-189l-154 382h-679l-153 -382h-183l569 1400h219zM438 549h545l-272 677zM435 1812h208l204 -300h-161z" />
    <glyph glyph-name="Aacute" unicode="&#xc1;" horiz-adv-x="1428" 
d="M1393 0h-189l-154 382h-679l-153 -382h-183l569 1400h219zM438 549h545l-272 677zM569 1512l205 300h207l-251 -300h-161z" />
    <glyph glyph-name="Acircumflex" unicode="&#xc2;" horiz-adv-x="1428" 
d="M1393 0h-189l-154 382h-679l-153 -382h-183l569 1400h219zM438 549h545l-272 677zM878 1509l-164 183l-164 -183h-175l229 292h220l229 -292h-175z" />
    <glyph glyph-name="Atilde" unicode="&#xc3;" horiz-adv-x="1428" 
d="M1393 0h-189l-154 382h-679l-153 -382h-183l569 1400h219zM438 549h545l-272 677zM358 1656q46 57 98.5 84t125.5 27q51 0 87.5 -12t66 -26t55.5 -26t56 -12q36 0 65.5 16t61.5 48l97 -94q-46 -56 -98.5 -83.5t-125.5 -27.5q-50 0 -86 12t-66 26.5t-56.5 26.5t-56.5 12
q-36 0 -65.5 -16t-61.5 -48z" />
    <glyph glyph-name="Adieresis" unicode="&#xc4;" horiz-adv-x="1428" 
d="M1393 0h-189l-154 382h-679l-153 -382h-183l569 1400h219zM438 549h545l-272 677zM511 1771q24 0 45.5 -9t37 -24.5t24.5 -37t9 -45.5q0 -25 -9 -46t-24.5 -36.5t-37 -24t-45.5 -8.5t-45 8.5t-36.5 24t-24.5 36.5t-9 46q0 24 9 45.5t24.5 37t36.5 24.5t45 9zM916 1771
q24 0 45.5 -9t37 -24.5t24.5 -37t9 -45.5q0 -25 -9 -46t-24.5 -36.5t-37 -24t-45.5 -8.5q-50 0 -82.5 32.5t-32.5 82.5q0 24 8.5 45.5t24 37t36.5 24.5t46 9z" />
    <glyph glyph-name="Aring" unicode="&#xc5;" horiz-adv-x="1428" 
d="M1393 0h-189l-154 382h-679l-153 -382h-183l569 1400h219zM438 549h545l-272 677zM714 1490q-48 0 -90 18t-73.5 49t-50 72.5t-18.5 89.5q0 47 18.5 89t50 73t73.5 49t90 18t90.5 -18t74 -49t50 -73t18.5 -89q0 -48 -18.5 -89.5t-50 -72.5t-74 -49t-90.5 -18zM714 1594
q25 0 48 9.5t39.5 26.5t26.5 40t10 49t-10 49t-26.5 40t-39.5 26.5t-48 9.5t-47.5 -9.5t-39 -26.5t-26.5 -40t-10 -49t10 -49t26.5 -40t39 -26.5t47.5 -9.5z" />
    <glyph glyph-name="AE" unicode="&#xc6;" horiz-adv-x="2293" 
d="M2133 0h-994v354h-631l-268 -354h-212l1062 1400h1033v-165h-808v-447h782v-166h-782v-457h818v-165zM1139 521v667l-505 -667h505z" />
    <glyph glyph-name="Ccedilla" unicode="&#xc7;" horiz-adv-x="1530" 
d="M845 1421q92 0 177.5 -20t159.5 -57.5t134.5 -91.5t101.5 -121l-147 -99q-69 102 -179 161t-247 59q-116 0 -214.5 -40t-171.5 -112.5t-114 -174.5t-41 -225t41 -225t114 -174.5t171.5 -112.5t214.5 -40q135 0 245.5 58t179.5 161l144 -105q-44 -66 -104.5 -118
t-133.5 -89t-156.5 -56.5t-174.5 -19.5q-158 0 -290.5 53.5t-229.5 149.5t-151 228.5t-54 289.5t54 289.5t151 228.5t229.5 149.5t290.5 53.5zM836 -322h-179l111 328h171z" />
    <glyph glyph-name="Egrave" unicode="&#xc8;" horiz-adv-x="1353" 
d="M1193 0h-994v1400h984v-165h-808v-447h782v-166h-782v-457h818v-165zM407 1812h208l204 -300h-161z" />
    <glyph glyph-name="Eacute" unicode="&#xc9;" horiz-adv-x="1353" 
d="M1193 0h-994v1400h984v-165h-808v-447h782v-166h-782v-457h818v-165zM541 1512l205 300h207l-251 -300h-161z" />
    <glyph glyph-name="Ecircumflex" unicode="&#xca;" horiz-adv-x="1353" 
d="M1193 0h-994v1400h984v-165h-808v-447h782v-166h-782v-457h818v-165zM850 1509l-164 183l-164 -183h-175l229 292h220l229 -292h-175z" />
    <glyph glyph-name="Edieresis" unicode="&#xcb;" horiz-adv-x="1353" 
d="M1193 0h-994v1400h984v-165h-808v-447h782v-166h-782v-457h818v-165zM483 1771q24 0 45.5 -9t37 -24.5t24.5 -37t9 -45.5q0 -25 -9 -46t-24.5 -36.5t-37 -24t-45.5 -8.5t-45 8.5t-36.5 24t-24.5 36.5t-9 46q0 24 9 45.5t24.5 37t36.5 24.5t45 9zM888 1771q24 0 45.5 -9
t37 -24.5t24.5 -37t9 -45.5q0 -25 -9 -46t-24.5 -36.5t-37 -24t-45.5 -8.5q-50 0 -82.5 32.5t-32.5 82.5q0 24 8.5 45.5t24 37t36.5 24.5t46 9z" />
    <glyph glyph-name="Igrave" unicode="&#xcc;" horiz-adv-x="575" 
d="M375 0h-176v1400h176v-1400zM8 1812h208l204 -300h-161z" />
    <glyph glyph-name="Iacute" unicode="&#xcd;" horiz-adv-x="575" 
d="M375 0h-176v1400h176v-1400zM142 1512l205 300h207l-251 -300h-161z" />
    <glyph glyph-name="Icircumflex" unicode="&#xce;" horiz-adv-x="575" 
d="M375 0h-176v1400h176v-1400zM451 1509l-164 183l-164 -183h-175l229 292h220l229 -292h-175z" />
    <glyph glyph-name="Idieresis" unicode="&#xcf;" horiz-adv-x="575" 
d="M375 0h-176v1400h176v-1400zM84 1771q24 0 45.5 -9t37 -24.5t24.5 -37t9 -45.5q0 -25 -9 -46t-24.5 -36.5t-37 -24t-45.5 -8.5t-45 8.5t-36.5 24t-24.5 36.5t-9 46q0 24 9 45.5t24.5 37t36.5 24.5t45 9zM489 1771q24 0 45.5 -9t37 -24.5t24.5 -37t9 -45.5q0 -25 -9 -46
t-24.5 -36.5t-37 -24t-45.5 -8.5q-50 0 -82.5 32.5t-32.5 82.5q0 24 8.5 45.5t24 37t36.5 24.5t46 9z" />
    <glyph glyph-name="Eth" unicode="&#xd0;" horiz-adv-x="1737" 
d="M875 1400q169 0 306.5 -49.5t234 -141t149 -220.5t52.5 -289t-52.5 -289t-149 -220.5t-234 -141t-306.5 -49.5h-534v622h-222v166h222v612h534zM913 622h-396v-455h358q138 0 242 38.5t174 109t105.5 168.5t35.5 217q0 120 -35.5 218t-105.5 168t-174 108.5t-242 38.5
h-358v-445h396v-166z" />
    <glyph glyph-name="Ntilde" unicode="&#xd1;" horiz-adv-x="1581" 
d="M1381 -1h-159l-846 1100l-1 -1099h-176v1401h159l847 -1100v1099h176v-1401zM434 1656q46 57 98.5 84t125.5 27q51 0 87.5 -12t66 -26t55.5 -26t56 -12q36 0 65.5 16t61.5 48l97 -94q-46 -56 -98.5 -83.5t-125.5 -27.5q-50 0 -86 12t-66 26.5t-56.5 26.5t-56.5 12
q-36 0 -65.5 -16t-61.5 -48z" />
    <glyph glyph-name="Ograve" unicode="&#xd2;" horiz-adv-x="1690" 
d="M845 1421q105 0 199.5 -24.5t175 -69.5t145.5 -109.5t110.5 -144.5t70 -174t24.5 -199t-24.5 -199t-70 -174t-110.5 -144.5t-145.5 -109.5t-175 -69.5t-199.5 -24.5q-158 0 -290.5 53.5t-229.5 149.5t-151 228.5t-54 289.5t54 289.5t151 228.5t229.5 149.5t290.5 53.5z
M845 1252q-116 0 -214.5 -40t-171.5 -112.5t-114 -174.5t-41 -225t41 -225t114 -174.5t171.5 -112.5t214.5 -40q115 0 214 40t172 112.5t114 174.5t41 225t-41 225t-114 174.5t-172 112.5t-214 40zM566 1812h208l204 -300h-161z" />
    <glyph glyph-name="Oacute" unicode="&#xd3;" horiz-adv-x="1690" 
d="M845 1421q105 0 199.5 -24.5t175 -69.5t145.5 -109.5t110.5 -144.5t70 -174t24.5 -199t-24.5 -199t-70 -174t-110.5 -144.5t-145.5 -109.5t-175 -69.5t-199.5 -24.5q-158 0 -290.5 53.5t-229.5 149.5t-151 228.5t-54 289.5t54 289.5t151 228.5t229.5 149.5t290.5 53.5z
M845 1252q-116 0 -214.5 -40t-171.5 -112.5t-114 -174.5t-41 -225t41 -225t114 -174.5t171.5 -112.5t214.5 -40q115 0 214 40t172 112.5t114 174.5t41 225t-41 225t-114 174.5t-172 112.5t-214 40zM700 1512l205 300h207l-251 -300h-161z" />
    <glyph glyph-name="Ocircumflex" unicode="&#xd4;" horiz-adv-x="1690" 
d="M845 1421q105 0 199.5 -24.5t175 -69.5t145.5 -109.5t110.5 -144.5t70 -174t24.5 -199t-24.5 -199t-70 -174t-110.5 -144.5t-145.5 -109.5t-175 -69.5t-199.5 -24.5q-158 0 -290.5 53.5t-229.5 149.5t-151 228.5t-54 289.5t54 289.5t151 228.5t229.5 149.5t290.5 53.5z
M845 1252q-116 0 -214.5 -40t-171.5 -112.5t-114 -174.5t-41 -225t41 -225t114 -174.5t171.5 -112.5t214.5 -40q115 0 214 40t172 112.5t114 174.5t41 225t-41 225t-114 174.5t-172 112.5t-214 40zM1009 1509l-164 183l-164 -183h-175l229 292h220l229 -292h-175z" />
    <glyph glyph-name="Otilde" unicode="&#xd5;" horiz-adv-x="1690" 
d="M845 1421q105 0 199.5 -24.5t175 -69.5t145.5 -109.5t110.5 -144.5t70 -174t24.5 -199t-24.5 -199t-70 -174t-110.5 -144.5t-145.5 -109.5t-175 -69.5t-199.5 -24.5q-158 0 -290.5 53.5t-229.5 149.5t-151 228.5t-54 289.5t54 289.5t151 228.5t229.5 149.5t290.5 53.5z
M845 1252q-116 0 -214.5 -40t-171.5 -112.5t-114 -174.5t-41 -225t41 -225t114 -174.5t171.5 -112.5t214.5 -40q115 0 214 40t172 112.5t114 174.5t41 225t-41 225t-114 174.5t-172 112.5t-214 40zM489 1656q46 57 98.5 84t125.5 27q51 0 87.5 -12t66 -26t55.5 -26t56 -12
q36 0 65.5 16t61.5 48l97 -94q-46 -56 -98.5 -83.5t-125.5 -27.5q-50 0 -86 12t-66 26.5t-56.5 26.5t-56.5 12q-36 0 -65.5 -16t-61.5 -48z" />
    <glyph glyph-name="Odieresis" unicode="&#xd6;" horiz-adv-x="1690" 
d="M845 1421q105 0 199.5 -24.5t175 -69.5t145.5 -109.5t110.5 -144.5t70 -174t24.5 -199t-24.5 -199t-70 -174t-110.5 -144.5t-145.5 -109.5t-175 -69.5t-199.5 -24.5q-158 0 -290.5 53.5t-229.5 149.5t-151 228.5t-54 289.5t54 289.5t151 228.5t229.5 149.5t290.5 53.5z
M845 1252q-116 0 -214.5 -40t-171.5 -112.5t-114 -174.5t-41 -225t41 -225t114 -174.5t171.5 -112.5t214.5 -40q115 0 214 40t172 112.5t114 174.5t41 225t-41 225t-114 174.5t-172 112.5t-214 40zM642 1771q24 0 45.5 -9t37 -24.5t24.5 -37t9 -45.5q0 -25 -9 -46
t-24.5 -36.5t-37 -24t-45.5 -8.5t-45 8.5t-36.5 24t-24.5 36.5t-9 46q0 24 9 45.5t24.5 37t36.5 24.5t45 9zM1047 1771q24 0 45.5 -9t37 -24.5t24.5 -37t9 -45.5q0 -25 -9 -46t-24.5 -36.5t-37 -24t-45.5 -8.5q-50 0 -82.5 32.5t-32.5 82.5q0 24 8.5 45.5t24 37t36.5 24.5
t46 9z" />
    <glyph glyph-name="multiply" unicode="&#xd7;" 
d="M202 238l290 290l-291 292l108 109l292 -292l292 292l105 -106l-292 -292l294 -293l-109 -108l-293 293l-290 -290z" />
    <glyph glyph-name="Oslash" unicode="&#xd8;" horiz-adv-x="1690" 
d="M845 1421q134 0 249 -38.5t207 -109.5l148 147l116 -116l-147 -147q72 -92 112 -207.5t40 -249.5q0 -105 -24.5 -199t-70 -174t-110.5 -144.5t-145.5 -109.5t-175 -69.5t-199.5 -24.5q-134 0 -249.5 38.5t-207.5 109.5l-147 -147l-117 116l147 147q-72 91 -111.5 206.5
t-39.5 250.5q0 157 54 289.5t151 228.5t229.5 149.5t290.5 53.5zM1386 700q0 97 -25.5 179t-71.5 149l-775 -775q68 -51 151.5 -78t179.5 -27q115 0 214 40t172 112.5t114 174.5t41 225zM845 1252q-116 0 -214.5 -40t-171.5 -112.5t-114 -174.5t-41 -225q0 -97 25 -179
t71 -149l775 775q-68 51 -151.5 78t-178.5 27z" />
    <glyph glyph-name="Ugrave" unicode="&#xd9;" horiz-adv-x="1521" 
d="M1341 549q0 -143 -45.5 -250t-124 -178t-184.5 -106t-227 -35t-227 35t-184.5 106t-124 178t-45.5 250v851h176v-838q0 -108 30.5 -186t84.5 -128.5t128 -74.5t162 -24t162 24t128 74.5t84 128.5t30 186v838h177v-851zM481 1812h208l204 -300h-161z" />
    <glyph glyph-name="Uacute" unicode="&#xda;" horiz-adv-x="1521" 
d="M1341 549q0 -143 -45.5 -250t-124 -178t-184.5 -106t-227 -35t-227 35t-184.5 106t-124 178t-45.5 250v851h176v-838q0 -108 30.5 -186t84.5 -128.5t128 -74.5t162 -24t162 24t128 74.5t84 128.5t30 186v838h177v-851zM615 1512l205 300h207l-251 -300h-161z" />
    <glyph glyph-name="Ucircumflex" unicode="&#xdb;" horiz-adv-x="1521" 
d="M1341 549q0 -143 -45.5 -250t-124 -178t-184.5 -106t-227 -35t-227 35t-184.5 106t-124 178t-45.5 250v851h176v-838q0 -108 30.5 -186t84.5 -128.5t128 -74.5t162 -24t162 24t128 74.5t84 128.5t30 186v838h177v-851zM924 1509l-164 183l-164 -183h-175l229 292h220
l229 -292h-175z" />
    <glyph glyph-name="Udieresis" unicode="&#xdc;" horiz-adv-x="1521" 
d="M1341 549q0 -143 -45.5 -250t-124 -178t-184.5 -106t-227 -35t-227 35t-184.5 106t-124 178t-45.5 250v851h176v-838q0 -108 30.5 -186t84.5 -128.5t128 -74.5t162 -24t162 24t128 74.5t84 128.5t30 186v838h177v-851zM557 1771q24 0 45.5 -9t37 -24.5t24.5 -37t9 -45.5
q0 -25 -9 -46t-24.5 -36.5t-37 -24t-45.5 -8.5t-45 8.5t-36.5 24t-24.5 36.5t-9 46q0 24 9 45.5t24.5 37t36.5 24.5t45 9zM962 1771q24 0 45.5 -9t37 -24.5t24.5 -37t9 -45.5q0 -25 -9 -46t-24.5 -36.5t-37 -24t-45.5 -8.5q-50 0 -82.5 32.5t-32.5 82.5q0 24 8.5 45.5t24 37
t36.5 24.5t46 9z" />
    <glyph glyph-name="Yacute" unicode="&#xdd;" horiz-adv-x="1298" 
d="M739 582v-582h-176v584l-552 816h211l430 -655l430 655h205zM507 1512l205 300h207l-251 -300h-161z" />
    <glyph glyph-name="Thorn" unicode="&#xde;" horiz-adv-x="1327" 
d="M375 1135h356q118 0 210.5 -29t155.5 -83t96 -132t33 -176t-33 -176t-96 -132t-155.5 -83t-210.5 -29h-356v-295h-176v1400h176v-265zM375 969v-508h352q156 0 236 63t80 191t-80 191t-236 63h-352z" />
    <glyph glyph-name="germandbls" unicode="&#xdf;" horiz-adv-x="1229" 
d="M164 1022q0 90 28 169.5t86 139t145 94.5t206 35q95 0 178.5 -27.5t145.5 -78.5t98 -122t36 -158q0 -65 -16 -118.5t-44 -96t-66 -73.5t-81 -50q51 -17 96 -49t78.5 -76.5t53.5 -100t20 -119.5q0 -96 -33.5 -172.5t-91.5 -129.5t-135 -81t-165 -28q-78 0 -132.5 10
t-101.5 29l40 148q37 -17 78.5 -26t89.5 -9q65 0 117.5 17t89.5 50.5t57 83t20 114.5q0 66 -24.5 114t-69 79t-106.5 46t-138 15h-49v149h24q62 0 120 11.5t103 40t72 76.5t27 122q0 65 -23.5 113t-63.5 80t-93.5 48t-113.5 16q-70 0 -125 -21t-93.5 -60t-59 -93.5
t-20.5 -121.5v-1011h-164v1022z" />
    <glyph glyph-name="agrave" unicode="&#xe0;" horiz-adv-x="1248" 
d="M1075 0h-164v127q-57 -67 -140 -107t-195 -40q-100 0 -187 37t-151 103t-100.5 156.5t-36.5 198.5t36.5 198.5t100.5 156.5t151 103t187 37q112 0 195 -40t140 -108v128h164v-950zM595 816q-74 0 -134.5 -26.5t-103.5 -73t-66 -108.5t-23 -133t23.5 -133t66.5 -108.5
t103.5 -73.5t133.5 -27q72 0 132 26t103 72t67 108.5t24 135.5t-24 135t-67 108t-103 72t-132 26zM323 1397h208l204 -300h-161z" />
    <glyph glyph-name="aacute" unicode="&#xe1;" horiz-adv-x="1248" 
d="M1075 0h-164v127q-57 -67 -140 -107t-195 -40q-100 0 -187 37t-151 103t-100.5 156.5t-36.5 198.5t36.5 198.5t100.5 156.5t151 103t187 37q112 0 195 -40t140 -108v128h164v-950zM595 816q-74 0 -134.5 -26.5t-103.5 -73t-66 -108.5t-23 -133t23.5 -133t66.5 -108.5
t103.5 -73.5t133.5 -27q72 0 132 26t103 72t67 108.5t24 135.5t-24 135t-67 108t-103 72t-132 26zM478 1097l205 300h207l-251 -300h-161z" />
    <glyph glyph-name="acircumflex" unicode="&#xe2;" horiz-adv-x="1248" 
d="M1075 0h-164v127q-57 -67 -140 -107t-195 -40q-100 0 -187 37t-151 103t-100.5 156.5t-36.5 198.5t36.5 198.5t100.5 156.5t151 103t187 37q112 0 195 -40t140 -108v128h164v-950zM595 816q-74 0 -134.5 -26.5t-103.5 -73t-66 -108.5t-23 -133t23.5 -133t66.5 -108.5
t103.5 -73.5t133.5 -27q72 0 132 26t103 72t67 108.5t24 135.5t-24 135t-67 108t-103 72t-132 26zM777 1094l-164 183l-164 -183h-175l229 292h220l229 -292h-175z" />
    <glyph glyph-name="atilde" unicode="&#xe3;" horiz-adv-x="1248" 
d="M1075 0h-164v127q-57 -67 -140 -107t-195 -40q-100 0 -187 37t-151 103t-100.5 156.5t-36.5 198.5t36.5 198.5t100.5 156.5t151 103t187 37q112 0 195 -40t140 -108v128h164v-950zM595 816q-74 0 -134.5 -26.5t-103.5 -73t-66 -108.5t-23 -133t23.5 -133t66.5 -108.5
t103.5 -73.5t133.5 -27q72 0 132 26t103 72t67 108.5t24 135.5t-24 135t-67 108t-103 72t-132 26zM262 1241q46 57 98.5 84t125.5 27q51 0 87.5 -12t66 -26t55.5 -26t56 -12q36 0 65.5 16t61.5 48l97 -94q-46 -56 -98.5 -83.5t-125.5 -27.5q-50 0 -86 12t-66 26.5
t-56.5 26.5t-56.5 12q-36 0 -65.5 -16t-61.5 -48z" />
    <glyph glyph-name="adieresis" unicode="&#xe4;" horiz-adv-x="1248" 
d="M1075 0h-164v127q-57 -67 -140 -107t-195 -40q-100 0 -187 37t-151 103t-100.5 156.5t-36.5 198.5t36.5 198.5t100.5 156.5t151 103t187 37q112 0 195 -40t140 -108v128h164v-950zM595 816q-74 0 -134.5 -26.5t-103.5 -73t-66 -108.5t-23 -133t23.5 -133t66.5 -108.5
t103.5 -73.5t133.5 -27q72 0 132 26t103 72t67 108.5t24 135.5t-24 135t-67 108t-103 72t-132 26zM410 1356q24 0 45.5 -9t37 -24.5t24.5 -37t9 -45.5q0 -25 -9 -46t-24.5 -36.5t-37 -24t-45.5 -8.5t-45 8.5t-36.5 24t-24.5 36.5t-9 46q0 24 9 45.5t24.5 37t36.5 24.5t45 9z
M815 1356q24 0 45.5 -9t37 -24.5t24.5 -37t9 -45.5q0 -25 -9 -46t-24.5 -36.5t-37 -24t-45.5 -8.5q-50 0 -82.5 32.5t-32.5 82.5q0 24 8.5 45.5t24 37t36.5 24.5t46 9z" />
    <glyph glyph-name="aring" unicode="&#xe5;" horiz-adv-x="1248" 
d="M1075 0h-164v127q-57 -67 -140 -107t-195 -40q-100 0 -187 37t-151 103t-100.5 156.5t-36.5 198.5t36.5 198.5t100.5 156.5t151 103t187 37q112 0 195 -40t140 -108v128h164v-950zM595 816q-74 0 -134.5 -26.5t-103.5 -73t-66 -108.5t-23 -133t23.5 -133t66.5 -108.5
t103.5 -73.5t133.5 -27q72 0 132 26t103 72t67 108.5t24 135.5t-24 135t-67 108t-103 72t-132 26zM612 1075q-48 0 -90 18t-73.5 49t-50 72.5t-18.5 89.5q0 47 18.5 89t50 73t73.5 49t90 18t90.5 -18t74 -49t50 -73t18.5 -89q0 -48 -18.5 -89.5t-50 -72.5t-74 -49t-90.5 -18
zM612 1179q25 0 48 9.5t39.5 26.5t26.5 40t10 49t-10 49t-26.5 40t-39.5 26.5t-48 9.5t-47.5 -9.5t-39 -26.5t-26.5 -40t-10 -49t10 -49t26.5 -40t39 -26.5t47.5 -9.5z" />
    <glyph glyph-name="ae" unicode="&#xe6;" horiz-adv-x="1791" 
d="M1243 969q97 0 179 -36t141 -101t92.5 -155.5t34.5 -199.5q0 -33 -3 -60h-746q8 -74 36.5 -129t72 -92t98 -55t115.5 -18q85 0 159 30t134 83l87 -112q-44 -41 -90.5 -69t-95.5 -44.5t-100 -23.5t-104 -7q-123 0 -221.5 47t-163.5 133q-32 -38 -72.5 -71t-90 -57
t-108 -38t-127.5 -14q-87 0 -155.5 21.5t-116 60t-72.5 92t-25 116.5q0 61 25.5 113t75 89.5t122.5 59t168 21.5h281q-1 136 -70.5 202.5t-202.5 66.5q-84 0 -151 -28t-118 -65l-77 121q83 63 175 91.5t192 28.5q127 0 218 -44t139 -144q29 43 68 77.5t86 59t100.5 37.5
t110.5 13zM495 124q42 0 84.5 10.5t83 30.5t76.5 48.5t65 65.5q-11 32 -19 66.5t-11 71.5h-265q-65 0 -109 -12t-72 -32t-40 -46.5t-12 -56.5t13.5 -56.5t41 -46.5t68.5 -31.5t96 -11.5zM1240 824q-63 0 -113.5 -20t-88 -56.5t-62 -87t-33.5 -111.5h580q-8 63 -31.5 114
t-60 86.5t-85 55t-106.5 19.5z" />
    <glyph glyph-name="ccedilla" unicode="&#xe7;" horiz-adv-x="1025" 
d="M594 970q106 0 197.5 -38t155.5 -112l-105 -111q-53 51 -114.5 79t-137.5 28q-69 0 -127.5 -25.5t-102 -70.5t-68 -107.5t-24.5 -137.5t24.5 -137.5t68 -108t102 -71t127.5 -25.5q76 0 141 30.5t115 78.5l101 -113q-65 -73 -156 -111t-197 -38q-110 0 -201 37.5t-156 104
t-100.5 157t-35.5 196.5t35.5 196.5t100.5 157t156 104t201 37.5zM566 -322h-171l109 328h163z" />
    <glyph glyph-name="egrave" unicode="&#xe8;" horiz-adv-x="1121" 
d="M573 970q97 0 179 -36t141 -101t92.5 -155.5t34.5 -199.5q0 -16 -1 -31.5t-2 -29.5h-747q9 -74 37.5 -129t71.5 -92t98 -55t116 -18q84 0 158 30t135 83l87 -112q-44 -41 -91 -69t-96 -44.5t-100 -23.5t-103 -7q-106 0 -194.5 35.5t-152.5 101t-99.5 156.5t-35.5 202
q0 109 35.5 200.5t98.5 156.5t149.5 101.5t188.5 36.5zM570 825q-63 0 -114 -20.5t-88.5 -57t-62 -87t-33.5 -111.5h581q-8 63 -31.5 114t-60 87t-85 55.5t-106.5 19.5zM279 1397h208l204 -300h-161z" />
    <glyph glyph-name="eacute" unicode="&#xe9;" horiz-adv-x="1121" 
d="M573 970q97 0 179 -36t141 -101t92.5 -155.5t34.5 -199.5q0 -16 -1 -31.5t-2 -29.5h-747q9 -74 37.5 -129t71.5 -92t98 -55t116 -18q84 0 158 30t135 83l87 -112q-44 -41 -91 -69t-96 -44.5t-100 -23.5t-103 -7q-106 0 -194.5 35.5t-152.5 101t-99.5 156.5t-35.5 202
q0 109 35.5 200.5t98.5 156.5t149.5 101.5t188.5 36.5zM570 825q-63 0 -114 -20.5t-88.5 -57t-62 -87t-33.5 -111.5h581q-8 63 -31.5 114t-60 87t-85 55.5t-106.5 19.5zM434 1097l205 300h207l-251 -300h-161z" />
    <glyph glyph-name="ecircumflex" unicode="&#xea;" horiz-adv-x="1121" 
d="M573 970q97 0 179 -36t141 -101t92.5 -155.5t34.5 -199.5q0 -16 -1 -31.5t-2 -29.5h-747q9 -74 37.5 -129t71.5 -92t98 -55t116 -18q84 0 158 30t135 83l87 -112q-44 -41 -91 -69t-96 -44.5t-100 -23.5t-103 -7q-106 0 -194.5 35.5t-152.5 101t-99.5 156.5t-35.5 202
q0 109 35.5 200.5t98.5 156.5t149.5 101.5t188.5 36.5zM570 825q-63 0 -114 -20.5t-88.5 -57t-62 -87t-33.5 -111.5h581q-8 63 -31.5 114t-60 87t-85 55.5t-106.5 19.5zM733 1094l-164 183l-164 -183h-175l229 292h220l229 -292h-175z" />
    <glyph glyph-name="edieresis" unicode="&#xeb;" horiz-adv-x="1121" 
d="M573 970q97 0 179 -36t141 -101t92.5 -155.5t34.5 -199.5q0 -16 -1 -31.5t-2 -29.5h-747q9 -74 37.5 -129t71.5 -92t98 -55t116 -18q84 0 158 30t135 83l87 -112q-44 -41 -91 -69t-96 -44.5t-100 -23.5t-103 -7q-106 0 -194.5 35.5t-152.5 101t-99.5 156.5t-35.5 202
q0 109 35.5 200.5t98.5 156.5t149.5 101.5t188.5 36.5zM570 825q-63 0 -114 -20.5t-88.5 -57t-62 -87t-33.5 -111.5h581q-8 63 -31.5 114t-60 87t-85 55.5t-106.5 19.5zM366 1356q24 0 45.5 -9t37 -24.5t24.5 -37t9 -45.5q0 -25 -9 -46t-24.5 -36.5t-37 -24t-45.5 -8.5
t-45 8.5t-36.5 24t-24.5 36.5t-9 46q0 24 9 45.5t24.5 37t36.5 24.5t45 9zM771 1356q24 0 45.5 -9t37 -24.5t24.5 -37t9 -45.5q0 -25 -9 -46t-24.5 -36.5t-37 -24t-45.5 -8.5q-50 0 -82.5 32.5t-32.5 82.5q0 24 8.5 45.5t24 37t36.5 24.5t46 9z" />
    <glyph glyph-name="igrave" unicode="&#xec;" horiz-adv-x="509" 
d="M336 0h-163v950h163v-950zM-36 1397h208l204 -300h-161z" />
    <glyph glyph-name="iacute" unicode="&#xed;" horiz-adv-x="509" 
d="M336 0h-163v950h163v-950zM119 1097l205 300h207l-251 -300h-161z" />
    <glyph glyph-name="icircumflex" unicode="&#xee;" horiz-adv-x="509" 
d="M336 0h-163v950h163v-950zM418 1094l-164 183l-164 -183h-175l229 292h220l229 -292h-175z" />
    <glyph glyph-name="idieresis" unicode="&#xef;" horiz-adv-x="509" 
d="M336 0h-163v950h163v-950zM51 1356q24 0 45.5 -9t37 -24.5t24.5 -37t9 -45.5q0 -25 -9 -46t-24.5 -36.5t-37 -24t-45.5 -8.5t-45 8.5t-36.5 24t-24.5 36.5t-9 46q0 24 9 45.5t24.5 37t36.5 24.5t45 9zM456 1356q24 0 45.5 -9t37 -24.5t24.5 -37t9 -45.5q0 -25 -9 -46
t-24.5 -36.5t-37 -24t-45.5 -8.5q-50 0 -82.5 32.5t-32.5 82.5q0 24 8.5 45.5t24 37t36.5 24.5t46 9z" />
    <glyph glyph-name="eth" unicode="&#xf0;" horiz-adv-x="1203" 
d="M930 1338l-188 -112q78 -69 144 -152.5t114 -178t75 -198t27 -212.5q0 -108 -38 -200t-105 -160t-158.5 -106.5t-197.5 -38.5q-108 0 -200 37t-159 101.5t-105 153t-38 191.5q0 105 36.5 194t100 154.5t149.5 102.5t185 37q89 0 164 -30t132 -85q-40 81 -105 158
t-159 149l-248 -148l-61 100l202 121q-46 28 -96.5 54t-107.5 50l73 131q79 -32 147.5 -69t128.5 -79l226 135zM603 797q-72 0 -133 -24.5t-106 -68.5t-70.5 -105.5t-25.5 -134.5q0 -72 25.5 -133t70.5 -105t106 -68.5t133 -24.5q71 0 132.5 24.5t106.5 68.5t70.5 105
t25.5 133q0 73 -25.5 134.5t-70.5 105.5t-106.5 68.5t-132.5 24.5z" />
    <glyph glyph-name="ntilde" unicode="&#xf1;" horiz-adv-x="1205" 
d="M646 970q88 0 160.5 -27.5t125 -77t81.5 -120t29 -155.5v-590h-164v537q0 132 -68 205t-193 73q-57 0 -108.5 -19t-89.5 -55.5t-60.5 -89t-22.5 -118.5v-533h-163v950h162v-124q29 40 66 67.5t77.5 44.5t83.5 24.5t84 7.5zM268 1241q46 57 98.5 84t125.5 27
q51 0 87.5 -12t66 -26t55.5 -26t56 -12q36 0 65.5 16t61.5 48l97 -94q-46 -56 -98.5 -83.5t-125.5 -27.5q-50 0 -86 12t-66 26.5t-56.5 26.5t-56.5 12q-36 0 -65.5 -16t-61.5 -48z" />
    <glyph glyph-name="ograve" unicode="&#xf2;" horiz-adv-x="1207" 
d="M603 970q108 0 200 -37.5t159.5 -104t105.5 -157t38 -196.5t-38 -196.5t-105.5 -157t-159.5 -104t-200 -37.5t-200 37.5t-159 104t-105 157t-38 196.5t38 196.5t105 157t159 104t200 37.5zM603 816q-72 0 -133 -25.5t-106 -70.5t-70.5 -107.5t-25.5 -137.5t25.5 -137.5
t70.5 -108t106 -71t133 -25.5q71 0 132.5 25.5t106.5 71t70.5 108t25.5 137.5t-25.5 137.5t-70.5 107.5t-106.5 70.5t-132.5 25.5zM313 1397h208l204 -300h-161z" />
    <glyph glyph-name="oacute" unicode="&#xf3;" horiz-adv-x="1207" 
d="M603 970q108 0 200 -37.5t159.5 -104t105.5 -157t38 -196.5t-38 -196.5t-105.5 -157t-159.5 -104t-200 -37.5t-200 37.5t-159 104t-105 157t-38 196.5t38 196.5t105 157t159 104t200 37.5zM603 816q-72 0 -133 -25.5t-106 -70.5t-70.5 -107.5t-25.5 -137.5t25.5 -137.5
t70.5 -108t106 -71t133 -25.5q71 0 132.5 25.5t106.5 71t70.5 108t25.5 137.5t-25.5 137.5t-70.5 107.5t-106.5 70.5t-132.5 25.5zM468 1097l205 300h207l-251 -300h-161z" />
    <glyph glyph-name="ocircumflex" unicode="&#xf4;" horiz-adv-x="1207" 
d="M603 970q108 0 200 -37.5t159.5 -104t105.5 -157t38 -196.5t-38 -196.5t-105.5 -157t-159.5 -104t-200 -37.5t-200 37.5t-159 104t-105 157t-38 196.5t38 196.5t105 157t159 104t200 37.5zM603 816q-72 0 -133 -25.5t-106 -70.5t-70.5 -107.5t-25.5 -137.5t25.5 -137.5
t70.5 -108t106 -71t133 -25.5q71 0 132.5 25.5t106.5 71t70.5 108t25.5 137.5t-25.5 137.5t-70.5 107.5t-106.5 70.5t-132.5 25.5zM767 1094l-164 183l-164 -183h-175l229 292h220l229 -292h-175z" />
    <glyph glyph-name="otilde" unicode="&#xf5;" horiz-adv-x="1207" 
d="M603 970q108 0 200 -37.5t159.5 -104t105.5 -157t38 -196.5t-38 -196.5t-105.5 -157t-159.5 -104t-200 -37.5t-200 37.5t-159 104t-105 157t-38 196.5t38 196.5t105 157t159 104t200 37.5zM603 816q-72 0 -133 -25.5t-106 -70.5t-70.5 -107.5t-25.5 -137.5t25.5 -137.5
t70.5 -108t106 -71t133 -25.5q71 0 132.5 25.5t106.5 71t70.5 108t25.5 137.5t-25.5 137.5t-70.5 107.5t-106.5 70.5t-132.5 25.5zM252 1241q46 57 98.5 84t125.5 27q51 0 87.5 -12t66 -26t55.5 -26t56 -12q36 0 65.5 16t61.5 48l97 -94q-46 -56 -98.5 -83.5t-125.5 -27.5
q-50 0 -86 12t-66 26.5t-56.5 26.5t-56.5 12q-36 0 -65.5 -16t-61.5 -48z" />
    <glyph glyph-name="odieresis" unicode="&#xf6;" horiz-adv-x="1207" 
d="M603 970q108 0 200 -37.5t159.5 -104t105.5 -157t38 -196.5t-38 -196.5t-105.5 -157t-159.5 -104t-200 -37.5t-200 37.5t-159 104t-105 157t-38 196.5t38 196.5t105 157t159 104t200 37.5zM603 816q-72 0 -133 -25.5t-106 -70.5t-70.5 -107.5t-25.5 -137.5t25.5 -137.5
t70.5 -108t106 -71t133 -25.5q71 0 132.5 25.5t106.5 71t70.5 108t25.5 137.5t-25.5 137.5t-70.5 107.5t-106.5 70.5t-132.5 25.5zM400 1356q24 0 45.5 -9t37 -24.5t24.5 -37t9 -45.5q0 -25 -9 -46t-24.5 -36.5t-37 -24t-45.5 -8.5t-45 8.5t-36.5 24t-24.5 36.5t-9 46
q0 24 9 45.5t24.5 37t36.5 24.5t45 9zM805 1356q24 0 45.5 -9t37 -24.5t24.5 -37t9 -45.5q0 -25 -9 -46t-24.5 -36.5t-37 -24t-45.5 -8.5q-50 0 -82.5 32.5t-32.5 82.5q0 24 8.5 45.5t24 37t36.5 24.5t46 9z" />
    <glyph glyph-name="divide" unicode="&#xf7;" 
d="M1038 456h-876v148h876v-148zM601 967q22 0 42.5 -9t36.5 -24.5t25 -36t9 -43.5t-9 -43.5t-25 -36.5t-36.5 -25t-42.5 -9q-23 0 -43.5 9t-36.5 25t-25 36.5t-9 43.5t9 43.5t25 36t36.5 24.5t43.5 9zM601 320q22 0 42.5 -9t36.5 -24.5t25 -36t9 -43.5t-9 -43.5t-25 -36.5
t-36.5 -25t-42.5 -9q-23 0 -43.5 9t-36.5 25t-25 36.5t-9 43.5t9 43.5t25 36t36.5 24.5t43.5 9z" />
    <glyph glyph-name="oslash" unicode="&#xf8;" horiz-adv-x="1207" 
d="M603 970q88 0 164 -25t139 -70l109 109l99 -98l-108 -108q48 -62 74 -138.5t26 -164.5q0 -106 -38 -196.5t-105.5 -157t-159.5 -104t-200 -37.5q-88 0 -163.5 24t-138.5 69l-109 -109l-99 98l108 108q-48 63 -74 140t-26 165q0 106 38 196.5t105 157t159 104t200 37.5z
M603 816q-72 0 -133 -25.5t-106 -70.5t-70.5 -107.5t-25.5 -137.5q0 -54 13 -101t37 -87l474 474q-40 26 -87.5 40.5t-101.5 14.5zM938 475q0 53 -13 99.5t-37 85.5l-473 -473q40 -26 87 -40t101 -14q71 0 132.5 25.5t106.5 71t70.5 108t25.5 137.5z" />
    <glyph glyph-name="ugrave" unicode="&#xf9;" horiz-adv-x="1193" 
d="M1030 398q0 -108 -35.5 -186.5t-95.5 -130t-138.5 -76.5t-163.5 -25q-86 0 -164.5 25t-138.5 76.5t-95.5 130t-35.5 186.5v552h164v-537q0 -73 20.5 -125.5t56.5 -87t85.5 -51t107.5 -16.5t107 16.5t85 51t56.5 87t20.5 125.5v537h164v-552zM307 1397h208l204 -300h-161z
" />
    <glyph glyph-name="uacute" unicode="&#xfa;" horiz-adv-x="1193" 
d="M1030 398q0 -108 -35.5 -186.5t-95.5 -130t-138.5 -76.5t-163.5 -25q-86 0 -164.5 25t-138.5 76.5t-95.5 130t-35.5 186.5v552h164v-537q0 -73 20.5 -125.5t56.5 -87t85.5 -51t107.5 -16.5t107 16.5t85 51t56.5 87t20.5 125.5v537h164v-552zM462 1097l205 300h207
l-251 -300h-161z" />
    <glyph glyph-name="ucircumflex" unicode="&#xfb;" horiz-adv-x="1193" 
d="M1030 398q0 -108 -35.5 -186.5t-95.5 -130t-138.5 -76.5t-163.5 -25q-86 0 -164.5 25t-138.5 76.5t-95.5 130t-35.5 186.5v552h164v-537q0 -73 20.5 -125.5t56.5 -87t85.5 -51t107.5 -16.5t107 16.5t85 51t56.5 87t20.5 125.5v537h164v-552zM761 1094l-164 183l-164 -183
h-175l229 292h220l229 -292h-175z" />
    <glyph glyph-name="udieresis" unicode="&#xfc;" horiz-adv-x="1193" 
d="M1030 398q0 -108 -35.5 -186.5t-95.5 -130t-138.5 -76.5t-163.5 -25q-86 0 -164.5 25t-138.5 76.5t-95.5 130t-35.5 186.5v552h164v-537q0 -73 20.5 -125.5t56.5 -87t85.5 -51t107.5 -16.5t107 16.5t85 51t56.5 87t20.5 125.5v537h164v-552zM394 1356q24 0 45.5 -9
t37 -24.5t24.5 -37t9 -45.5q0 -25 -9 -46t-24.5 -36.5t-37 -24t-45.5 -8.5t-45 8.5t-36.5 24t-24.5 36.5t-9 46q0 24 9 45.5t24.5 37t36.5 24.5t45 9zM799 1356q24 0 45.5 -9t37 -24.5t24.5 -37t9 -45.5q0 -25 -9 -46t-24.5 -36.5t-37 -24t-45.5 -8.5q-50 0 -82.5 32.5
t-32.5 82.5q0 24 8.5 45.5t24 37t36.5 24.5t46 9z" />
    <glyph glyph-name="yacute" unicode="&#xfd;" horiz-adv-x="1064" 
d="M283 -405h-181l351 608l-433 747h183l342 -584l325 584h180zM402 1097l205 300h207l-251 -300h-161z" />
    <glyph glyph-name="thorn" unicode="&#xfe;" horiz-adv-x="1247" 
d="M671 970q100 0 186.5 -37t150.5 -103t101 -156.5t37 -198.5t-37 -198.5t-101 -156.5t-150.5 -103t-186.5 -37q-113 0 -196 40t-139 107v-527h-163v1840h163v-617q56 67 139 107t196 40zM652 816q-72 0 -132 -26t-103 -72t-67 -108t-24 -135t24 -135.5t67 -108.5t103 -72
t132 -26q74 0 134 27t103 73.5t66 108.5t23 133t-23.5 133t-66.5 108.5t-103 73t-133 26.5z" />
    <glyph glyph-name="ydieresis" unicode="&#xff;" horiz-adv-x="1064" 
d="M283 -405h-181l351 608l-433 747h183l342 -584l325 584h180zM334 1356q24 0 45.5 -9t37 -24.5t24.5 -37t9 -45.5q0 -25 -9 -46t-24.5 -36.5t-37 -24t-45.5 -8.5t-45 8.5t-36.5 24t-24.5 36.5t-9 46q0 24 9 45.5t24.5 37t36.5 24.5t45 9zM739 1356q24 0 45.5 -9t37 -24.5
t24.5 -37t9 -45.5q0 -25 -9 -46t-24.5 -36.5t-37 -24t-45.5 -8.5q-50 0 -82.5 32.5t-32.5 82.5q0 24 8.5 45.5t24 37t36.5 24.5t46 9z" />
    <glyph glyph-name="Amacron" unicode="&#x100;" horiz-adv-x="1428" 
d="M1393 0h-189l-154 382h-679l-153 -382h-183l569 1400h219zM438 549h545l-272 677zM412 1720h603v-133h-603v133z" />
    <glyph glyph-name="amacron" unicode="&#x101;" horiz-adv-x="1248" 
d="M1075 0h-164v127q-57 -67 -140 -107t-195 -40q-100 0 -187 37t-151 103t-100.5 156.5t-36.5 198.5t36.5 198.5t100.5 156.5t151 103t187 37q112 0 195 -40t140 -108v128h164v-950zM595 816q-74 0 -134.5 -26.5t-103.5 -73t-66 -108.5t-23 -133t23.5 -133t66.5 -108.5
t103.5 -73.5t133.5 -27q72 0 132 26t103 72t67 108.5t24 135.5t-24 135t-67 108t-103 72t-132 26zM312 1305h603v-133h-603v133z" />
    <glyph glyph-name="Abreve" unicode="&#x102;" horiz-adv-x="1428" 
d="M1393 0h-189l-154 382h-679l-153 -382h-183l569 1400h219zM438 549h545l-272 677zM498 1825q28 -95 83 -140.5t133 -45.5t132.5 45.5t83.5 140.5l132 -39q-40 -141 -130 -213.5t-218 -72.5t-218 72.5t-130 213.5z" />
    <glyph glyph-name="abreve" unicode="&#x103;" horiz-adv-x="1248" 
d="M1075 0h-164v127q-57 -67 -140 -107t-195 -40q-100 0 -187 37t-151 103t-100.5 156.5t-36.5 198.5t36.5 198.5t100.5 156.5t151 103t187 37q112 0 195 -40t140 -108v128h164v-950zM595 816q-74 0 -134.5 -26.5t-103.5 -73t-66 -108.5t-23 -133t23.5 -133t66.5 -108.5
t103.5 -73.5t133.5 -27q72 0 132 26t103 72t67 108.5t24 135.5t-24 135t-67 108t-103 72t-132 26zM397 1410q28 -95 83 -140.5t133 -45.5t132.5 45.5t83.5 140.5l132 -39q-40 -141 -130 -213.5t-218 -72.5t-218 72.5t-130 213.5z" />
    <glyph glyph-name="Aogonek" unicode="&#x104;" horiz-adv-x="1428" 
d="M1393 0h-189l-154 382h-679l-153 -382h-183l569 1400h219zM438 549h545l-272 677zM1394 -334q-44 -43 -93 -62.5t-105 -19.5q-48 0 -88 12.5t-69 36t-45.5 57t-16.5 74.5q0 48 22 87.5t64 75.5t103.5 69t139.5 68l39 -64q-112 -55 -162.5 -104t-50.5 -99
q0 -33 21.5 -52.5t57.5 -19.5q28 0 51.5 12.5t44.5 34.5z" />
    <glyph glyph-name="aogonek" unicode="&#x105;" horiz-adv-x="1248" 
d="M1075 0h-164v127q-57 -67 -140 -107t-195 -40q-100 0 -187 37t-151 103t-100.5 156.5t-36.5 198.5t36.5 198.5t100.5 156.5t151 103t187 37q112 0 195 -40t140 -108v128h164v-950zM595 816q-74 0 -134.5 -26.5t-103.5 -73t-66 -108.5t-23 -133t23.5 -133t66.5 -108.5
t103.5 -73.5t133.5 -27q72 0 132 26t103 72t67 108.5t24 135.5t-24 135t-67 108t-103 72t-132 26zM1124 -334q-44 -43 -93 -62.5t-105 -19.5q-48 0 -88 12.5t-69 36t-45.5 57t-16.5 74.5q0 48 22 87.5t64 75.5t103.5 69t139.5 68l39 -64q-112 -55 -162.5 -104t-50.5 -99
q0 -33 21.5 -52.5t57.5 -19.5q28 0 51.5 12.5t44.5 34.5z" />
    <glyph glyph-name="Cacute" unicode="&#x106;" horiz-adv-x="1530" 
d="M845 1421q92 0 177.5 -20t159.5 -57.5t134.5 -91.5t101.5 -121l-147 -99q-69 102 -179 161t-247 59q-116 0 -214.5 -40t-171.5 -112.5t-114 -174.5t-41 -225t41 -225t114 -174.5t171.5 -112.5t214.5 -40q135 0 245.5 58t179.5 161l144 -105q-44 -66 -104.5 -118
t-133.5 -89t-156.5 -56.5t-174.5 -19.5q-158 0 -290.5 53.5t-229.5 149.5t-151 228.5t-54 289.5t54 289.5t151 228.5t229.5 149.5t290.5 53.5zM694 1512l205 300h207l-251 -300h-161z" />
    <glyph glyph-name="cacute" unicode="&#x107;" horiz-adv-x="1025" 
d="M594 970q106 0 197.5 -38t155.5 -112l-105 -111q-53 51 -114.5 79t-137.5 28q-69 0 -127.5 -25.5t-102 -70.5t-68 -107.5t-24.5 -137.5t24.5 -137.5t68 -108t102 -71t127.5 -25.5q76 0 141 30.5t115 78.5l101 -113q-65 -73 -156 -111t-197 -38q-110 0 -201 37.5t-156 104
t-100.5 157t-35.5 196.5t35.5 196.5t100.5 157t156 104t201 37.5zM449 1097l205 300h207l-251 -300h-161z" />
    <glyph glyph-name="Ccircumflex" unicode="&#x108;" horiz-adv-x="1530" 
d="M845 1421q92 0 177.5 -20t159.5 -57.5t134.5 -91.5t101.5 -121l-147 -99q-69 102 -179 161t-247 59q-116 0 -214.5 -40t-171.5 -112.5t-114 -174.5t-41 -225t41 -225t114 -174.5t171.5 -112.5t214.5 -40q135 0 245.5 58t179.5 161l144 -105q-44 -66 -104.5 -118
t-133.5 -89t-156.5 -56.5t-174.5 -19.5q-158 0 -290.5 53.5t-229.5 149.5t-151 228.5t-54 289.5t54 289.5t151 228.5t229.5 149.5t290.5 53.5zM1003 1509l-164 183l-164 -183h-175l229 292h220l229 -292h-175z" />
    <glyph glyph-name="ccircumflex" unicode="&#x109;" horiz-adv-x="1025" 
d="M594 970q106 0 197.5 -38t155.5 -112l-105 -111q-53 51 -114.5 79t-137.5 28q-69 0 -127.5 -25.5t-102 -70.5t-68 -107.5t-24.5 -137.5t24.5 -137.5t68 -108t102 -71t127.5 -25.5q76 0 141 30.5t115 78.5l101 -113q-65 -73 -156 -111t-197 -38q-110 0 -201 37.5t-156 104
t-100.5 157t-35.5 196.5t35.5 196.5t100.5 157t156 104t201 37.5zM748 1094l-164 183l-164 -183h-175l229 292h220l229 -292h-175z" />
    <glyph glyph-name="Cdotaccent" unicode="&#x10a;" horiz-adv-x="1530" 
d="M845 1421q92 0 177.5 -20t159.5 -57.5t134.5 -91.5t101.5 -121l-147 -99q-69 102 -179 161t-247 59q-116 0 -214.5 -40t-171.5 -112.5t-114 -174.5t-41 -225t41 -225t114 -174.5t171.5 -112.5t214.5 -40q135 0 245.5 58t179.5 161l144 -105q-44 -66 -104.5 -118
t-133.5 -89t-156.5 -56.5t-174.5 -19.5q-158 0 -290.5 53.5t-229.5 149.5t-151 228.5t-54 289.5t54 289.5t151 228.5t229.5 149.5t290.5 53.5zM878.53 1792.37q24.9229 0 47.25 -9.3457q22.3262 -9.34668 38.9414 -25.9619t25.9619 -38.4219
q9.3457 -21.8076 9.3457 -47.7695q0 -24.9229 -9.3457 -46.7305q-9.34668 -21.8066 -25.9619 -37.9033q-16.6152 -16.0957 -38.9414 -24.9229q-22.3271 -8.82617 -47.25 -8.82617t-46.7305 8.82617q-21.8076 8.82715 -37.9033 24.9229q-16.0957 16.0967 -25.4414 37.9033
q-9.34668 21.8076 -9.34668 46.7305q0 25.9619 9.34668 47.7695q9.3457 21.8066 25.4414 38.4219t37.9033 25.9619q21.8076 9.3457 46.7305 9.3457z" />
    <glyph glyph-name="cdotaccent" unicode="&#x10b;" horiz-adv-x="1025" 
d="M594 970q106 0 197.5 -38t155.5 -112l-105 -111q-53 51 -114.5 79t-137.5 28q-69 0 -127.5 -25.5t-102 -70.5t-68 -107.5t-24.5 -137.5t24.5 -137.5t68 -108t102 -71t127.5 -25.5q76 0 141 30.5t115 78.5l101 -113q-65 -73 -156 -111t-197 -38q-110 0 -201 37.5t-156 104
t-100.5 157t-35.5 196.5t35.5 196.5t100.5 157t156 104t201 37.5zM583 1401q24 0 45.5 -9t37.5 -25t25 -37t9 -46q0 -24 -9 -45t-25 -36.5t-37.5 -24t-45.5 -8.5t-45 8.5t-36.5 24t-24.5 36.5t-9 45q0 25 9 46t24.5 37t36.5 25t45 9z" />
    <glyph glyph-name="Ccaron" unicode="&#x10c;" horiz-adv-x="1530" 
d="M845 1421q92 0 177.5 -20t159.5 -57.5t134.5 -91.5t101.5 -121l-147 -99q-69 102 -179 161t-247 59q-116 0 -214.5 -40t-171.5 -112.5t-114 -174.5t-41 -225t41 -225t114 -174.5t171.5 -112.5t214.5 -40q135 0 245.5 58t179.5 161l144 -105q-44 -66 -104.5 -118
t-133.5 -89t-156.5 -56.5t-174.5 -19.5q-158 0 -290.5 53.5t-229.5 149.5t-151 228.5t-54 289.5t54 289.5t151 228.5t229.5 149.5t290.5 53.5zM675 1799l164 -183l164 183h175l-229 -291h-220l-229 291h175z" />
    <glyph glyph-name="ccaron" unicode="&#x10d;" horiz-adv-x="1025" 
d="M594 970q106 0 197.5 -38t155.5 -112l-105 -111q-53 51 -114.5 79t-137.5 28q-69 0 -127.5 -25.5t-102 -70.5t-68 -107.5t-24.5 -137.5t24.5 -137.5t68 -108t102 -71t127.5 -25.5q76 0 141 30.5t115 78.5l101 -113q-65 -73 -156 -111t-197 -38q-110 0 -201 37.5t-156 104
t-100.5 157t-35.5 196.5t35.5 196.5t100.5 157t156 104t201 37.5zM420 1384l164 -183l164 183h175l-229 -291h-220l-229 291h175z" />
    <glyph glyph-name="Dcaron" unicode="&#x10e;" horiz-adv-x="1595" 
d="M733 1400q169 0 306.5 -49.5t234 -141t149 -220.5t52.5 -289t-52.5 -289t-149 -220.5t-234 -141t-306.5 -49.5h-534v1400h534zM375 1233v-1066h358q138 0 242 38.5t174 109t105.5 168.5t35.5 217q0 120 -35.5 218t-105.5 168t-174 108.5t-242 38.5h-358zM575 1799
l164 -183l164 183h175l-229 -291h-220l-229 291h175z" />
    <glyph glyph-name="dcaron" unicode="&#x10f;" horiz-adv-x="1302" 
d="M576 970q112 0 195 -40t140 -108v618h164v-1440h-164v127q-57 -67 -140 -107t-195 -40q-100 0 -187 37t-151 103t-100.5 156.5t-36.5 198.5t36.5 198.5t100.5 156.5t151 103t187 37zM595 816q-74 0 -134.5 -26.5t-103.5 -73t-66 -108.5t-23 -133t23.5 -133t66.5 -108.5
t103.5 -73.5t133.5 -27q72 0 132 26t103 72t67 108.5t24 135.5t-24 135t-67 108t-103 72t-132 26zM1189 1050l5 390h169l-36 -390h-138z" />
    <glyph glyph-name="Dcroat" unicode="&#x110;" horiz-adv-x="1737" 
d="M875 1400q169 0 306.5 -49.5t234 -141t149 -220.5t52.5 -289t-52.5 -289t-149 -220.5t-234 -141t-306.5 -49.5h-534v622h-222v166h222v612h534zM913 622h-396v-455h358q138 0 242 38.5t174 109t105.5 168.5t35.5 217q0 120 -35.5 218t-105.5 168t-174 108.5t-242 38.5
h-358v-445h396v-166z" />
    <glyph glyph-name="dcroat" unicode="&#x111;" horiz-adv-x="1248" 
d="M1218 1111h-143v-1111h-164v127q-57 -67 -140 -107t-195 -40q-100 0 -187 37t-151 103t-100.5 156.5t-36.5 198.5t36.5 198.5t100.5 156.5t151 103t187 37q112 0 195 -40t140 -108v289h-414v148h414v181h164v-181h143v-148zM595 816q-74 0 -134.5 -26.5t-103.5 -73
t-66 -108.5t-23 -133t23.5 -133t66.5 -108.5t103.5 -73.5t133.5 -27q72 0 132 26t103 72t67 108.5t24 135.5t-24 135t-67 108t-103 72t-132 26z" />
    <glyph glyph-name="Emacron" unicode="&#x112;" horiz-adv-x="1353" 
d="M1193 0h-994v1400h984v-165h-808v-447h782v-166h-782v-457h818v-165zM384 1720h603v-133h-603v133z" />
    <glyph glyph-name="emacron" unicode="&#x113;" horiz-adv-x="1121" 
d="M573 970q97 0 179 -36t141 -101t92.5 -155.5t34.5 -199.5q0 -16 -1 -31.5t-2 -29.5h-747q9 -74 37.5 -129t71.5 -92t98 -55t116 -18q84 0 158 30t135 83l87 -112q-44 -41 -91 -69t-96 -44.5t-100 -23.5t-103 -7q-106 0 -194.5 35.5t-152.5 101t-99.5 156.5t-35.5 202
q0 109 35.5 200.5t98.5 156.5t149.5 101.5t188.5 36.5zM570 825q-63 0 -114 -20.5t-88.5 -57t-62 -87t-33.5 -111.5h581q-8 63 -31.5 114t-60 87t-85 55.5t-106.5 19.5zM268 1305h603v-133h-603v133z" />
    <glyph glyph-name="Ebreve" unicode="&#x114;" horiz-adv-x="1353" 
d="M1193 0h-994v1400h984v-165h-808v-447h782v-166h-782v-457h818v-165zM470 1825q28 -95 83 -140.5t133 -45.5t132.5 45.5t83.5 140.5l132 -39q-40 -141 -130 -213.5t-218 -72.5t-218 72.5t-130 213.5z" />
    <glyph glyph-name="ebreve" unicode="&#x115;" horiz-adv-x="1121" 
d="M573 970q97 0 179 -36t141 -101t92.5 -155.5t34.5 -199.5q0 -16 -1 -31.5t-2 -29.5h-747q9 -74 37.5 -129t71.5 -92t98 -55t116 -18q84 0 158 30t135 83l87 -112q-44 -41 -91 -69t-96 -44.5t-100 -23.5t-103 -7q-106 0 -194.5 35.5t-152.5 101t-99.5 156.5t-35.5 202
q0 109 35.5 200.5t98.5 156.5t149.5 101.5t188.5 36.5zM570 825q-63 0 -114 -20.5t-88.5 -57t-62 -87t-33.5 -111.5h581q-8 63 -31.5 114t-60 87t-85 55.5t-106.5 19.5zM353 1410q28 -95 83 -140.5t133 -45.5t132.5 45.5t83.5 140.5l132 -39q-40 -141 -130 -213.5
t-218 -72.5t-218 72.5t-130 213.5z" />
    <glyph glyph-name="Edotaccent" unicode="&#x116;" horiz-adv-x="1353" 
d="M1193 0h-994v1400h984v-165h-808v-447h782v-166h-782v-457h818v-165zM719.647 1792.37q24.9229 0 47.249 -9.3457q22.3271 -9.34668 38.9424 -25.9619t25.9609 -38.4219q9.34668 -21.8076 9.34668 -47.7695q0 -24.9229 -9.34668 -46.7305
q-9.3457 -21.8066 -25.9609 -37.9033q-16.6152 -16.0957 -38.9424 -24.9229q-22.3262 -8.82617 -47.249 -8.82617t-46.7305 8.82617q-21.8076 8.82715 -37.9033 24.9229q-16.0957 16.0967 -25.4424 37.9033q-9.3457 21.8076 -9.3457 46.7305q0 25.9619 9.3457 47.7695
q9.34668 21.8066 25.4424 38.4219t37.9033 25.9619q21.8076 9.3457 46.7305 9.3457z" />
    <glyph glyph-name="edotaccent" unicode="&#x117;" horiz-adv-x="1121" 
d="M573 970q97 0 179 -36t141 -101t92.5 -155.5t34.5 -199.5q0 -16 -1 -31.5t-2 -29.5h-747q9 -74 37.5 -129t71.5 -92t98 -55t116 -18q84 0 158 30t135 83l87 -112q-44 -41 -91 -69t-96 -44.5t-100 -23.5t-103 -7q-106 0 -194.5 35.5t-152.5 101t-99.5 156.5t-35.5 202
q0 109 35.5 200.5t98.5 156.5t149.5 101.5t188.5 36.5zM570 825q-63 0 -114 -20.5t-88.5 -57t-62 -87t-33.5 -111.5h581q-8 63 -31.5 114t-60 87t-85 55.5t-106.5 19.5zM568 1401q24 0 45.5 -9t37.5 -25t25 -37t9 -46q0 -24 -9 -45t-25 -36.5t-37.5 -24t-45.5 -8.5t-45 8.5
t-36.5 24t-24.5 36.5t-9 45q0 25 9 46t24.5 37t36.5 25t45 9z" />
    <glyph glyph-name="Eogonek" unicode="&#x118;" horiz-adv-x="1353" 
d="M1193 0h-994v1400h984v-165h-808v-447h782v-166h-782v-457h818v-165zM1045 17q-96 -46 -138 -92t-42 -101q0 -44 31.5 -71.5t86.5 -27.5q77 0 139 56l87 -106q-48 -45 -108.5 -68t-127.5 -23q-60 0 -109.5 16t-85 44t-54.5 66.5t-19 83.5q0 51 20.5 92t60.5 75t99.5 62.5
t136.5 55.5z" />
    <glyph glyph-name="eogonek" unicode="&#x119;" horiz-adv-x="1121" 
d="M573 970q97 0 179 -36t141 -101t92.5 -155.5t34.5 -199.5q0 -16 -1 -31.5t-2 -29.5h-747q9 -74 37.5 -129t71.5 -92t98 -55t116 -18q84 0 158 30t135 83l87 -112q-44 -41 -91 -69t-96 -44.5t-100 -23.5t-103 -7q-106 0 -194.5 35.5t-152.5 101t-99.5 156.5t-35.5 202
q0 109 35.5 200.5t98.5 156.5t149.5 101.5t188.5 36.5zM570 825q-63 0 -114 -20.5t-88.5 -57t-62 -87t-33.5 -111.5h581q-8 63 -31.5 114t-60 87t-85 55.5t-106.5 19.5zM972 -325q-48 -45 -108.5 -68t-127.5 -23q-60 0 -109.5 16t-85 44t-54.5 66.5t-19 83.5q0 54 23 97
t66.5 78.5t107 65t144.5 58.5l20 -63q-102 -50 -151.5 -98t-49.5 -108q0 -44 31.5 -71.5t86.5 -27.5q77 0 139 56z" />
    <glyph glyph-name="Ecaron" unicode="&#x11a;" horiz-adv-x="1353" 
d="M1193 0h-994v1400h984v-165h-808v-447h782v-166h-782v-457h818v-165zM522 1799l164 -183l164 183h175l-229 -291h-220l-229 291h175z" />
    <glyph glyph-name="ecaron" unicode="&#x11b;" horiz-adv-x="1121" 
d="M573 970q97 0 179 -36t141 -101t92.5 -155.5t34.5 -199.5q0 -16 -1 -31.5t-2 -29.5h-747q9 -74 37.5 -129t71.5 -92t98 -55t116 -18q84 0 158 30t135 83l87 -112q-44 -41 -91 -69t-96 -44.5t-100 -23.5t-103 -7q-106 0 -194.5 35.5t-152.5 101t-99.5 156.5t-35.5 202
q0 109 35.5 200.5t98.5 156.5t149.5 101.5t188.5 36.5zM570 825q-63 0 -114 -20.5t-88.5 -57t-62 -87t-33.5 -111.5h581q-8 63 -31.5 114t-60 87t-85 55.5t-106.5 19.5zM405 1384l164 -183l164 183h175l-229 -291h-220l-229 291h175z" />
    <glyph glyph-name="Gcircumflex" unicode="&#x11c;" horiz-adv-x="1639" 
d="M845 1421q168 0 307 -61.5t235 -170.5l-129 -125q-73 88 -179 138t-234 50q-116 0 -214.5 -40t-171.5 -112.5t-114 -174.5t-41 -225t41 -225t113 -174.5t169 -112.5t210 -40q107 0 193 30t148.5 87t100 138.5t47.5 184.5h-420v164h611q1 -11 1.5 -22t0.5 -22
q0 -153 -47 -285.5t-135 -231t-214.5 -155t-285.5 -56.5q-92 0 -180.5 21.5t-168.5 63.5t-147.5 103.5t-116.5 141.5t-76.5 178t-27.5 212q0 105 25 199.5t70.5 174.5t111 144.5t146 109.5t174.5 69t198 24zM985 1509l-164 183l-164 -183h-175l229 292h220l229 -292h-175z
" />
    <glyph glyph-name="gcircumflex" unicode="&#x11d;" horiz-adv-x="1235" 
d="M571 970q111 0 192 -40t135 -109v129h164v-884q0 -115 -36.5 -205t-103.5 -151.5t-160 -93.5t-205 -32q-56 0 -111 8t-107 24t-98 39t-82 52l71 132q69 -49 151.5 -77.5t175.5 -28.5q76 0 139 21.5t108 62.5t69.5 102t24.5 140v84q-54 -69 -135 -108.5t-192 -39.5
q-100 0 -186 35.5t-149 100t-99 154t-36 198.5q0 108 36 198t99 154t149 99.5t186 35.5zM590 816q-73 0 -132.5 -26.5t-101.5 -71.5t-65 -105.5t-23 -129.5t23 -130t65 -106.5t101.5 -71.5t132.5 -26q71 0 130 25.5t102 70.5t66.5 106t23.5 132t-23.5 132t-66.5 105.5
t-102 70t-130 25.5zM769 1094l-164 183l-164 -183h-175l229 292h220l229 -292h-175z" />
    <glyph glyph-name="Gbreve" unicode="&#x11e;" horiz-adv-x="1639" 
d="M845 1421q168 0 307 -61.5t235 -170.5l-129 -125q-73 88 -179 138t-234 50q-116 0 -214.5 -40t-171.5 -112.5t-114 -174.5t-41 -225t41 -225t113 -174.5t169 -112.5t210 -40q107 0 193 30t148.5 87t100 138.5t47.5 184.5h-420v164h611q1 -11 1.5 -22t0.5 -22
q0 -153 -47 -285.5t-135 -231t-214.5 -155t-285.5 -56.5q-92 0 -180.5 21.5t-168.5 63.5t-147.5 103.5t-116.5 141.5t-76.5 178t-27.5 212q0 105 25 199.5t70.5 174.5t111 144.5t146 109.5t174.5 69t198 24zM605 1825q28 -95 83 -140.5t133 -45.5t132.5 45.5t83.5 140.5
l132 -39q-40 -141 -130 -213.5t-218 -72.5t-218 72.5t-130 213.5z" />
    <glyph glyph-name="gbreve" unicode="&#x11f;" horiz-adv-x="1235" 
d="M571 970q111 0 192 -40t135 -109v129h164v-884q0 -115 -36.5 -205t-103.5 -151.5t-160 -93.5t-205 -32q-56 0 -111 8t-107 24t-98 39t-82 52l71 132q69 -49 151.5 -77.5t175.5 -28.5q76 0 139 21.5t108 62.5t69.5 102t24.5 140v84q-54 -69 -135 -108.5t-192 -39.5
q-100 0 -186 35.5t-149 100t-99 154t-36 198.5q0 108 36 198t99 154t149 99.5t186 35.5zM590 816q-73 0 -132.5 -26.5t-101.5 -71.5t-65 -105.5t-23 -129.5t23 -130t65 -106.5t101.5 -71.5t132.5 -26q71 0 130 25.5t102 70.5t66.5 106t23.5 132t-23.5 132t-66.5 105.5
t-102 70t-130 25.5zM389 1410q28 -95 83 -140.5t133 -45.5t132.5 45.5t83.5 140.5l132 -39q-40 -141 -130 -213.5t-218 -72.5t-218 72.5t-130 213.5z" />
    <glyph glyph-name="Gdotaccent" unicode="&#x120;" horiz-adv-x="1639" 
d="M845 1421q168 0 307 -61.5t235 -170.5l-129 -125q-73 88 -179 138t-234 50q-116 0 -214.5 -40t-171.5 -112.5t-114 -174.5t-41 -225t41 -225t113 -174.5t169 -112.5t210 -40q107 0 193 30t148.5 87t100 138.5t47.5 184.5h-420v164h611q1 -11 1.5 -22t0.5 -22
q0 -153 -47 -285.5t-135 -231t-214.5 -155t-285.5 -56.5q-92 0 -180.5 21.5t-168.5 63.5t-147.5 103.5t-116.5 141.5t-76.5 178t-27.5 212q0 105 25 199.5t70.5 174.5t111 144.5t146 109.5t174.5 69t198 24zM859.838 1792.37q24.9238 0 47.25 -9.3457
q22.3271 -9.34668 38.9424 -25.9619t25.9609 -38.4219q9.3457 -21.8076 9.3457 -47.7695q0 -24.9229 -9.3457 -46.7305q-9.3457 -21.8066 -25.9609 -37.9033q-16.6152 -16.0957 -38.9424 -24.9229q-22.3262 -8.82617 -47.25 -8.82617q-24.9219 0 -46.7295 8.82617
q-21.8076 8.82715 -37.9043 24.9229q-16.0957 16.0967 -25.4414 37.9033q-9.34668 21.8076 -9.34668 46.7305q0 25.9619 9.34668 47.7695q9.3457 21.8066 25.4414 38.4219q16.0967 16.6152 37.9043 25.9619q21.8076 9.3457 46.7295 9.3457z" />
    <glyph glyph-name="gdotaccent" unicode="&#x121;" horiz-adv-x="1235" 
d="M571 970q111 0 192 -40t135 -109v129h164v-884q0 -115 -36.5 -205t-103.5 -151.5t-160 -93.5t-205 -32q-56 0 -111 8t-107 24t-98 39t-82 52l71 132q69 -49 151.5 -77.5t175.5 -28.5q76 0 139 21.5t108 62.5t69.5 102t24.5 140v84q-54 -69 -135 -108.5t-192 -39.5
q-100 0 -186 35.5t-149 100t-99 154t-36 198.5q0 108 36 198t99 154t149 99.5t186 35.5zM590 816q-73 0 -132.5 -26.5t-101.5 -71.5t-65 -105.5t-23 -129.5t23 -130t65 -106.5t101.5 -71.5t132.5 -26q71 0 130 25.5t102 70.5t66.5 106t23.5 132t-23.5 132t-66.5 105.5
t-102 70t-130 25.5zM604 1401q24 0 45.5 -9t37.5 -25t25 -37t9 -46q0 -24 -9 -45t-25 -36.5t-37.5 -24t-45.5 -8.5t-45 8.5t-36.5 24t-24.5 36.5t-9 45q0 25 9 46t24.5 37t36.5 25t45 9z" />
    <glyph glyph-name="Gcommaaccent" unicode="&#x122;" horiz-adv-x="1639" 
d="M845 1421q168 0 307 -61.5t235 -170.5l-129 -125q-73 88 -179 138t-234 50q-116 0 -214.5 -40t-171.5 -112.5t-114 -174.5t-41 -225t41 -225t113 -174.5t169 -112.5t210 -40q107 0 193 30t148.5 87t100 138.5t47.5 184.5h-420v164h611q1 -11 1.5 -22t0.5 -22
q0 -153 -47 -285.5t-135 -231t-214.5 -155t-285.5 -56.5q-92 0 -180.5 21.5t-168.5 63.5t-147.5 103.5t-116.5 141.5t-76.5 178t-27.5 212q0 105 25 199.5t70.5 174.5t111 144.5t146 109.5t174.5 69t198 24zM930 -88l-75 -354h-145l40 354h180z" />
    <glyph glyph-name="gcommaaccent" unicode="&#x123;" horiz-adv-x="1235" 
d="M571 970q111 0 192 -40t135 -109v129h164v-884q0 -115 -36.5 -205t-103.5 -151.5t-160 -93.5t-205 -32q-56 0 -111 8t-107 24t-98 39t-82 52l71 132q69 -49 151.5 -77.5t175.5 -28.5q76 0 139 21.5t108 62.5t69.5 102t24.5 140v84q-54 -69 -135 -108.5t-192 -39.5
q-100 0 -186 35.5t-149 100t-99 154t-36 198.5q0 108 36 198t99 154t149 99.5t186 35.5zM590 816q-73 0 -132.5 -26.5t-101.5 -71.5t-65 -105.5t-23 -129.5t23 -130t65 -106.5t101.5 -71.5t132.5 -26q71 0 130 25.5t102 70.5t66.5 106t23.5 132t-23.5 132t-66.5 105.5
t-102 70t-130 25.5zM506 1097l76 354h144l-40 -354h-180z" />
    <glyph glyph-name="Hcircumflex" unicode="&#x124;" horiz-adv-x="1577" 
d="M375 788h826v612h176v-1400h-176v622h-826v-622h-176v1400h176v-612zM952 1509l-164 183l-164 -183h-175l229 292h220l229 -292h-175z" />
    <glyph glyph-name="hcircumflex" unicode="&#x125;" horiz-adv-x="1205" 
d="M336 827q29 40 65.5 67.5t77 44t83.5 24t84 7.5q88 0 160.5 -27.5t125 -77t81.5 -120t29 -155.5v-590h-164v537q0 132 -68 205t-193 73q-57 0 -108.5 -19t-89.5 -55.5t-60.5 -89t-22.5 -118.5v-533h-163v1440h163v-613zM775 1544l-164 183l-164 -183h-175l229 292h220
l229 -292h-175z" />
    <glyph glyph-name="Hbar" unicode="&#x126;" horiz-adv-x="1617" 
d="M1557 1006h-160v-1006h-176v622h-826v-622h-176v1006h-159v148h159v246h176v-246h826v246h176v-246h160v-148zM1221 788v218h-826v-218h826z" />
    <glyph glyph-name="hbar" unicode="&#x127;" horiz-adv-x="1205" 
d="M720 1111h-384v-284q29 40 65.5 67.5t77 44t83.5 24t84 7.5q88 0 160.5 -27.5t125 -77t81.5 -120t29 -155.5v-590h-164v537q0 132 -68 205t-193 73q-57 0 -108.5 -19t-89.5 -55.5t-60.5 -89t-22.5 -118.5v-533h-163v1111h-174v148h174v181h163v-181h384v-148z" />
    <glyph glyph-name="Itilde" unicode="&#x128;" horiz-adv-x="575" 
d="M375 0h-176v1400h176v-1400zM-69 1656q46 57 98.5 84t125.5 27q51 0 87.5 -12t66 -26t55.5 -26t56 -12q36 0 65.5 16t61.5 48l97 -94q-46 -56 -98.5 -83.5t-125.5 -27.5q-50 0 -86 12t-66 26.5t-56.5 26.5t-56.5 12q-36 0 -65.5 -16t-61.5 -48z" />
    <glyph glyph-name="itilde" unicode="&#x129;" horiz-adv-x="509" 
d="M336 0h-163v950h163v-950zM-97 1241q46 57 98.5 84t125.5 27q51 0 87.5 -12t66 -26t55.5 -26t56 -12q36 0 65.5 16t61.5 48l97 -94q-46 -56 -98.5 -83.5t-125.5 -27.5q-50 0 -86 12t-66 26.5t-56.5 26.5t-56.5 12q-36 0 -65.5 -16t-61.5 -48z" />
    <glyph glyph-name="Imacron" unicode="&#x12a;" horiz-adv-x="575" 
d="M375 0h-176v1400h176v-1400zM-15 1720h603v-133h-603v133z" />
    <glyph glyph-name="imacron" unicode="&#x12b;" horiz-adv-x="509" 
d="M336 0h-163v950h163v-950zM-47 1305h603v-133h-603v133z" />
    <glyph glyph-name="Ibreve" unicode="&#x12c;" horiz-adv-x="575" 
d="M375 0h-176v1400h176v-1400zM71 1825q28 -95 83 -140.5t133 -45.5t132.5 45.5t83.5 140.5l132 -39q-40 -141 -130 -213.5t-218 -72.5t-218 72.5t-130 213.5z" />
    <glyph glyph-name="ibreve" unicode="&#x12d;" horiz-adv-x="509" 
d="M336 0h-163v950h163v-950zM38 1410q28 -95 83 -140.5t133 -45.5t132.5 45.5t83.5 140.5l132 -39q-40 -141 -130 -213.5t-218 -72.5t-218 72.5t-130 213.5z" />
    <glyph glyph-name="Iogonek" unicode="&#x12e;" horiz-adv-x="575" 
d="M375 0h-176v1400h176v-1400zM499 -334q-45 -43 -93.5 -62.5t-105.5 -19.5q-47 0 -87 12.5t-69 36t-45.5 57t-16.5 74.5q0 45 17 84.5t49.5 75.5t79.5 70t107 69l40 -63q-139 -111 -139 -203q0 -33 22 -52.5t57 -19.5q28 0 51.5 12.5t44.5 34.5z" />
    <glyph glyph-name="iogonek" unicode="&#x12f;" horiz-adv-x="509" 
d="M460 -334q-45 -43 -93.5 -62.5t-105.5 -19.5q-47 0 -87 12.5t-69 36t-45.5 57t-16.5 74.5q0 45 17 84.5t49.5 75.5t79.5 70t107 69l40 -63q-139 -111 -139 -203q0 -33 22 -52.5t57 -19.5q28 0 51.5 12.5t44.5 34.5zM336 0h-163v950h163v-950zM253 1401q24 0 45.5 -9
t37.5 -25t25 -37t9 -46q0 -24 -9 -45t-25 -36.5t-37.5 -24t-45.5 -8.5t-45 8.5t-36.5 24t-24.5 36.5t-9 45q0 25 9 46t24.5 37t36.5 25t45 9z" />
    <glyph glyph-name="Idotaccent" unicode="&#x130;" horiz-adv-x="575" 
d="M375 0h-176v1400h176v-1400zM305.305 1792.37q24.9229 0 47.25 -9.3457q22.3262 -9.34668 38.9414 -25.9619t25.9619 -38.4219q9.3457 -21.8076 9.3457 -47.7695q0 -24.9229 -9.3457 -46.7305q-9.34668 -21.8066 -25.9619 -37.9033q-16.6152 -16.0957 -38.9414 -24.9229
q-22.3271 -8.82617 -47.25 -8.82617t-46.7305 8.82617q-21.8066 8.82715 -37.9033 24.9229q-16.0957 16.0967 -25.4424 37.9033q-9.3457 21.8076 -9.3457 46.7305q0 25.9619 9.3457 47.7695q9.34668 21.8066 25.4424 38.4219q16.0967 16.6152 37.9033 25.9619
q21.8076 9.3457 46.7305 9.3457z" />
    <glyph glyph-name="dotlessi" unicode="&#x131;" horiz-adv-x="509" 
d="M336 0h-163v950h163v-950z" />
    <glyph glyph-name="IJ" unicode="&#x132;" horiz-adv-x="1726" 
d="M375 0h-176v1400h176v-1400zM1536 498q0 -125 -37 -221.5t-102.5 -162.5t-154.5 -100t-193 -34q-86 0 -154 18t-121 47t-92.5 64.5t-68.5 71.5l118 121q24 -32 55.5 -59.5t71 -48.5t87 -33t103.5 -12q70 0 128 23t98.5 69t63 114.5t22.5 159.5v885h176v-902z" />
    <glyph glyph-name="ij" unicode="&#x133;" horiz-adv-x="1023" 
d="M850 -147q0 -66 -17.5 -116t-50 -84t-78 -51.5t-101.5 -17.5q-36 0 -73.5 8.5t-64.5 22.5l39 142q19 -8 40.5 -13.5t44.5 -5.5q44 0 70.5 29t26.5 94v1089h164v-1097zM766 1401q24 0 45.5 -9t37.5 -25t25 -37t9 -46q0 -24 -9 -45t-25 -36.5t-37.5 -24t-45.5 -8.5t-45 8.5
t-36.5 24t-24.5 36.5t-9 45q0 25 9 46t24.5 37t36.5 25t45 9zM336 0h-163v950h163v-950zM253 1401q24 0 45.5 -9t37.5 -25t25 -37t9 -46q0 -24 -9 -45t-25 -36.5t-37.5 -24t-45.5 -8.5t-45 8.5t-36.5 24t-24.5 36.5t-9 45q0 25 9 46t24.5 37t36.5 25t45 9z" />
    <glyph glyph-name="Jcircumflex" unicode="&#x134;" horiz-adv-x="1151" 
d="M961 498q0 -125 -37 -221.5t-102.5 -162.5t-154.5 -100t-193 -34q-86 0 -154 18t-121 47t-92.5 64.5t-68.5 71.5l118 121q24 -32 55.5 -59.5t71 -48.5t87 -33t103.5 -12q70 0 128 23t98.5 69t63 114.5t22.5 159.5v885h176v-902zM1037 1509l-164 183l-164 -183h-175
l229 292h220l229 -292h-175z" />
    <glyph glyph-name="jcircumflex" unicode="&#x135;" horiz-adv-x="514" 
d="M341 -147q0 -66 -17.5 -116t-50 -84t-78 -51.5t-101.5 -17.5q-36 0 -73.5 8.5t-64.5 22.5l39 142q19 -8 40.5 -13.5t44.5 -5.5q44 0 70.5 29t26.5 94v1089h164v-1097zM422 1094l-164 183l-164 -183h-175l229 292h220l229 -292h-175z" />
    <glyph glyph-name="Kcommaaccent" unicode="&#x136;" horiz-adv-x="1397" 
d="M535 621h-160v-621h-176v1400h176v-613h162l568 613h228l-651 -686l694 -714h-240zM809 -88l-75 -354h-145l40 354h180z" />
    <glyph glyph-name="kcommaaccent" unicode="&#x137;" horiz-adv-x="1064" 
d="M336 570h130l353 380h206l-424 -448l430 -502h-207l-359 422h-129v-422h-163v1440h163v-870zM662 -88l-75 -354h-145l40 354h180z" />
    <glyph glyph-name="kgreenlandic" unicode="&#x138;" horiz-adv-x="1057" 
d="M336 570h127l349 380h206l-419 -448l425 -502h-207l-355 422h-126v-422h-163v950h163v-380z" />
    <glyph glyph-name="Lacute" unicode="&#x139;" horiz-adv-x="1217" 
d="M1177 0h-978v1400h176v-1233h802v-167zM142 1512l205 300h207l-251 -300h-161z" />
    <glyph glyph-name="lacute" unicode="&#x13a;" horiz-adv-x="509" 
d="M336 0h-163v1440h163v-1440zM87 1546l205 300h207l-251 -300h-161z" />
    <glyph glyph-name="Lcommaaccent" unicode="&#x13b;" horiz-adv-x="1217" 
d="M1177 0h-978v1400h176v-1233h802v-167zM790 -88l-75 -354h-145l40 354h180z" />
    <glyph glyph-name="lcommaaccent" unicode="&#x13c;" horiz-adv-x="509" 
d="M336 0h-163v1440h163v-1440zM355 -88l-75 -354h-145l40 354h180z" />
    <glyph glyph-name="Lcaron" unicode="&#x13d;" horiz-adv-x="1217" 
d="M1177 0h-978v1400h176v-1233h802v-167zM603 1011l5 390h169l-36 -390h-138z" />
    <glyph glyph-name="lcaron" unicode="&#x13e;" horiz-adv-x="557" 
d="M336 0h-163v1440h163v-1440zM442 1050l5 390h169l-36 -390h-138z" />
    <glyph glyph-name="Ldot" unicode="&#x13f;" horiz-adv-x="1217" 
d="M1177 0h-978v1400h176v-1233h802v-167zM917.992 802.724q24.9219 0 47.249 -9.34668q22.3271 -9.3457 38.9424 -25.9609t25.9609 -38.4229t9.3457 -47.7686q0 -24.9229 -9.3457 -46.7305t-25.9609 -37.9033t-38.9424 -24.9229t-47.249 -8.82715
q-24.9238 0 -46.7305 8.82715q-21.8076 8.82715 -37.9043 24.9229q-16.0957 16.0957 -25.4414 37.9033q-9.34668 21.8076 -9.34668 46.7305q0 25.9609 9.34668 47.7686q9.3457 21.8076 25.4414 38.4229q16.0967 16.6152 37.9043 25.9609q21.8066 9.34668 46.7305 9.34668z
" />
    <glyph glyph-name="ldot" unicode="&#x140;" horiz-adv-x="631" 
d="M336 0h-163v1440h163v-1440zM565 848q24 0 45.5 -9t37.5 -25t25 -37t9 -46q0 -24 -9 -45t-25 -36.5t-37.5 -24t-45.5 -8.5t-45 8.5t-36.5 24t-24.5 36.5t-9 45q0 25 9 46t24.5 37t36.5 25t45 9z" />
    <glyph glyph-name="Lslash" unicode="&#x141;" horiz-adv-x="1345" 
d="M1305 0h-978v492l-208 -116v188l208 116v720h176v-621l509 285v-188l-509 -285v-424h802v-167z" />
    <glyph glyph-name="lslash" unicode="&#x142;" horiz-adv-x="675" 
d="M418 887l205 144v-170l-205 -144v-717h-163v603l-203 -142v170l203 142v667h163v-553z" />
    <glyph glyph-name="Nacute" unicode="&#x143;" horiz-adv-x="1581" 
d="M1381 -1h-159l-846 1100l-1 -1099h-176v1401h159l847 -1100v1099h176v-1401zM645 1512l205 300h207l-251 -300h-161z" />
    <glyph glyph-name="nacute" unicode="&#x144;" horiz-adv-x="1205" 
d="M646 970q88 0 160.5 -27.5t125 -77t81.5 -120t29 -155.5v-590h-164v537q0 132 -68 205t-193 73q-57 0 -108.5 -19t-89.5 -55.5t-60.5 -89t-22.5 -118.5v-533h-163v950h162v-124q29 40 66 67.5t77.5 44.5t83.5 24.5t84 7.5zM484 1097l205 300h207l-251 -300h-161z" />
    <glyph glyph-name="Ncommaaccent" unicode="&#x145;" horiz-adv-x="1581" 
d="M1381 -1h-159l-846 1100l-1 -1099h-176v1401h159l847 -1100v1099h176v-1401zM894 -88l-75 -354h-145l40 354h180z" />
    <glyph glyph-name="ncommaaccent" unicode="&#x146;" horiz-adv-x="1205" 
d="M646 970q88 0 160.5 -27.5t125 -77t81.5 -120t29 -155.5v-590h-164v537q0 132 -68 205t-193 73q-57 0 -108.5 -19t-89.5 -55.5t-60.5 -89t-22.5 -118.5v-533h-163v950h162v-124q29 40 66 67.5t77.5 44.5t83.5 24.5t84 7.5zM708 -88l-75 -354h-145l40 354h180z" />
    <glyph glyph-name="Ncaron" unicode="&#x147;" horiz-adv-x="1581" 
d="M1381 -1h-159l-846 1100l-1 -1099h-176v1401h159l847 -1100v1099h176v-1401zM626 1799l164 -183l164 183h175l-229 -291h-220l-229 291h175z" />
    <glyph glyph-name="ncaron" unicode="&#x148;" horiz-adv-x="1205" 
d="M646 970q88 0 160.5 -27.5t125 -77t81.5 -120t29 -155.5v-590h-164v537q0 132 -68 205t-193 73q-57 0 -108.5 -19t-89.5 -55.5t-60.5 -89t-22.5 -118.5v-533h-163v950h162v-124q29 40 66 67.5t77.5 44.5t83.5 24.5t84 7.5zM455 1384l164 -183l164 183h175l-229 -291h-220
l-229 291h175z" />
    <glyph glyph-name="napostrophe" unicode="&#x149;" horiz-adv-x="1479" 
d="M370 1440l-108 -515h-141l58 515h191zM920 970q88 0 160.5 -27.5t125 -77t81.5 -120t29 -155.5v-590h-164v537q0 132 -68 205t-193 73q-57 0 -108.5 -19t-89.5 -55.5t-60.5 -89t-22.5 -118.5v-533h-163v950h162v-124q29 40 66 67.5t77.5 44.5t83.5 24.5t84 7.5z" />
    <glyph glyph-name="Eng" unicode="&#x14a;" horiz-adv-x="1581" 
d="M1381 -37q0 -80 -19.5 -149t-61.5 -120t-107 -80.5t-156 -29.5q-82 0 -147 18t-116 45l63 154q38 -20 85 -34t96 -14q98 0 142.5 59.5t44.5 158.5v50l-829 1078l-1 -1099h-176v1401h159l847 -1100v1099h176v-1437z" />
    <glyph glyph-name="eng" unicode="&#x14b;" horiz-adv-x="1205" 
d="M646 970q88 0 160.5 -27.5t125 -77t81.5 -120t29 -155.5v-660q0 -66 -17.5 -116t-50 -84t-78 -51.5t-101.5 -17.5q-37 0 -74.5 8.5t-63.5 22.5l39 142q18 -8 39.5 -13.5t44.5 -5.5q45 0 71.5 29t26.5 94v599q0 132 -68 205t-193 73q-57 0 -108.5 -19t-89.5 -55.5
t-60.5 -89t-22.5 -118.5v-533h-163v950h162v-124q29 40 66 67.5t77.5 44.5t83.5 24.5t84 7.5z" />
    <glyph glyph-name="Omacron" unicode="&#x14c;" horiz-adv-x="1690" 
d="M845 1421q105 0 199.5 -24.5t175 -69.5t145.5 -109.5t110.5 -144.5t70 -174t24.5 -199t-24.5 -199t-70 -174t-110.5 -144.5t-145.5 -109.5t-175 -69.5t-199.5 -24.5q-158 0 -290.5 53.5t-229.5 149.5t-151 228.5t-54 289.5t54 289.5t151 228.5t229.5 149.5t290.5 53.5z
M845 1252q-116 0 -214.5 -40t-171.5 -112.5t-114 -174.5t-41 -225t41 -225t114 -174.5t171.5 -112.5t214.5 -40q115 0 214 40t172 112.5t114 174.5t41 225t-41 225t-114 174.5t-172 112.5t-214 40zM543 1720h603v-133h-603v133z" />
    <glyph glyph-name="omacron" unicode="&#x14d;" horiz-adv-x="1207" 
d="M603 970q108 0 200 -37.5t159.5 -104t105.5 -157t38 -196.5t-38 -196.5t-105.5 -157t-159.5 -104t-200 -37.5t-200 37.5t-159 104t-105 157t-38 196.5t38 196.5t105 157t159 104t200 37.5zM603 816q-72 0 -133 -25.5t-106 -70.5t-70.5 -107.5t-25.5 -137.5t25.5 -137.5
t70.5 -108t106 -71t133 -25.5q71 0 132.5 25.5t106.5 71t70.5 108t25.5 137.5t-25.5 137.5t-70.5 107.5t-106.5 70.5t-132.5 25.5zM302 1305h603v-133h-603v133z" />
    <glyph glyph-name="Obreve" unicode="&#x14e;" horiz-adv-x="1690" 
d="M845 1421q105 0 199.5 -24.5t175 -69.5t145.5 -109.5t110.5 -144.5t70 -174t24.5 -199t-24.5 -199t-70 -174t-110.5 -144.5t-145.5 -109.5t-175 -69.5t-199.5 -24.5q-158 0 -290.5 53.5t-229.5 149.5t-151 228.5t-54 289.5t54 289.5t151 228.5t229.5 149.5t290.5 53.5z
M845 1252q-116 0 -214.5 -40t-171.5 -112.5t-114 -174.5t-41 -225t41 -225t114 -174.5t171.5 -112.5t214.5 -40q115 0 214 40t172 112.5t114 174.5t41 225t-41 225t-114 174.5t-172 112.5t-214 40zM629 1825q28 -95 83 -140.5t133 -45.5t132.5 45.5t83.5 140.5l132 -39
q-40 -141 -130 -213.5t-218 -72.5t-218 72.5t-130 213.5z" />
    <glyph glyph-name="obreve" unicode="&#x14f;" horiz-adv-x="1207" 
d="M603 970q108 0 200 -37.5t159.5 -104t105.5 -157t38 -196.5t-38 -196.5t-105.5 -157t-159.5 -104t-200 -37.5t-200 37.5t-159 104t-105 157t-38 196.5t38 196.5t105 157t159 104t200 37.5zM603 816q-72 0 -133 -25.5t-106 -70.5t-70.5 -107.5t-25.5 -137.5t25.5 -137.5
t70.5 -108t106 -71t133 -25.5q71 0 132.5 25.5t106.5 71t70.5 108t25.5 137.5t-25.5 137.5t-70.5 107.5t-106.5 70.5t-132.5 25.5zM387 1410q28 -95 83 -140.5t133 -45.5t132.5 45.5t83.5 140.5l132 -39q-40 -141 -130 -213.5t-218 -72.5t-218 72.5t-130 213.5z" />
    <glyph glyph-name="Ohungarumlaut" unicode="&#x150;" horiz-adv-x="1690" 
d="M845 1421q105 0 199.5 -24.5t175 -69.5t145.5 -109.5t110.5 -144.5t70 -174t24.5 -199t-24.5 -199t-70 -174t-110.5 -144.5t-145.5 -109.5t-175 -69.5t-199.5 -24.5q-158 0 -290.5 53.5t-229.5 149.5t-151 228.5t-54 289.5t54 289.5t151 228.5t229.5 149.5t290.5 53.5z
M845 1252q-116 0 -214.5 -40t-171.5 -112.5t-114 -174.5t-41 -225t41 -225t114 -174.5t171.5 -112.5t214.5 -40q115 0 214 40t172 112.5t114 174.5t41 225t-41 225t-114 174.5t-172 112.5t-214 40zM906 1512l212 300h192l-239 -300h-165zM563 1512l194 300h186l-214 -300
h-166z" />
    <glyph glyph-name="ohungarumlaut" unicode="&#x151;" horiz-adv-x="1207" 
d="M603 970q108 0 200 -37.5t159.5 -104t105.5 -157t38 -196.5t-38 -196.5t-105.5 -157t-159.5 -104t-200 -37.5t-200 37.5t-159 104t-105 157t-38 196.5t38 196.5t105 157t159 104t200 37.5zM603 816q-72 0 -133 -25.5t-106 -70.5t-70.5 -107.5t-25.5 -137.5t25.5 -137.5
t70.5 -108t106 -71t133 -25.5q71 0 132.5 25.5t106.5 71t70.5 108t25.5 137.5t-25.5 137.5t-70.5 107.5t-106.5 70.5t-132.5 25.5zM679 1097l212 300h192l-239 -300h-165zM336 1097l194 300h186l-214 -300h-166z" />
    <glyph glyph-name="OE" unicode="&#x152;" horiz-adv-x="2258" 
d="M2098 0h-1237q-170 0 -306.5 49.5t-233.5 141t-149 220.5t-52 289t52 289t149 220.5t233.5 141t306.5 49.5h1227v-165h-808v-447h782v-166h-782v-457h818v-165zM304 700q0 -120 35.5 -218t105.5 -168t174 -108.5t242 -38.5h243v1066h-243q-138 0 -242 -38.5t-174 -109
t-105.5 -168.5t-35.5 -217z" />
    <glyph glyph-name="oe" unicode="&#x153;" horiz-adv-x="1958" 
d="M1410 970q97 0 178.5 -36t141 -101t93 -155.5t34.5 -199.5q0 -17 -1 -32t-2 -29h-747q9 -74 37.5 -129t71.5 -92t98 -55t116 -18q84 0 158.5 30t134.5 83l87 -112q-44 -41 -91 -69t-96 -44.5t-100 -23.5t-103 -7q-138 0 -242.5 59.5t-164.5 165.5q-32 -51 -75 -93
t-95.5 -71t-113 -45t-126.5 -16q-108 0 -200 37.5t-159 104t-105 157t-38 196.5t38 196.5t105 157t159 104t200 37.5q66 0 127 -16t113.5 -45.5t95.5 -71.5t75 -94q60 106 162.5 166.5t233.5 60.5zM603 816q-71 0 -132.5 -25.5t-106.5 -70.5t-70.5 -107.5t-25.5 -137.5
t25.5 -137.5t70.5 -108t106.5 -71t132.5 -25.5t132.5 25.5t106.5 71t70.5 108t25.5 137.5t-25.5 137.5t-70.5 107.5t-106.5 70.5t-132.5 25.5zM1407 825q-63 0 -114 -20.5t-88.5 -57t-62 -87t-33.5 -111.5h581q-8 63 -31 114t-60 87t-85.5 55.5t-106.5 19.5z" />
    <glyph glyph-name="Racute" unicode="&#x154;" horiz-adv-x="1357" 
d="M755 1400q238 0 364 -102.5t126 -294.5q0 -91 -34 -165t-98 -126t-154.5 -80t-202.5 -28h-11l493 -604h-218l-481 604h-164v-604h-176v1400h556zM375 1235v-471h376q155 0 233 60.5t78 178.5q0 117 -79 174.5t-232 57.5h-376zM520 1512l205 300h207l-251 -300h-161z" />
    <glyph glyph-name="racute" unicode="&#x155;" horiz-adv-x="838" 
d="M612 970q51 0 93.5 -7t80.5 -24l-40 -161q-34 18 -78 27.5t-85 9.5q-54 0 -99.5 -20t-78.5 -57.5t-51 -90t-18 -118.5v-529h-163v950h161v-125q50 70 121.5 107.5t156.5 37.5zM344 1097l205 300h207l-251 -300h-161z" />
    <glyph glyph-name="Rcommaaccent" unicode="&#x156;" horiz-adv-x="1357" 
d="M755 1400q238 0 364 -102.5t126 -294.5q0 -91 -34 -165t-98 -126t-154.5 -80t-202.5 -28h-11l493 -604h-218l-481 604h-164v-604h-176v1400h556zM375 1235v-471h376q155 0 233 60.5t78 178.5q0 117 -79 174.5t-232 57.5h-376zM778 -88l-75 -354h-145l40 354h180z" />
    <glyph glyph-name="rcommaaccent" unicode="&#x157;" horiz-adv-x="838" 
d="M612 970q51 0 93.5 -7t80.5 -24l-40 -161q-34 18 -78 27.5t-85 9.5q-54 0 -99.5 -20t-78.5 -57.5t-51 -90t-18 -118.5v-529h-163v950h161v-125q50 70 121.5 107.5t156.5 37.5zM357 -88l-75 -354h-145l40 354h180z" />
    <glyph glyph-name="Rcaron" unicode="&#x158;" horiz-adv-x="1357" 
d="M755 1400q238 0 364 -102.5t126 -294.5q0 -91 -34 -165t-98 -126t-154.5 -80t-202.5 -28h-11l493 -604h-218l-481 604h-164v-604h-176v1400h556zM375 1235v-471h376q155 0 233 60.5t78 178.5q0 117 -79 174.5t-232 57.5h-376zM501 1799l164 -183l164 183h175l-229 -291
h-220l-229 291h175z" />
    <glyph glyph-name="rcaron" unicode="&#x159;" horiz-adv-x="838" 
d="M612 970q51 0 93.5 -7t80.5 -24l-40 -161q-34 18 -78 27.5t-85 9.5q-54 0 -99.5 -20t-78.5 -57.5t-51 -90t-18 -118.5v-529h-163v950h161v-125q50 70 121.5 107.5t156.5 37.5zM315 1384l164 -183l164 183h175l-229 -291h-220l-229 291h175z" />
    <glyph glyph-name="Sacute" unicode="&#x15a;" horiz-adv-x="1347" 
d="M1113 1124q-86 58 -189.5 93.5t-225.5 35.5q-77 0 -141.5 -16.5t-111 -48t-72.5 -76.5t-26 -102q0 -96 79.5 -147t237.5 -71l123 -15q89 -11 169 -35.5t140 -68.5t95.5 -109.5t35.5 -158.5q0 -105 -44.5 -184.5t-120 -133t-176.5 -80.5t-215 -27q-75 0 -151.5 12.5
t-148.5 36t-136.5 57.5t-115.5 76l96 140q36 -32 87 -60t110.5 -49t125.5 -33.5t133 -12.5q78 0 146.5 15.5t118.5 46.5t79 76.5t29 104.5q0 97 -86 148t-249 71l-130 16q-87 10 -162.5 36.5t-131.5 71.5t-88.5 110.5t-32.5 155.5q0 101 42 179.5t115 132t170 81.5t208 28
q79 0 149 -11t132.5 -31.5t117.5 -48.5t105 -62zM572 1512l205 300h207l-251 -300h-161z" />
    <glyph glyph-name="sacute" unicode="&#x15b;" horiz-adv-x="994" 
d="M813 739q-23 15 -56 31t-73 28.5t-85 20.5t-92 8q-98 0 -156 -38t-58 -103q0 -57 48.5 -85.5t135.5 -39.5l110 -14q76 -10 135.5 -31.5t100.5 -54.5t63 -78.5t22 -104.5q0 -68 -29.5 -123t-84 -94t-132.5 -60t-175 -21q-44 0 -94.5 6t-102.5 20t-104 37.5t-99 58.5
l76 122q27 -21 58.5 -39t71 -32t87.5 -22t108 -8q118 0 185 37t67 108q0 106 -191 130l-110 13q-161 20 -238.5 88.5t-77.5 177.5q0 68 27 122.5t77 92t120.5 57.5t157.5 20q113 0 211.5 -27.5t167.5 -75.5zM385 1097l205 300h207l-251 -300h-161z" />
    <glyph glyph-name="Scircumflex" unicode="&#x15c;" horiz-adv-x="1347" 
d="M1113 1124q-86 58 -189.5 93.5t-225.5 35.5q-77 0 -141.5 -16.5t-111 -48t-72.5 -76.5t-26 -102q0 -96 79.5 -147t237.5 -71l123 -15q89 -11 169 -35.5t140 -68.5t95.5 -109.5t35.5 -158.5q0 -105 -44.5 -184.5t-120 -133t-176.5 -80.5t-215 -27q-75 0 -151.5 12.5
t-148.5 36t-136.5 57.5t-115.5 76l96 140q36 -32 87 -60t110.5 -49t125.5 -33.5t133 -12.5q78 0 146.5 15.5t118.5 46.5t79 76.5t29 104.5q0 97 -86 148t-249 71l-130 16q-87 10 -162.5 36.5t-131.5 71.5t-88.5 110.5t-32.5 155.5q0 101 42 179.5t115 132t170 81.5t208 28
q79 0 149 -11t132.5 -31.5t117.5 -48.5t105 -62zM881 1509l-164 183l-164 -183h-175l229 292h220l229 -292h-175z" />
    <glyph glyph-name="scircumflex" unicode="&#x15d;" horiz-adv-x="994" 
d="M813 739q-23 15 -56 31t-73 28.5t-85 20.5t-92 8q-98 0 -156 -38t-58 -103q0 -57 48.5 -85.5t135.5 -39.5l110 -14q76 -10 135.5 -31.5t100.5 -54.5t63 -78.5t22 -104.5q0 -68 -29.5 -123t-84 -94t-132.5 -60t-175 -21q-44 0 -94.5 6t-102.5 20t-104 37.5t-99 58.5
l76 122q27 -21 58.5 -39t71 -32t87.5 -22t108 -8q118 0 185 37t67 108q0 106 -191 130l-110 13q-161 20 -238.5 88.5t-77.5 177.5q0 68 27 122.5t77 92t120.5 57.5t157.5 20q113 0 211.5 -27.5t167.5 -75.5zM684 1094l-164 183l-164 -183h-175l229 292h220l229 -292h-175z
" />
    <glyph glyph-name="Scedilla" unicode="&#x15e;" horiz-adv-x="1347" 
d="M1113 1124q-86 58 -189.5 93.5t-225.5 35.5q-77 0 -141.5 -16.5t-111 -48t-72.5 -76.5t-26 -102q0 -96 79.5 -147t237.5 -71l123 -15q89 -11 169 -35.5t140 -68.5t95.5 -109.5t35.5 -158.5q0 -105 -44.5 -184.5t-120 -133t-176.5 -80.5t-215 -27q-75 0 -151.5 12.5
t-148.5 36t-136.5 57.5t-115.5 76l96 140q36 -32 87 -60t110.5 -49t125.5 -33.5t133 -12.5q78 0 146.5 15.5t118.5 46.5t79 76.5t29 104.5q0 97 -86 148t-249 71l-130 16q-87 10 -162.5 36.5t-131.5 71.5t-88.5 110.5t-32.5 155.5q0 101 42 179.5t115 132t170 81.5t208 28
q79 0 149 -11t132.5 -31.5t117.5 -48.5t105 -62zM679 -322h-179l111 328h171z" />
    <glyph glyph-name="scedilla" unicode="&#x15f;" horiz-adv-x="994" 
d="M813 739q-23 15 -56 31t-73 28.5t-85 20.5t-92 8q-98 0 -156 -38t-58 -103q0 -57 48.5 -85.5t135.5 -39.5l110 -14q76 -10 135.5 -31.5t100.5 -54.5t63 -78.5t22 -104.5q0 -68 -29.5 -123t-84 -94t-132.5 -60t-175 -21q-44 0 -94.5 6t-102.5 20t-104 37.5t-99 58.5
l76 122q27 -21 58.5 -39t71 -32t87.5 -22t108 -8q118 0 185 37t67 108q0 106 -191 130l-110 13q-161 20 -238.5 88.5t-77.5 177.5q0 68 27 122.5t77 92t120.5 57.5t157.5 20q113 0 211.5 -27.5t167.5 -75.5zM504 -322h-171l109 328h163z" />
    <glyph glyph-name="Scaron" unicode="&#x160;" horiz-adv-x="1347" 
d="M1113 1124q-86 58 -189.5 93.5t-225.5 35.5q-77 0 -141.5 -16.5t-111 -48t-72.5 -76.5t-26 -102q0 -96 79.5 -147t237.5 -71l123 -15q89 -11 169 -35.5t140 -68.5t95.5 -109.5t35.5 -158.5q0 -105 -44.5 -184.5t-120 -133t-176.5 -80.5t-215 -27q-75 0 -151.5 12.5
t-148.5 36t-136.5 57.5t-115.5 76l96 140q36 -32 87 -60t110.5 -49t125.5 -33.5t133 -12.5q78 0 146.5 15.5t118.5 46.5t79 76.5t29 104.5q0 97 -86 148t-249 71l-130 16q-87 10 -162.5 36.5t-131.5 71.5t-88.5 110.5t-32.5 155.5q0 101 42 179.5t115 132t170 81.5t208 28
q79 0 149 -11t132.5 -31.5t117.5 -48.5t105 -62zM553 1799l164 -183l164 183h175l-229 -291h-220l-229 291h175z" />
    <glyph glyph-name="scaron" unicode="&#x161;" horiz-adv-x="994" 
d="M813 739q-23 15 -56 31t-73 28.5t-85 20.5t-92 8q-98 0 -156 -38t-58 -103q0 -57 48.5 -85.5t135.5 -39.5l110 -14q76 -10 135.5 -31.5t100.5 -54.5t63 -78.5t22 -104.5q0 -68 -29.5 -123t-84 -94t-132.5 -60t-175 -21q-44 0 -94.5 6t-102.5 20t-104 37.5t-99 58.5
l76 122q27 -21 58.5 -39t71 -32t87.5 -22t108 -8q118 0 185 37t67 108q0 106 -191 130l-110 13q-161 20 -238.5 88.5t-77.5 177.5q0 68 27 122.5t77 92t120.5 57.5t157.5 20q113 0 211.5 -27.5t167.5 -75.5zM356 1384l164 -183l164 183h175l-229 -291h-220l-229 291h175z
" />
    <glyph glyph-name="Tcommaaccent" unicode="&#x162;" horiz-adv-x="1211" 
d="M1171 1233h-477v-1233h-176v1233h-478v167h1131v-167zM590 -322h-179l111 328h171z" />
    <glyph glyph-name="tcommaaccent" unicode="&#x163;" horiz-adv-x="907" 
d="M818 801h-399v-463q0 -54 13.5 -92.5t37.5 -63.5t56.5 -37t71.5 -12q53 0 103 18t91 46l77 -123q-55 -40 -126 -67t-159 -27q-77 0 -138 21.5t-103.5 65.5t-65 110.5t-22.5 157.5v466h-203v149h203v298h164v-298h399v-149zM542 -322h-171l109 328h163z" />
    <glyph glyph-name="Tcaron" unicode="&#x164;" horiz-adv-x="1211" 
d="M1171 1233h-477v-1233h-176v1233h-478v167h1131v-167zM442 1799l164 -183l164 183h175l-229 -291h-220l-229 291h175z" />
    <glyph glyph-name="tcaron" unicode="&#x165;" horiz-adv-x="907" 
d="M818 801h-399v-463q0 -54 13.5 -92.5t37.5 -63.5t56.5 -37t71.5 -12q53 0 103 18t91 46l77 -123q-55 -40 -126 -67t-159 -27q-77 0 -138 21.5t-103.5 65.5t-65 110.5t-22.5 157.5v466h-203v149h203v298h164v-298h399v-149zM537 1050l5 390h169l-36 -390h-138z" />
    <glyph glyph-name="Tbar" unicode="&#x166;" horiz-adv-x="1211" 
d="M1002 622h-308v-622h-176v622h-310v166h310v445h-478v167h1131v-167h-477v-445h308v-166z" />
    <glyph glyph-name="tbar" unicode="&#x167;" horiz-adv-x="907" 
d="M818 801h-399v-207h299v-148h-299v-108q0 -54 13.5 -92.5t37.5 -63.5t56.5 -37t71.5 -12q53 0 103 18t91 46l77 -123q-55 -40 -126 -67t-159 -27q-77 0 -138 21.5t-103.5 65.5t-65 110.5t-22.5 157.5v111h-195v148h195v207h-203v149h203v298h164v-298h399v-149z" />
    <glyph glyph-name="Utilde" unicode="&#x168;" horiz-adv-x="1521" 
d="M1341 549q0 -143 -45.5 -250t-124 -178t-184.5 -106t-227 -35t-227 35t-184.5 106t-124 178t-45.5 250v851h176v-838q0 -108 30.5 -186t84.5 -128.5t128 -74.5t162 -24t162 24t128 74.5t84 128.5t30 186v838h177v-851zM404 1656q46 57 98.5 84t125.5 27q51 0 87.5 -12
t66 -26t55.5 -26t56 -12q36 0 65.5 16t61.5 48l97 -94q-46 -56 -98.5 -83.5t-125.5 -27.5q-50 0 -86 12t-66 26.5t-56.5 26.5t-56.5 12q-36 0 -65.5 -16t-61.5 -48z" />
    <glyph glyph-name="utilde" unicode="&#x169;" horiz-adv-x="1193" 
d="M1030 398q0 -108 -35.5 -186.5t-95.5 -130t-138.5 -76.5t-163.5 -25q-86 0 -164.5 25t-138.5 76.5t-95.5 130t-35.5 186.5v552h164v-537q0 -73 20.5 -125.5t56.5 -87t85.5 -51t107.5 -16.5t107 16.5t85 51t56.5 87t20.5 125.5v537h164v-552zM246 1241q46 57 98.5 84
t125.5 27q51 0 87.5 -12t66 -26t55.5 -26t56 -12q36 0 65.5 16t61.5 48l97 -94q-46 -56 -98.5 -83.5t-125.5 -27.5q-50 0 -86 12t-66 26.5t-56.5 26.5t-56.5 12q-36 0 -65.5 -16t-61.5 -48z" />
    <glyph glyph-name="Umacron" unicode="&#x16a;" horiz-adv-x="1521" 
d="M1341 549q0 -143 -45.5 -250t-124 -178t-184.5 -106t-227 -35t-227 35t-184.5 106t-124 178t-45.5 250v851h176v-838q0 -108 30.5 -186t84.5 -128.5t128 -74.5t162 -24t162 24t128 74.5t84 128.5t30 186v838h177v-851zM458 1720h603v-133h-603v133z" />
    <glyph glyph-name="umacron" unicode="&#x16b;" horiz-adv-x="1193" 
d="M1030 398q0 -108 -35.5 -186.5t-95.5 -130t-138.5 -76.5t-163.5 -25q-86 0 -164.5 25t-138.5 76.5t-95.5 130t-35.5 186.5v552h164v-537q0 -73 20.5 -125.5t56.5 -87t85.5 -51t107.5 -16.5t107 16.5t85 51t56.5 87t20.5 125.5v537h164v-552zM296 1305h603v-133h-603v133z
" />
    <glyph glyph-name="Ubreve" unicode="&#x16c;" horiz-adv-x="1521" 
d="M1341 549q0 -143 -45.5 -250t-124 -178t-184.5 -106t-227 -35t-227 35t-184.5 106t-124 178t-45.5 250v851h176v-838q0 -108 30.5 -186t84.5 -128.5t128 -74.5t162 -24t162 24t128 74.5t84 128.5t30 186v838h177v-851zM544 1825q28 -95 83 -140.5t133 -45.5t132.5 45.5
t83.5 140.5l132 -39q-40 -141 -130 -213.5t-218 -72.5t-218 72.5t-130 213.5z" />
    <glyph glyph-name="ubreve" unicode="&#x16d;" horiz-adv-x="1193" 
d="M1030 398q0 -108 -35.5 -186.5t-95.5 -130t-138.5 -76.5t-163.5 -25q-86 0 -164.5 25t-138.5 76.5t-95.5 130t-35.5 186.5v552h164v-537q0 -73 20.5 -125.5t56.5 -87t85.5 -51t107.5 -16.5t107 16.5t85 51t56.5 87t20.5 125.5v537h164v-552zM381 1410q28 -95 83 -140.5
t133 -45.5t132.5 45.5t83.5 140.5l132 -39q-40 -141 -130 -213.5t-218 -72.5t-218 72.5t-130 213.5z" />
    <glyph glyph-name="Uring" unicode="&#x16e;" horiz-adv-x="1521" 
d="M1341 549q0 -143 -45.5 -250t-124 -178t-184.5 -106t-227 -35t-227 35t-184.5 106t-124 178t-45.5 250v851h176v-838q0 -108 30.5 -186t84.5 -128.5t128 -74.5t162 -24t162 24t128 74.5t84 128.5t30 186v838h177v-851zM760 1490q-48 0 -90 18t-73.5 49t-50 72.5
t-18.5 89.5q0 47 18.5 89t50 73t73.5 49t90 18t90.5 -18t74 -49t50 -73t18.5 -89q0 -48 -18.5 -89.5t-50 -72.5t-74 -49t-90.5 -18zM760 1594q25 0 48 9.5t39.5 26.5t26.5 40t10 49t-10 49t-26.5 40t-39.5 26.5t-48 9.5t-47.5 -9.5t-39 -26.5t-26.5 -40t-10 -49t10 -49
t26.5 -40t39 -26.5t47.5 -9.5z" />
    <glyph glyph-name="uring" unicode="&#x16f;" horiz-adv-x="1193" 
d="M1030 398q0 -108 -35.5 -186.5t-95.5 -130t-138.5 -76.5t-163.5 -25q-86 0 -164.5 25t-138.5 76.5t-95.5 130t-35.5 186.5v552h164v-537q0 -73 20.5 -125.5t56.5 -87t85.5 -51t107.5 -16.5t107 16.5t85 51t56.5 87t20.5 125.5v537h164v-552zM596 1075q-48 0 -90 18
t-73.5 49t-50 72.5t-18.5 89.5q0 47 18.5 89t50 73t73.5 49t90 18t90.5 -18t74 -49t50 -73t18.5 -89q0 -48 -18.5 -89.5t-50 -72.5t-74 -49t-90.5 -18zM596 1179q25 0 48 9.5t39.5 26.5t26.5 40t10 49t-10 49t-26.5 40t-39.5 26.5t-48 9.5t-47.5 -9.5t-39 -26.5t-26.5 -40
t-10 -49t10 -49t26.5 -40t39 -26.5t47.5 -9.5z" />
    <glyph glyph-name="Uhungarumlaut" unicode="&#x170;" horiz-adv-x="1521" 
d="M1341 549q0 -143 -45.5 -250t-124 -178t-184.5 -106t-227 -35t-227 35t-184.5 106t-124 178t-45.5 250v851h176v-838q0 -108 30.5 -186t84.5 -128.5t128 -74.5t162 -24t162 24t128 74.5t84 128.5t30 186v838h177v-851zM821 1512l212 300h192l-239 -300h-165zM478 1512
l194 300h186l-214 -300h-166z" />
    <glyph glyph-name="uhungarumlaut" unicode="&#x171;" horiz-adv-x="1193" 
d="M1030 398q0 -108 -35.5 -186.5t-95.5 -130t-138.5 -76.5t-163.5 -25q-86 0 -164.5 25t-138.5 76.5t-95.5 130t-35.5 186.5v552h164v-537q0 -73 20.5 -125.5t56.5 -87t85.5 -51t107.5 -16.5t107 16.5t85 51t56.5 87t20.5 125.5v537h164v-552zM673 1097l212 300h192
l-239 -300h-165zM330 1097l194 300h186l-214 -300h-166z" />
    <glyph glyph-name="Uogonek" unicode="&#x172;" horiz-adv-x="1521" 
d="M1341 549q0 -143 -45.5 -250t-124 -178t-184.5 -106t-227 -35t-227 35t-184.5 106t-124 178t-45.5 250v851h176v-838q0 -108 30.5 -186t84.5 -128.5t128 -74.5t162 -24t162 24t128 74.5t84 128.5t30 186v838h177v-851zM1206 -325q-48 -45 -108.5 -68t-127.5 -23
q-60 0 -109.5 16t-85 44t-54.5 66.5t-19 83.5q0 54 23 97t66.5 78.5t107 65t144.5 58.5l15 -48q-100 -54 -148 -105.5t-48 -115.5q0 -44 31.5 -71.5t86.5 -27.5q77 0 139 56z" />
    <glyph glyph-name="uogonek" unicode="&#x173;" horiz-adv-x="1193" 
d="M1030 398q0 -108 -35.5 -186.5t-95.5 -130t-138.5 -76.5t-163.5 -25q-86 0 -164.5 25t-138.5 76.5t-95.5 130t-35.5 186.5v552h164v-537q0 -73 20.5 -125.5t56.5 -87t85.5 -51t107.5 -16.5t107 16.5t85 51t56.5 87t20.5 125.5v537h164v-552zM994 -325q-48 -45 -108.5 -68
t-127.5 -23q-60 0 -109.5 16t-85 44t-54.5 66.5t-19 83.5q0 54 23 97t66.5 78.5t107 65t144.5 58.5l15 -48q-100 -54 -148 -105.5t-48 -115.5q0 -44 31.5 -71.5t86.5 -27.5q77 0 139 56z" />
    <glyph glyph-name="Wcircumflex" unicode="&#x174;" horiz-adv-x="2194" 
d="M1690 -1h-218l-375 1169l-375 -1169h-217l-449 1401h185l375 -1202l383 1203h200l384 -1203l374 1202h181zM1261 1509l-164 183l-164 -183h-175l229 292h220l229 -292h-175z" />
    <glyph glyph-name="wcircumflex" unicode="&#x175;" horiz-adv-x="1699" 
d="M1215 171l270 779h171l-342 -950h-195l-272 773l-271 -773h-192l-342 950h175l269 -777l271 777h185zM1013 1094l-164 183l-164 -183h-175l229 292h220l229 -292h-175z" />
    <glyph glyph-name="Ycircumflex" unicode="&#x176;" horiz-adv-x="1298" 
d="M739 582v-582h-176v584l-552 816h211l430 -655l430 655h205zM816 1509l-164 183l-164 -183h-175l229 292h220l229 -292h-175z" />
    <glyph glyph-name="ycircumflex" unicode="&#x177;" horiz-adv-x="1064" 
d="M283 -405h-181l351 608l-433 747h183l342 -584l325 584h180zM701 1094l-164 183l-164 -183h-175l229 292h220l229 -292h-175z" />
    <glyph glyph-name="Ydieresis" unicode="&#x178;" horiz-adv-x="1298" 
d="M739 582v-582h-176v584l-552 816h211l430 -655l430 655h205zM449 1771q24 0 45.5 -9t37 -24.5t24.5 -37t9 -45.5q0 -25 -9 -46t-24.5 -36.5t-37 -24t-45.5 -8.5t-45 8.5t-36.5 24t-24.5 36.5t-9 46q0 24 9 45.5t24.5 37t36.5 24.5t45 9zM854 1771q24 0 45.5 -9t37 -24.5
t24.5 -37t9 -45.5q0 -25 -9 -46t-24.5 -36.5t-37 -24t-45.5 -8.5q-50 0 -82.5 32.5t-32.5 82.5q0 24 8.5 45.5t24 37t36.5 24.5t46 9z" />
    <glyph glyph-name="Zacute" unicode="&#x179;" horiz-adv-x="1308" 
d="M1186 1264l-833 -1097h835v-167h-1069v136l833 1097h-825v167h1059v-136zM512 1512l205 300h207l-251 -300h-161z" />
    <glyph glyph-name="zacute" unicode="&#x17a;" horiz-adv-x="1053" 
d="M923 831l-585 -683h594v-148h-811v119l592 682h-575v149h785v-119zM396 1097l205 300h207l-251 -300h-161z" />
    <glyph glyph-name="Zdotaccent" unicode="&#x17b;" horiz-adv-x="1308" 
d="M1186 1264l-833 -1097h835v-167h-1069v136l833 1097h-825v167h1059v-136zM689.532 1792.37q24.9229 0 47.25 -9.3457q22.3262 -9.34668 38.9414 -25.9619t25.9619 -38.4219q9.3457 -21.8076 9.3457 -47.7695q0 -24.9229 -9.3457 -46.7305
q-9.34668 -21.8066 -25.9619 -37.9033q-16.6152 -16.0957 -38.9414 -24.9229q-22.3271 -8.82617 -47.25 -8.82617t-46.7305 8.82617q-21.8076 8.82715 -37.9033 24.9229q-16.0957 16.0967 -25.4424 37.9033q-9.3457 21.8076 -9.3457 46.7305q0 25.9619 9.3457 47.7695
q9.34668 21.8066 25.4424 38.4219t37.9033 25.9619q21.8076 9.3457 46.7305 9.3457z" />
    <glyph glyph-name="zdotaccent" unicode="&#x17c;" horiz-adv-x="1053" 
d="M923 831l-585 -683h594v-148h-811v119l592 682h-575v149h785v-119zM530 1401q24 0 45.5 -9t37.5 -25t25 -37t9 -46q0 -24 -9 -45t-25 -36.5t-37.5 -24t-45.5 -8.5t-45 8.5t-36.5 24t-24.5 36.5t-9 45q0 25 9 46t24.5 37t36.5 25t45 9z" />
    <glyph glyph-name="Zcaron" unicode="&#x17d;" horiz-adv-x="1308" 
d="M1186 1264l-833 -1097h835v-167h-1069v136l833 1097h-825v167h1059v-136zM493 1799l164 -183l164 183h175l-229 -291h-220l-229 291h175z" />
    <glyph glyph-name="zcaron" unicode="&#x17e;" horiz-adv-x="1053" 
d="M923 831l-585 -683h594v-148h-811v119l592 682h-575v149h785v-119zM367 1384l164 -183l164 183h175l-229 -291h-220l-229 291h175z" />
    <glyph glyph-name="longs" unicode="&#x17f;" horiz-adv-x="643" 
d="M480 1460q81 0 145.5 -20t115.5 -51l-58 -137q-38 23 -88.5 39t-103.5 16q-85 0 -124 -51t-39 -144v-1112h-164v1112q0 75 18 138.5t56 110t98 73t144 26.5z" />
    <glyph glyph-name="uni018F" unicode="&#x18f;" horiz-adv-x="1621" 
d="M794 1420q150 0 279 -54t224.5 -150t149.5 -228t54 -288q0 -104 -24 -198t-68.5 -174t-107 -144t-139.5 -109.5t-166 -70t-187 -24.5q-152 0 -279 53t-218 147.5t-141.5 224.5t-50.5 284q0 45 3 90h1191q-13 104 -58 190.5t-114 149t-157.5 97.5t-189.5 35
q-73 0 -136.5 -15t-119 -43t-104 -68t-91.5 -89l-122 121q54 61 116 109.5t133.5 82.5t152 52.5t170.5 18.5zM809 149q97 0 183 34t153 95.5t110.5 147.5t57.5 189h-1000q6 -101 46 -186t105.5 -147.5t153.5 -97.5t191 -35z" />
    <glyph glyph-name="florin" unicode="&#x192;" horiz-adv-x="1400" 
d="M1081 650h-305l-34 -339q-8 -75 -27.5 -136t-54.5 -104.5t-88 -67t-126 -23.5q-74 0 -132.5 18.5t-105.5 46.5l56 132q34 -21 79 -35t92 -14q36 0 62 12.5t43.5 36.5t27 58t14.5 76l34 339h-255v150h270l29 289q7 75 27 136t55.5 104.5t88 67t126.5 23.5t131.5 -18.5
t105.5 -46.5l-57 -132q-33 21 -78 35t-92 14q-36 0 -62 -12.5t-43.5 -36.5t-27.5 -58t-14 -76l-29 -289h290v-150z" />
    <glyph glyph-name="uni01B5" unicode="&#x1b5;" horiz-adv-x="1308" 
d="M1054 618h-359l-342 -451h835v-167h-1069v136l370 487h-235v162h358l340 448h-825v167h1059v-136l-369 -485h237v-161z" />
    <glyph glyph-name="uni01B6" unicode="&#x1b6;" horiz-adv-x="1053" 
d="M855 418h-285l-232 -270h594v-148h-811v119l262 304h-180v126h290l220 252h-575v149h785v-119l-247 -288h179v-125z" />
    <glyph glyph-name="uni01CD" unicode="&#x1cd;" horiz-adv-x="1428" 
d="M1393 0h-189l-154 382h-679l-153 -382h-183l569 1400h219zM438 549h545l-272 677zM550 1799l164 -183l164 183h175l-229 -291h-220l-229 291h175z" />
    <glyph glyph-name="uni01CE" unicode="&#x1ce;" horiz-adv-x="1248" 
d="M1075 0h-164v127q-57 -67 -140 -107t-195 -40q-100 0 -187 37t-151 103t-100.5 156.5t-36.5 198.5t36.5 198.5t100.5 156.5t151 103t187 37q112 0 195 -40t140 -108v128h164v-950zM595 816q-74 0 -134.5 -26.5t-103.5 -73t-66 -108.5t-23 -133t23.5 -133t66.5 -108.5
t103.5 -73.5t133.5 -27q72 0 132 26t103 72t67 108.5t24 135.5t-24 135t-67 108t-103 72t-132 26zM449 1384l164 -183l164 183h175l-229 -291h-220l-229 291h175z" />
    <glyph glyph-name="uni01CF" unicode="&#x1cf;" horiz-adv-x="575" 
d="M375 0h-176v1400h176v-1400zM123 1799l164 -183l164 183h175l-229 -291h-220l-229 291h175z" />
    <glyph glyph-name="uni01D0" unicode="&#x1d0;" horiz-adv-x="509" 
d="M336 0h-163v950h163v-950zM90 1384l164 -183l164 183h175l-229 -291h-220l-229 291h175z" />
    <glyph glyph-name="uni01D1" unicode="&#x1d1;" horiz-adv-x="1690" 
d="M845 1421q105 0 199.5 -24.5t175 -69.5t145.5 -109.5t110.5 -144.5t70 -174t24.5 -199t-24.5 -199t-70 -174t-110.5 -144.5t-145.5 -109.5t-175 -69.5t-199.5 -24.5q-158 0 -290.5 53.5t-229.5 149.5t-151 228.5t-54 289.5t54 289.5t151 228.5t229.5 149.5t290.5 53.5z
M845 1252q-116 0 -214.5 -40t-171.5 -112.5t-114 -174.5t-41 -225t41 -225t114 -174.5t171.5 -112.5t214.5 -40q115 0 214 40t172 112.5t114 174.5t41 225t-41 225t-114 174.5t-172 112.5t-214 40zM681 1799l164 -183l164 183h175l-229 -291h-220l-229 291h175z" />
    <glyph glyph-name="uni01D2" unicode="&#x1d2;" horiz-adv-x="1207" 
d="M603 970q108 0 200 -37.5t159.5 -104t105.5 -157t38 -196.5t-38 -196.5t-105.5 -157t-159.5 -104t-200 -37.5t-200 37.5t-159 104t-105 157t-38 196.5t38 196.5t105 157t159 104t200 37.5zM603 816q-72 0 -133 -25.5t-106 -70.5t-70.5 -107.5t-25.5 -137.5t25.5 -137.5
t70.5 -108t106 -71t133 -25.5q71 0 132.5 25.5t106.5 71t70.5 108t25.5 137.5t-25.5 137.5t-70.5 107.5t-106.5 70.5t-132.5 25.5zM439 1384l164 -183l164 183h175l-229 -291h-220l-229 291h175z" />
    <glyph glyph-name="uni01D3" unicode="&#x1d3;" horiz-adv-x="1521" 
d="M1341 549q0 -143 -45.5 -250t-124 -178t-184.5 -106t-227 -35t-227 35t-184.5 106t-124 178t-45.5 250v851h176v-838q0 -108 30.5 -186t84.5 -128.5t128 -74.5t162 -24t162 24t128 74.5t84 128.5t30 186v838h177v-851zM596 1799l164 -183l164 183h175l-229 -291h-220
l-229 291h175z" />
    <glyph glyph-name="uni01D4" unicode="&#x1d4;" horiz-adv-x="1193" 
d="M1030 398q0 -108 -35.5 -186.5t-95.5 -130t-138.5 -76.5t-163.5 -25q-86 0 -164.5 25t-138.5 76.5t-95.5 130t-35.5 186.5v552h164v-537q0 -73 20.5 -125.5t56.5 -87t85.5 -51t107.5 -16.5t107 16.5t85 51t56.5 87t20.5 125.5v537h164v-552zM433 1384l164 -183l164 183
h175l-229 -291h-220l-229 291h175z" />
    <glyph glyph-name="uni01D5" unicode="&#x1d5;" horiz-adv-x="1521" 
d="M1341 549q0 -143 -45.5 -250t-124 -178t-184.5 -106t-227 -35t-227 35t-184.5 106t-124 178t-45.5 250v851h176v-838q0 -108 30.5 -186t84.5 -128.5t128 -74.5t162 -24t162 24t128 74.5t84 128.5t30 186v838h177v-851zM459 2055h603v-133h-603v133zM557 1771
q24 0 45.5 -9t37 -24.5t24.5 -37t9 -45.5q0 -25 -9 -46t-24.5 -36.5t-37 -24t-45.5 -8.5t-45 8.5t-36.5 24t-24.5 36.5t-9 46q0 24 9 45.5t24.5 37t36.5 24.5t45 9zM962 1771q24 0 45.5 -9t37 -24.5t24.5 -37t9 -45.5q0 -25 -9 -46t-24.5 -36.5t-37 -24t-45.5 -8.5
q-50 0 -82.5 32.5t-32.5 82.5q0 24 8.5 45.5t24 37t36.5 24.5t46 9z" />
    <glyph glyph-name="uni01D6" unicode="&#x1d6;" horiz-adv-x="1193" 
d="M1030 398q0 -108 -35.5 -186.5t-95.5 -130t-138.5 -76.5t-163.5 -25q-86 0 -164.5 25t-138.5 76.5t-95.5 130t-35.5 186.5v552h164v-537q0 -73 20.5 -125.5t56.5 -87t85.5 -51t107.5 -16.5t107 16.5t85 51t56.5 87t20.5 125.5v537h164v-552zM394 1356q24 0 45.5 -9
t37 -24.5t24.5 -37t9 -45.5q0 -25 -9 -46t-24.5 -36.5t-37 -24t-45.5 -8.5t-45 8.5t-36.5 24t-24.5 36.5t-9 46q0 24 9 45.5t24.5 37t36.5 24.5t45 9zM799 1356q24 0 45.5 -9t37 -24.5t24.5 -37t9 -45.5q0 -25 -9 -46t-24.5 -36.5t-37 -24t-45.5 -8.5q-50 0 -82.5 32.5
t-32.5 82.5q0 24 8.5 45.5t24 37t36.5 24.5t46 9zM296 1643h603v-133h-603v133z" />
    <glyph glyph-name="uni01D7" unicode="&#x1d7;" horiz-adv-x="1521" 
d="M1341 549q0 -143 -45.5 -250t-124 -178t-184.5 -106t-227 -35t-227 35t-184.5 106t-124 178t-45.5 250v851h176v-838q0 -108 30.5 -186t84.5 -128.5t128 -74.5t162 -24t162 24t128 74.5t84 128.5t30 186v838h177v-851zM615 1909l205 300h207l-251 -300h-161zM557 1771
q24 0 45.5 -9t37 -24.5t24.5 -37t9 -45.5q0 -25 -9 -46t-24.5 -36.5t-37 -24t-45.5 -8.5t-45 8.5t-36.5 24t-24.5 36.5t-9 46q0 24 9 45.5t24.5 37t36.5 24.5t45 9zM962 1771q24 0 45.5 -9t37 -24.5t24.5 -37t9 -45.5q0 -25 -9 -46t-24.5 -36.5t-37 -24t-45.5 -8.5
q-50 0 -82.5 32.5t-32.5 82.5q0 24 8.5 45.5t24 37t36.5 24.5t46 9z" />
    <glyph glyph-name="uni01D8" unicode="&#x1d8;" horiz-adv-x="1193" 
d="M1030 398q0 -108 -35.5 -186.5t-95.5 -130t-138.5 -76.5t-163.5 -25q-86 0 -164.5 25t-138.5 76.5t-95.5 130t-35.5 186.5v552h164v-537q0 -73 20.5 -125.5t56.5 -87t85.5 -51t107.5 -16.5t107 16.5t85 51t56.5 87t20.5 125.5v537h164v-552zM394 1356q24 0 45.5 -9
t37 -24.5t24.5 -37t9 -45.5q0 -25 -9 -46t-24.5 -36.5t-37 -24t-45.5 -8.5t-45 8.5t-36.5 24t-24.5 36.5t-9 46q0 24 9 45.5t24.5 37t36.5 24.5t45 9zM799 1356q24 0 45.5 -9t37 -24.5t24.5 -37t9 -45.5q0 -25 -9 -46t-24.5 -36.5t-37 -24t-45.5 -8.5q-50 0 -82.5 32.5
t-32.5 82.5q0 24 8.5 45.5t24 37t36.5 24.5t46 9zM452 1497l205 300h207l-251 -300h-161z" />
    <glyph glyph-name="uni01D9" unicode="&#x1d9;" horiz-adv-x="1521" 
d="M1341 549q0 -143 -45.5 -250t-124 -178t-184.5 -106t-227 -35t-227 35t-184.5 106t-124 178t-45.5 250v851h176v-838q0 -108 30.5 -186t84.5 -128.5t128 -74.5t162 -24t162 24t128 74.5t84 128.5t30 186v838h177v-851zM596 2196l164 -183l164 183h175l-229 -291h-220
l-229 291h175zM557 1771q24 0 45.5 -9t37 -24.5t24.5 -37t9 -45.5q0 -25 -9 -46t-24.5 -36.5t-37 -24t-45.5 -8.5t-45 8.5t-36.5 24t-24.5 36.5t-9 46q0 24 9 45.5t24.5 37t36.5 24.5t45 9zM962 1771q24 0 45.5 -9t37 -24.5t24.5 -37t9 -45.5q0 -25 -9 -46t-24.5 -36.5
t-37 -24t-45.5 -8.5q-50 0 -82.5 32.5t-32.5 82.5q0 24 8.5 45.5t24 37t36.5 24.5t46 9z" />
    <glyph glyph-name="uni01DA" unicode="&#x1da;" horiz-adv-x="1193" 
d="M1030 398q0 -108 -35.5 -186.5t-95.5 -130t-138.5 -76.5t-163.5 -25q-86 0 -164.5 25t-138.5 76.5t-95.5 130t-35.5 186.5v552h164v-537q0 -73 20.5 -125.5t56.5 -87t85.5 -51t107.5 -16.5t107 16.5t85 51t56.5 87t20.5 125.5v537h164v-552zM394 1356q24 0 45.5 -9
t37 -24.5t24.5 -37t9 -45.5q0 -25 -9 -46t-24.5 -36.5t-37 -24t-45.5 -8.5t-45 8.5t-36.5 24t-24.5 36.5t-9 46q0 24 9 45.5t24.5 37t36.5 24.5t45 9zM799 1356q24 0 45.5 -9t37 -24.5t24.5 -37t9 -45.5q0 -25 -9 -46t-24.5 -36.5t-37 -24t-45.5 -8.5q-50 0 -82.5 32.5
t-32.5 82.5q0 24 8.5 45.5t24 37t36.5 24.5t46 9zM433 1784l164 -183l164 183h175l-229 -291h-220l-229 291h175z" />
    <glyph glyph-name="uni01DB" unicode="&#x1db;" horiz-adv-x="1521" 
d="M1341 549q0 -143 -45.5 -250t-124 -178t-184.5 -106t-227 -35t-227 35t-184.5 106t-124 178t-45.5 250v851h176v-838q0 -108 30.5 -186t84.5 -128.5t128 -74.5t162 -24t162 24t128 74.5t84 128.5t30 186v838h177v-851zM481 2209h208l204 -300h-161zM557 1771
q24 0 45.5 -9t37 -24.5t24.5 -37t9 -45.5q0 -25 -9 -46t-24.5 -36.5t-37 -24t-45.5 -8.5t-45 8.5t-36.5 24t-24.5 36.5t-9 46q0 24 9 45.5t24.5 37t36.5 24.5t45 9zM962 1771q24 0 45.5 -9t37 -24.5t24.5 -37t9 -45.5q0 -25 -9 -46t-24.5 -36.5t-37 -24t-45.5 -8.5
q-50 0 -82.5 32.5t-32.5 82.5q0 24 8.5 45.5t24 37t36.5 24.5t46 9z" />
    <glyph glyph-name="uni01DC" unicode="&#x1dc;" horiz-adv-x="1193" 
d="M1030 398q0 -108 -35.5 -186.5t-95.5 -130t-138.5 -76.5t-163.5 -25q-86 0 -164.5 25t-138.5 76.5t-95.5 130t-35.5 186.5v552h164v-537q0 -73 20.5 -125.5t56.5 -87t85.5 -51t107.5 -16.5t107 16.5t85 51t56.5 87t20.5 125.5v537h164v-552zM394 1356q24 0 45.5 -9
t37 -24.5t24.5 -37t9 -45.5q0 -25 -9 -46t-24.5 -36.5t-37 -24t-45.5 -8.5t-45 8.5t-36.5 24t-24.5 36.5t-9 46q0 24 9 45.5t24.5 37t36.5 24.5t45 9zM799 1356q24 0 45.5 -9t37 -24.5t24.5 -37t9 -45.5q0 -25 -9 -46t-24.5 -36.5t-37 -24t-45.5 -8.5q-50 0 -82.5 32.5
t-32.5 82.5q0 24 8.5 45.5t24 37t36.5 24.5t46 9zM318 1797h208l204 -300h-161z" />
    <glyph glyph-name="uni01E2" unicode="&#x1e2;" horiz-adv-x="2293" 
d="M2133 0h-994v354h-631l-268 -354h-212l1062 1400h1033v-165h-808v-447h782v-166h-782v-457h818v-165zM1139 521v667l-505 -667h505zM1227 1720h603v-133h-603v133z" />
    <glyph glyph-name="uni01E3" unicode="&#x1e3;" horiz-adv-x="1791" 
d="M1243 969q97 0 179 -36t141 -101t92.5 -155.5t34.5 -199.5q0 -33 -3 -60h-746q8 -74 36.5 -129t72 -92t98 -55t115.5 -18q85 0 159 30t134 83l87 -112q-44 -41 -90.5 -69t-95.5 -44.5t-100 -23.5t-104 -7q-123 0 -221.5 47t-163.5 133q-32 -38 -72.5 -71t-90 -57
t-108 -38t-127.5 -14q-87 0 -155.5 21.5t-116 60t-72.5 92t-25 116.5q0 61 25.5 113t75 89.5t122.5 59t168 21.5h281q-1 136 -70.5 202.5t-202.5 66.5q-84 0 -151 -28t-118 -65l-77 121q83 63 175 91.5t192 28.5q127 0 218 -44t139 -144q29 43 68 77.5t86 59t100.5 37.5
t110.5 13zM495 124q42 0 84.5 10.5t83 30.5t76.5 48.5t65 65.5q-11 32 -19 66.5t-11 71.5h-265q-65 0 -109 -12t-72 -32t-40 -46.5t-12 -56.5t13.5 -56.5t41 -46.5t68.5 -31.5t96 -11.5zM1240 824q-63 0 -113.5 -20t-88 -56.5t-62 -87t-33.5 -111.5h580q-8 63 -31.5 114
t-60 86.5t-85 55t-106.5 19.5zM592 1305h603v-133h-603v133z" />
    <glyph glyph-name="Gcaron" unicode="&#x1e6;" horiz-adv-x="1639" 
d="M845 1421q168 0 307 -61.5t235 -170.5l-129 -125q-73 88 -179 138t-234 50q-116 0 -214.5 -40t-171.5 -112.5t-114 -174.5t-41 -225t41 -225t113 -174.5t169 -112.5t210 -40q107 0 193 30t148.5 87t100 138.5t47.5 184.5h-420v164h611q1 -11 1.5 -22t0.5 -22
q0 -153 -47 -285.5t-135 -231t-214.5 -155t-285.5 -56.5q-92 0 -180.5 21.5t-168.5 63.5t-147.5 103.5t-116.5 141.5t-76.5 178t-27.5 212q0 105 25 199.5t70.5 174.5t111 144.5t146 109.5t174.5 69t198 24zM657 1799l164 -183l164 183h175l-229 -291h-220l-229 291h175z
" />
    <glyph glyph-name="gcaron" unicode="&#x1e7;" horiz-adv-x="1235" 
d="M571 970q111 0 192 -40t135 -109v129h164v-884q0 -115 -36.5 -205t-103.5 -151.5t-160 -93.5t-205 -32q-56 0 -111 8t-107 24t-98 39t-82 52l71 132q69 -49 151.5 -77.5t175.5 -28.5q76 0 139 21.5t108 62.5t69.5 102t24.5 140v84q-54 -69 -135 -108.5t-192 -39.5
q-100 0 -186 35.5t-149 100t-99 154t-36 198.5q0 108 36 198t99 154t149 99.5t186 35.5zM590 816q-73 0 -132.5 -26.5t-101.5 -71.5t-65 -105.5t-23 -129.5t23 -130t65 -106.5t101.5 -71.5t132.5 -26q71 0 130 25.5t102 70.5t66.5 106t23.5 132t-23.5 132t-66.5 105.5
t-102 70t-130 25.5zM441 1384l164 -183l164 183h175l-229 -291h-220l-229 291h175z" />
    <glyph glyph-name="Aringacute" unicode="&#x1fa;" horiz-adv-x="1428" 
d="M1393 0h-189l-154 382h-679l-153 -382h-183l569 1400h219zM438 549h545l-272 677zM566 1827l205 300h207l-251 -300h-161zM711 1306q-48 0 -90 18t-73.5 49t-50 72.5t-18.5 89.5q0 47 18.5 89t50 73t73.5 49t90 18t90.5 -18t74 -49t50 -73t18.5 -89q0 -48 -18.5 -89.5
t-50 -72.5t-74 -49t-90.5 -18zM711 1410q25 0 48 9.5t39.5 26.5t26.5 40t10 49t-10 49t-26.5 40t-39.5 26.5t-48 9.5t-47.5 -9.5t-39 -26.5t-26.5 -40t-10 -49t10 -49t26.5 -40t39 -26.5t47.5 -9.5z" />
    <glyph glyph-name="aringacute" unicode="&#x1fb;" horiz-adv-x="1248" 
d="M1075 0h-164v127q-57 -67 -140 -107t-195 -40q-100 0 -187 37t-151 103t-100.5 156.5t-36.5 198.5t36.5 198.5t100.5 156.5t151 103t187 37q112 0 195 -40t140 -108v128h164v-950zM595 816q-74 0 -134.5 -26.5t-103.5 -73t-66 -108.5t-23 -133t23.5 -133t66.5 -108.5
t103.5 -73.5t133.5 -27q72 0 132 26t103 72t67 108.5t24 135.5t-24 135t-67 108t-103 72t-132 26zM599 1041q-48 0 -90 18t-73.5 49t-50 72.5t-18.5 89.5q0 47 18.5 89t50 73t73.5 49t90 18t90.5 -18t74 -49t50 -73t18.5 -89q0 -48 -18.5 -89.5t-50 -72.5t-74 -49t-90.5 -18
zM599 1145q25 0 48 9.5t39.5 26.5t26.5 40t10 49t-10 49t-26.5 40t-39.5 26.5t-48 9.5t-47.5 -9.5t-39 -26.5t-26.5 -40t-10 -49t10 -49t26.5 -40t39 -26.5t47.5 -9.5zM455 1556l205 300h207l-251 -300h-161z" />
    <glyph glyph-name="AEacute" unicode="&#x1fc;" horiz-adv-x="2293" 
d="M2133 0h-994v354h-631l-268 -354h-212l1062 1400h1033v-165h-808v-447h782v-166h-782v-457h818v-165zM1139 521v667l-505 -667h505zM1384 1512l205 300h207l-251 -300h-161z" />
    <glyph glyph-name="aeacute" unicode="&#x1fd;" horiz-adv-x="1791" 
d="M1243 969q97 0 179 -36t141 -101t92.5 -155.5t34.5 -199.5q0 -33 -3 -60h-746q8 -74 36.5 -129t72 -92t98 -55t115.5 -18q85 0 159 30t134 83l87 -112q-44 -41 -90.5 -69t-95.5 -44.5t-100 -23.5t-104 -7q-123 0 -221.5 47t-163.5 133q-32 -38 -72.5 -71t-90 -57
t-108 -38t-127.5 -14q-87 0 -155.5 21.5t-116 60t-72.5 92t-25 116.5q0 61 25.5 113t75 89.5t122.5 59t168 21.5h281q-1 136 -70.5 202.5t-202.5 66.5q-84 0 -151 -28t-118 -65l-77 121q83 63 175 91.5t192 28.5q127 0 218 -44t139 -144q29 43 68 77.5t86 59t100.5 37.5
t110.5 13zM495 124q42 0 84.5 10.5t83 30.5t76.5 48.5t65 65.5q-11 32 -19 66.5t-11 71.5h-265q-65 0 -109 -12t-72 -32t-40 -46.5t-12 -56.5t13.5 -56.5t41 -46.5t68.5 -31.5t96 -11.5zM1240 824q-63 0 -113.5 -20t-88 -56.5t-62 -87t-33.5 -111.5h580q-8 63 -31.5 114
t-60 86.5t-85 55t-106.5 19.5zM758 1097l205 300h207l-251 -300h-161z" />
    <glyph glyph-name="Oslashacute" unicode="&#x1fe;" horiz-adv-x="1690" 
d="M845 1421q134 0 249 -38.5t207 -109.5l148 147l116 -116l-147 -147q72 -92 112 -207.5t40 -249.5q0 -105 -24.5 -199t-70 -174t-110.5 -144.5t-145.5 -109.5t-175 -69.5t-199.5 -24.5q-134 0 -249.5 38.5t-207.5 109.5l-147 -147l-117 116l147 147q-72 91 -111.5 206.5
t-39.5 250.5q0 157 54 289.5t151 228.5t229.5 149.5t290.5 53.5zM1386 700q0 97 -25.5 179t-71.5 149l-775 -775q68 -51 151.5 -78t179.5 -27q115 0 214 40t172 112.5t114 174.5t41 225zM845 1252q-116 0 -214.5 -40t-171.5 -112.5t-114 -174.5t-41 -225q0 -97 25 -179
t71 -149l775 775q-68 51 -151.5 78t-178.5 27zM700 1512l205 300h207l-251 -300h-161z" />
    <glyph glyph-name="oslashacute" unicode="&#x1ff;" horiz-adv-x="1207" 
d="M603 970q88 0 164 -25t139 -70l109 109l99 -98l-108 -108q48 -62 74 -138.5t26 -164.5q0 -106 -38 -196.5t-105.5 -157t-159.5 -104t-200 -37.5q-88 0 -163.5 24t-138.5 69l-109 -109l-99 98l108 108q-48 63 -74 140t-26 165q0 106 38 196.5t105 157t159 104t200 37.5z
M603 816q-72 0 -133 -25.5t-106 -70.5t-70.5 -107.5t-25.5 -137.5q0 -54 13 -101t37 -87l474 474q-40 26 -87.5 40.5t-101.5 14.5zM938 475q0 53 -13 99.5t-37 85.5l-473 -473q40 -26 87 -40t101 -14q71 0 132.5 25.5t106.5 71t70.5 108t25.5 137.5zM468 1097l205 300h207
l-251 -300h-161z" />
    <glyph glyph-name="Scommaaccent" unicode="&#x218;" horiz-adv-x="1347" 
d="M1113 1124q-86 58 -189.5 93.5t-225.5 35.5q-77 0 -141.5 -16.5t-111 -48t-72.5 -76.5t-26 -102q0 -96 79.5 -147t237.5 -71l123 -15q89 -11 169 -35.5t140 -68.5t95.5 -109.5t35.5 -158.5q0 -105 -44.5 -184.5t-120 -133t-176.5 -80.5t-215 -27q-75 0 -151.5 12.5
t-148.5 36t-136.5 57.5t-115.5 76l96 140q36 -32 87 -60t110.5 -49t125.5 -33.5t133 -12.5q78 0 146.5 15.5t118.5 46.5t79 76.5t29 104.5q0 97 -86 148t-249 71l-130 16q-87 10 -162.5 36.5t-131.5 71.5t-88.5 110.5t-32.5 155.5q0 101 42 179.5t115 132t170 81.5t208 28
q79 0 149 -11t132.5 -31.5t117.5 -48.5t105 -62zM805 -88l-75 -354h-145l40 354h180z" />
    <glyph glyph-name="scommaaccent" unicode="&#x219;" horiz-adv-x="994" 
d="M813 739q-23 15 -56 31t-73 28.5t-85 20.5t-92 8q-98 0 -156 -38t-58 -103q0 -57 48.5 -85.5t135.5 -39.5l110 -14q76 -10 135.5 -31.5t100.5 -54.5t63 -78.5t22 -104.5q0 -68 -29.5 -123t-84 -94t-132.5 -60t-175 -21q-44 0 -94.5 6t-102.5 20t-104 37.5t-99 58.5
l76 122q27 -21 58.5 -39t71 -32t87.5 -22t108 -8q118 0 185 37t67 108q0 106 -191 130l-110 13q-161 20 -238.5 88.5t-77.5 177.5q0 68 27 122.5t77 92t120.5 57.5t157.5 20q113 0 211.5 -27.5t167.5 -75.5zM613 -88l-75 -354h-145l40 354h180z" />
    <glyph glyph-name="uni021A" unicode="&#x21a;" horiz-adv-x="1211" 
d="M1171 1233h-477v-1233h-176v1233h-478v167h1131v-167zM716 -88l-75 -354h-145l40 354h180z" />
    <glyph glyph-name="uni021B" unicode="&#x21b;" horiz-adv-x="907" 
d="M818 801h-399v-463q0 -54 13.5 -92.5t37.5 -63.5t56.5 -37t71.5 -12q53 0 103 18t91 46l77 -123q-55 -40 -126 -67t-159 -27q-77 0 -138 21.5t-103.5 65.5t-65 110.5t-22.5 157.5v466h-203v149h203v298h164v-298h399v-149zM651 -88l-75 -354h-145l40 354h180z" />
    <glyph glyph-name="uni0232" unicode="&#x232;" horiz-adv-x="1298" 
d="M739 582v-582h-176v584l-552 816h211l430 -655l430 655h205zM350 1720h603v-133h-603v133z" />
    <glyph glyph-name="uni0233" unicode="&#x233;" horiz-adv-x="1064" 
d="M283 -405h-181l351 608l-433 747h183l342 -584l325 584h180zM236 1305h603v-133h-603v133z" />
    <glyph glyph-name="uni0237" unicode="&#x237;" horiz-adv-x="514" 
d="M341 -147q0 -66 -17.5 -116t-50 -84t-78 -51.5t-101.5 -17.5q-36 0 -73.5 8.5t-64.5 22.5l39 142q19 -8 40.5 -13.5t44.5 -5.5q44 0 70.5 29t26.5 94v1089h164v-1097z" />
    <glyph glyph-name="uni0259" unicode="&#x259;" horiz-adv-x="1121" 
d="M548 -20q-97 0 -179 36t-141 101t-92.5 155.5t-34.5 199.5q0 16 1 31.5t2 29.5h747q-9 74 -37.5 129t-71.5 92t-98 55t-116 18q-85 0 -161 -31.5t-137 -86.5l-82 117q44 41 91 69t96 44.5t99.5 23.5t103.5 7q106 0 194.5 -35.5t152.5 -101t99.5 -156.5t35.5 -202
q0 -110 -35.5 -201t-98.5 -156t-149.5 -101.5t-188.5 -36.5zM551 125q63 0 114 20.5t88.5 57t62 87t33.5 111.5h-581q7 -63 30.5 -114t60.5 -87t85.5 -55.5t106.5 -19.5z" />
    <glyph glyph-name="uni02BB" unicode="&#x2bb;" horiz-adv-x="497" 
d="M127 925l108 515h141l-58 -515h-191z" />
    <glyph glyph-name="afii57929" unicode="&#x2bc;" horiz-adv-x="497" 
d="M370 1440l-108 -515h-141l58 515h191z" />
    <glyph glyph-name="uni02BE" unicode="&#x2be;" horiz-adv-x="545" 
d="M140 884q40 0 76 16.5t63 45t43 66.5t16 81q0 44 -16 82t-43 66.5t-63 45t-76 16.5v150q74 0 139 -28t113.5 -77t76.5 -114.5t28 -140.5t-28 -140t-76.5 -114t-113.5 -77t-139 -28v150z" />
    <glyph glyph-name="uni02BF" unicode="&#x2bf;" horiz-adv-x="545" 
d="M405 1303q-40 0 -76 -16.5t-63 -45t-43 -66.5t-16 -81q0 -44 16 -82t43 -66.5t63 -45t76 -16.5v-150q-74 0 -139 28t-113.5 77t-76.5 114.5t-28 140.5t28 140t76.5 114t113.5 77t139 28v-150z" />
    <glyph glyph-name="circumflex" unicode="&#x2c6;" horiz-adv-x="954" 
d="M641 1095l-164 183l-164 -183h-175l229 291h220l229 -291h-175z" />
    <glyph glyph-name="caron" unicode="&#x2c7;" horiz-adv-x="954" 
d="M313 1384l164 -183l164 183h175l-229 -291h-220l-229 291h175z" />
    <glyph glyph-name="breve" unicode="&#x2d8;" horiz-adv-x="954" 
d="M260 1410q29 -95 84 -140.5t133 -45.5t132.5 45.5t83.5 140.5l132 -39q-40 -141 -130 -213.5t-218 -72.5t-218 72.5t-130 213.5z" />
    <glyph glyph-name="dotaccent" unicode="&#x2d9;" horiz-adv-x="578" 
d="M288 1401q24 0 45.5 -9t37.5 -25t25 -37t9 -46q0 -24 -9 -45t-25 -36.5t-37.5 -24t-45.5 -8.5t-45 8.5t-36.5 24t-24.5 36.5t-9 45q0 25 9 46t24.5 37t36.5 25t45 9z" />
    <glyph glyph-name="ring" unicode="&#x2da;" horiz-adv-x="954" 
d="M477 1075q-48 0 -90 18t-73.5 49t-50 72.5t-18.5 89.5q0 47 18.5 89t50 73t73.5 49t90 18t90.5 -18t74 -49t50 -73t18.5 -89q0 -48 -18.5 -89.5t-50 -72.5t-74 -49t-90.5 -18zM477 1179q25 0 48 9.5t39.5 26.5t26.5 40t10 49t-10 49t-26.5 40t-39.5 26.5t-48 9.5
t-47.5 -9.5t-39 -26.5t-26.5 -40t-10 -49t10 -49t26.5 -40t39 -26.5t47.5 -9.5z" />
    <glyph glyph-name="ogonek" unicode="&#x2db;" horiz-adv-x="1093" 
d="M911 -325q-48 -45 -108.5 -68t-127.5 -23q-59 0 -107.5 16t-83 45.5t-53.5 71t-19 91.5q0 53 21 96t61 79.5t97 67t128 59.5l73 -93q-118 -47 -171.5 -91.5t-53.5 -101.5q0 -44 31.5 -71.5t86.5 -27.5q41 0 75 14.5t64 41.5z" />
    <glyph glyph-name="tilde" unicode="&#x2dc;" horiz-adv-x="954" 
d="M121 1241q46 57 98.5 84t125.5 27q51 0 87.5 -12t66 -26t55.5 -26t56 -12q36 0 65.5 16t61.5 48l97 -94q-46 -56 -98.5 -83.5t-125.5 -27.5q-50 0 -86 12t-66 26.5t-56.5 26.5t-56.5 12q-36 0 -65.5 -16t-61.5 -48z" />
    <glyph glyph-name="hungarumlaut" unicode="&#x2dd;" horiz-adv-x="954" 
d="M464 1097l205 300h208l-251 -300h-162zM78 1097l205 300h208l-251 -300h-162z" />
    <glyph glyph-name="gravecomb" unicode="&#x300;" horiz-adv-x="1" 
d="M-894 1397h208l204 -300h-161z" />
    <glyph glyph-name="acutecomb" unicode="&#x301;" horiz-adv-x="1" 
d="M-739 1097l205 300h207l-251 -300h-161z" />
    <glyph glyph-name="uni0302" unicode="&#x302;" horiz-adv-x="1" 
d="M-440 1094l-164 183l-164 -183h-175l229 292h220l229 -292h-175z" />
    <glyph glyph-name="tildecomb" unicode="&#x303;" horiz-adv-x="1" 
d="M-955 1241q46 57 98.5 84t125.5 27q51 0 87.5 -12t66 -26t55.5 -26t56 -12q36 0 65.5 16t61.5 48l97 -94q-46 -56 -98.5 -83.5t-125.5 -27.5q-50 0 -86 12t-66 26.5t-56.5 26.5t-56.5 12q-36 0 -65.5 -16t-61.5 -48z" />
    <glyph glyph-name="uni0304" unicode="&#x304;" horiz-adv-x="1" 
d="M-905 1305h603v-133h-603v133z" />
    <glyph glyph-name="uni0306" unicode="&#x306;" horiz-adv-x="1" 
d="M-820 1410q28 -95 83 -140.5t133 -45.5t132.5 45.5t83.5 140.5l132 -39q-40 -141 -130 -213.5t-218 -72.5t-218 72.5t-130 213.5z" />
    <glyph glyph-name="uni0307" unicode="&#x307;" horiz-adv-x="1" 
d="M-605 1401q24 0 45.5 -9t37.5 -25t25 -37t9 -46q0 -24 -9 -45t-25 -36.5t-37.5 -24t-45.5 -8.5t-45 8.5t-36.5 24t-24.5 36.5t-9 45q0 25 9 46t24.5 37t36.5 25t45 9z" />
    <glyph glyph-name="uni0308" unicode="&#x308;" horiz-adv-x="1" 
d="M-807 1356q24 0 45.5 -9t37 -24.5t24.5 -37t9 -45.5q0 -25 -9 -46t-24.5 -36.5t-37 -24t-45.5 -8.5t-45 8.5t-36.5 24t-24.5 36.5t-9 46q0 24 9 45.5t24.5 37t36.5 24.5t45 9zM-402 1356q24 0 45.5 -9t37 -24.5t24.5 -37t9 -45.5q0 -25 -9 -46t-24.5 -36.5t-37 -24
t-45.5 -8.5q-50 0 -82.5 32.5t-32.5 82.5q0 24 8.5 45.5t24 37t36.5 24.5t46 9z" />
    <glyph glyph-name="uni030A" unicode="&#x30a;" horiz-adv-x="1" 
d="M-605 1075q-48 0 -90 18t-73.5 49t-50 72.5t-18.5 89.5q0 47 18.5 89t50 73t73.5 49t90 18t90.5 -18t74 -49t50 -73t18.5 -89q0 -48 -18.5 -89.5t-50 -72.5t-74 -49t-90.5 -18zM-605 1179q25 0 48 9.5t39.5 26.5t26.5 40t10 49t-10 49t-26.5 40t-39.5 26.5t-48 9.5
t-47.5 -9.5t-39 -26.5t-26.5 -40t-10 -49t10 -49t26.5 -40t39 -26.5t47.5 -9.5z" />
    <glyph glyph-name="uni030B" unicode="&#x30b;" horiz-adv-x="1" 
d="M-528 1097l212 300h192l-239 -300h-165zM-871 1097l194 300h186l-214 -300h-166z" />
    <glyph glyph-name="uni030C" unicode="&#x30c;" horiz-adv-x="1" 
d="M-768 1384l164 -183l164 183h175l-229 -291h-220l-229 291h175z" />
    <glyph glyph-name="uni0312" unicode="&#x312;" horiz-adv-x="1" 
d="M-703 1097l76 354h144l-40 -354h-180z" />
    <glyph glyph-name="dotbelowcomb" unicode="&#x323;" horiz-adv-x="1" 
d="M-604 -150q24 0 45.5 -9t37.5 -25t25 -37t9 -46q0 -24 -9 -45t-25 -36.5t-37.5 -24t-45.5 -8.5t-45 8.5t-36.5 24t-24.5 36.5t-9 45q0 25 9 46t24.5 37t36.5 25t45 9z" />
    <glyph glyph-name="uni0326" unicode="&#x326;" horiz-adv-x="1" 
d="M-502 -88l-75 -354h-145l40 354h180z" />
    <glyph glyph-name="uni0327" unicode="&#x327;" horiz-adv-x="1" 
d="M-569 -322h-171l109 328h163z" />
    <glyph glyph-name="uni0328" unicode="&#x328;" horiz-adv-x="1" 
d="M-351 -325q-48 -45 -108.5 -68t-127.5 -23q-60 0 -109.5 16t-85 44t-54.5 66.5t-19 83.5q0 54 23 97t66.5 78.5t107 65t144.5 58.5l15 -48q-100 -54 -148 -105.5t-48 -115.5q0 -44 31.5 -71.5t86.5 -27.5q77 0 139 56z" />
    <glyph glyph-name="uni032E" unicode="&#x32e;" horiz-adv-x="1" 
d="M-820 -96q29 -95 83.5 -140.5t133.5 -45.5q78 0 132.5 45.5t83.5 140.5l132 -40q-40 -141 -130 -213t-218 -72t-218.5 72t-129.5 213z" />
    <glyph glyph-name="uni0331" unicode="&#x331;" horiz-adv-x="1" 
d="M-904 -197h603v-133h-603v133z" />
    <glyph glyph-name="uni0335" unicode="&#x335;" horiz-adv-x="1" 
d="M-242 456h-721v148h721v-148z" />
    <glyph glyph-name="uni0336" unicode="&#x336;" horiz-adv-x="1" 
d="M146 456h-1497v148h1497v-148z" />
    <glyph glyph-name="uni0394" unicode="&#x394;" horiz-adv-x="1409" 
d="M1329 136v-136h-1249v136l515 1265h219zM278 167h853l-426 1056z" />
    <glyph glyph-name="uni03A9" unicode="&#x3a9;" horiz-adv-x="1720" 
d="M405 167q-62 43 -112 99.5t-85 123.5t-54 144.5t-19 162.5q0 158 54 291t151 229t229.5 150t290.5 54q157 0 290 -54t230 -150t151 -229t54 -291q0 -85 -19 -162.5t-54 -144.5t-84.5 -123.5t-111.5 -99.5h324v-167h-607v143q82 26 149.5 76t116 120.5t75.5 158.5t27 191
q0 126 -41 229.5t-114 177.5t-172 115t-214 41q-116 0 -214.5 -41t-171.5 -115t-114 -177.5t-41 -229.5q0 -103 27 -191t75.5 -158.5t116.5 -120.5t149 -76v-143h-607v167h325z" />
    <glyph glyph-name="uni03BC" unicode="&#x3bc;" horiz-adv-x="1205" 
d="M163 -400v1350h164v-537q0 -132 68 -205t193 -73q57 0 108.5 19t89.5 55.5t60.5 89t22.5 118.5v533h163v-950h-162v124q-29 -40 -66 -67.5t-77.5 -44.5t-83.5 -24.5t-84 -7.5q-34 0 -67.5 5t-64.5 15.5t-57 26t-45 35.5v-462h-162z" />
    <glyph glyph-name="pi" unicode="&#x3c0;" horiz-adv-x="1204" 
d="M1041 0h-164v801h-541v-801h-163v950h868v-950z" />
    <glyph glyph-name="uni1E0C" unicode="&#x1e0c;" horiz-adv-x="1595" 
d="M733 1400q169 0 306.5 -49.5t234 -141t149 -220.5t52.5 -289t-52.5 -289t-149 -220.5t-234 -141t-306.5 -49.5h-534v1400h534zM375 1233v-1066h358q138 0 242 38.5t174 109t105.5 168.5t35.5 217q0 120 -35.5 218t-105.5 168t-174 108.5t-242 38.5h-358zM763 -149
q24 0 45.5 -9t37.5 -25t25 -37t9 -46q0 -24 -9 -45t-25 -36.5t-37.5 -24t-45.5 -8.5t-45 8.5t-36.5 24t-24.5 36.5t-9 45q0 25 9 46t24.5 37t36.5 25t45 9z" />
    <glyph glyph-name="uni1E0D" unicode="&#x1e0d;" horiz-adv-x="1248" 
d="M576 970q112 0 195 -40t140 -108v618h164v-1440h-164v127q-57 -67 -140 -107t-195 -40q-100 0 -187 37t-151 103t-100.5 156.5t-36.5 198.5t36.5 198.5t100.5 156.5t151 103t187 37zM595 816q-74 0 -134.5 -26.5t-103.5 -73t-66 -108.5t-23 -133t23.5 -133t66.5 -108.5
t103.5 -73.5t133.5 -27q72 0 132 26t103 72t67 108.5t24 135.5t-24 135t-67 108t-103 72t-132 26zM619 -149q24 0 45.5 -9t37.5 -25t25 -37t9 -46q0 -24 -9 -45t-25 -36.5t-37.5 -24t-45.5 -8.5t-45 8.5t-36.5 24t-24.5 36.5t-9 45q0 25 9 46t24.5 37t36.5 25t45 9z" />
    <glyph glyph-name="uni1E0E" unicode="&#x1e0e;" horiz-adv-x="1595" 
d="M733 1400q169 0 306.5 -49.5t234 -141t149 -220.5t52.5 -289t-52.5 -289t-149 -220.5t-234 -141t-306.5 -49.5h-534v1400h534zM375 1233v-1066h358q138 0 242 38.5t174 109t105.5 168.5t35.5 217q0 120 -35.5 218t-105.5 168t-174 108.5t-242 38.5h-358zM463 -197h603
v-133h-603v133z" />
    <glyph glyph-name="uni1E0F" unicode="&#x1e0f;" horiz-adv-x="1248" 
d="M576 970q112 0 195 -40t140 -108v618h164v-1440h-164v127q-57 -67 -140 -107t-195 -40q-100 0 -187 37t-151 103t-100.5 156.5t-36.5 198.5t36.5 198.5t100.5 156.5t151 103t187 37zM595 816q-74 0 -134.5 -26.5t-103.5 -73t-66 -108.5t-23 -133t23.5 -133t66.5 -108.5
t103.5 -73.5t133.5 -27q72 0 132 26t103 72t67 108.5t24 135.5t-24 135t-67 108t-103 72t-132 26zM318 -197h603v-133h-603v133z" />
    <glyph glyph-name="uni1E24" unicode="&#x1e24;" horiz-adv-x="1577" 
d="M375 788h826v612h176v-1400h-176v622h-826v-622h-176v1400h176v-612zM787 -149q24 0 45.5 -9t37.5 -25t25 -37t9 -46q0 -24 -9 -45t-25 -36.5t-37.5 -24t-45.5 -8.5t-45 8.5t-36.5 24t-24.5 36.5t-9 45q0 25 9 46t24.5 37t36.5 25t45 9z" />
    <glyph glyph-name="uni1E25" unicode="&#x1e25;" horiz-adv-x="1205" 
d="M336 827q29 40 65.5 67.5t77 44t83.5 24t84 7.5q88 0 160.5 -27.5t125 -77t81.5 -120t29 -155.5v-590h-164v537q0 132 -68 205t-193 73q-57 0 -108.5 -19t-89.5 -55.5t-60.5 -89t-22.5 -118.5v-533h-163v1440h163v-613zM607 -149q24 0 45.5 -9t37.5 -25t25 -37t9 -46
q0 -24 -9 -45t-25 -36.5t-37.5 -24t-45.5 -8.5t-45 8.5t-36.5 24t-24.5 36.5t-9 45q0 25 9 46t24.5 37t36.5 25t45 9z" />
    <glyph glyph-name="uni1E28" unicode="&#x1e28;" horiz-adv-x="1577" 
d="M375 788h826v612h176v-1400h-176v622h-826v-622h-176v1400h176v-612zM271 -322h-179l111 328h171z" />
    <glyph glyph-name="uni1E29" unicode="&#x1e29;" horiz-adv-x="1205" 
d="M336 827q29 40 65.5 67.5t77 44t83.5 24t84 7.5q88 0 160.5 -27.5t125 -77t81.5 -120t29 -155.5v-590h-164v537q0 132 -68 205t-193 73q-57 0 -108.5 -19t-89.5 -55.5t-60.5 -89t-22.5 -118.5v-533h-163v1440h163v-613zM235 -322h-171l109 328h163z" />
    <glyph glyph-name="uni1E2A" unicode="&#x1e2a;" horiz-adv-x="1577" 
d="M375 788h826v612h176v-1400h-176v622h-826v-622h-176v1400h176v-612zM571 -96q29 -95 83.5 -140.5t133.5 -45.5q78 0 132.5 45.5t83.5 140.5l132 -40q-40 -141 -130 -213t-218 -72t-218.5 72t-129.5 213z" />
    <glyph glyph-name="uni1E2B" unicode="&#x1e2b;" horiz-adv-x="1205" 
d="M336 827q29 40 65.5 67.5t77 44t83.5 24t84 7.5q88 0 160.5 -27.5t125 -77t81.5 -120t29 -155.5v-590h-164v537q0 132 -68 205t-193 73q-57 0 -108.5 -19t-89.5 -55.5t-60.5 -89t-22.5 -118.5v-533h-163v1440h163v-613zM390 -96q29 -95 83.5 -140.5t133.5 -45.5
q78 0 132.5 45.5t83.5 140.5l132 -40q-40 -141 -130 -213t-218 -72t-218.5 72t-129.5 213z" />
    <glyph glyph-name="uni1E32" unicode="&#x1e32;" horiz-adv-x="1397" 
d="M535 621h-160v-621h-176v1400h176v-613h162l568 613h228l-651 -686l694 -714h-240zM698 -149q24 0 45.5 -9t37.5 -25t25 -37t9 -46q0 -24 -9 -45t-25 -36.5t-37.5 -24t-45.5 -8.5t-45 8.5t-36.5 24t-24.5 36.5t-9 45q0 25 9 46t24.5 37t36.5 25t45 9z" />
    <glyph glyph-name="uni1E33" unicode="&#x1e33;" horiz-adv-x="1064" 
d="M336 570h130l353 380h206l-424 -448l430 -502h-207l-359 422h-129v-422h-163v1440h163v-870zM561 -149q24 0 45.5 -9t37.5 -25t25 -37t9 -46q0 -24 -9 -45t-25 -36.5t-37.5 -24t-45.5 -8.5t-45 8.5t-36.5 24t-24.5 36.5t-9 45q0 25 9 46t24.5 37t36.5 25t45 9z" />
    <glyph glyph-name="uni1E36" unicode="&#x1e36;" horiz-adv-x="1217" 
d="M1177 0h-978v1400h176v-1233h802v-167zM679 -149q24 0 45.5 -9t37.5 -25t25 -37t9 -46q0 -24 -9 -45t-25 -36.5t-37.5 -24t-45.5 -8.5t-45 8.5t-36.5 24t-24.5 36.5t-9 45q0 25 9 46t24.5 37t36.5 25t45 9z" />
    <glyph glyph-name="uni1E37" unicode="&#x1e37;" horiz-adv-x="509" 
d="M336 0h-163v1440h163v-1440zM254 -149q24 0 45.5 -9t37.5 -25t25 -37t9 -46q0 -24 -9 -45t-25 -36.5t-37.5 -24t-45.5 -8.5t-45 8.5t-36.5 24t-24.5 36.5t-9 45q0 25 9 46t24.5 37t36.5 25t45 9z" />
    <glyph glyph-name="uni1E38" unicode="&#x1e38;" horiz-adv-x="1217" 
d="M1177 0h-978v1400h176v-1233h802v-167zM679 -149q24 0 45.5 -9t37.5 -25t25 -37t9 -46q0 -24 -9 -45t-25 -36.5t-37.5 -24t-45.5 -8.5t-45 8.5t-36.5 24t-24.5 36.5t-9 45q0 25 9 46t24.5 37t36.5 25t45 9zM-15 1720h603v-133h-603v133z" />
    <glyph glyph-name="uni1E39" unicode="&#x1e39;" horiz-adv-x="509" 
d="M336 0h-163v1440h163v-1440zM-64 1741h603v-133h-603v133zM254 -149q24 0 45.5 -9t37.5 -25t25 -37t9 -46q0 -24 -9 -45t-25 -36.5t-37.5 -24t-45.5 -8.5t-45 8.5t-36.5 24t-24.5 36.5t-9 45q0 25 9 46t24.5 37t36.5 25t45 9z" />
    <glyph glyph-name="uni1E3A" unicode="&#x1e3a;" horiz-adv-x="1217" 
d="M1177 0h-978v1400h176v-1233h802v-167zM379 -197h603v-133h-603v133z" />
    <glyph glyph-name="uni1E3B" unicode="&#x1e3b;" horiz-adv-x="509" 
d="M336 0h-163v1440h163v-1440zM-47 -197h603v-133h-603v133z" />
    <glyph glyph-name="uni1E40" unicode="&#x1e40;" horiz-adv-x="1875" 
d="M1675 0h-176v1205l-469 -1054h-186l-469 1046v-1197h-176v1401h269l469 -1045l469 1045h269v-1401zM980.299 1792.37q24.9229 0 47.25 -9.3457q22.3262 -9.34668 38.9414 -25.9619t25.9609 -38.4219q9.34668 -21.8076 9.34668 -47.7695q0 -24.9229 -9.34668 -46.7305
q-9.3457 -21.8066 -25.9609 -37.9033q-16.6152 -16.0957 -38.9414 -24.9229q-22.3271 -8.82617 -47.25 -8.82617t-46.7305 8.82617q-21.8076 8.82715 -37.9033 24.9229q-16.0957 16.0967 -25.4424 37.9033q-9.3457 21.8076 -9.3457 46.7305q0 25.9619 9.3457 47.7695
q9.34668 21.8066 25.4424 38.4219t37.9033 25.9619q21.8076 9.3457 46.7305 9.3457z" />
    <glyph glyph-name="uni1E41" unicode="&#x1e41;" horiz-adv-x="1910" 
d="M1351 970q88 0 161 -27.5t125 -77t81 -120t29 -155.5v-590h-164v537q0 132 -68 205t-193 73q-59 0 -110 -19.5t-89 -56.5t-59.5 -89t-21.5 -117v-533h-164v537q0 132 -68 205t-193 73q-57 0 -108.5 -19t-89.5 -55.5t-60.5 -89t-22.5 -118.5v-533h-163v950h162v-124
q29 40 66 67.5t77.5 44.5t83.5 24.5t84 7.5q121 0 212 -50.5t139 -140.5q29 54 70 90.5t88 59t97.5 32t98.5 9.5zM959 1409q24 0 45.5 -9t37.5 -25t25 -37t9 -46q0 -24 -9 -45t-25 -36.5t-37.5 -24t-45.5 -8.5t-45 8.5t-36.5 24t-24.5 36.5t-9 45q0 25 9 46t24.5 37t36.5 25
t45 9z" />
    <glyph glyph-name="uni1E42" unicode="&#x1e42;" horiz-adv-x="1875" 
d="M1675 0h-176v1205l-469 -1054h-186l-469 1046v-1197h-176v1401h269l469 -1045l469 1045h269v-1401zM936 -149q24 0 45.5 -9t37.5 -25t25 -37t9 -46q0 -24 -9 -45t-25 -36.5t-37.5 -24t-45.5 -8.5t-45 8.5t-36.5 24t-24.5 36.5t-9 45q0 25 9 46t24.5 37t36.5 25t45 9z" />
    <glyph glyph-name="uni1E43" unicode="&#x1e43;" horiz-adv-x="1910" 
d="M1351 970q88 0 161 -27.5t125 -77t81 -120t29 -155.5v-590h-164v537q0 132 -68 205t-193 73q-59 0 -110 -19.5t-89 -56.5t-59.5 -89t-21.5 -117v-533h-164v537q0 132 -68 205t-193 73q-57 0 -108.5 -19t-89.5 -55.5t-60.5 -89t-22.5 -118.5v-533h-163v950h162v-124
q29 40 66 67.5t77.5 44.5t83.5 24.5t84 7.5q121 0 212 -50.5t139 -140.5q29 54 70 90.5t88 59t97.5 32t98.5 9.5zM960 -149q24 0 45.5 -9t37.5 -25t25 -37t9 -46q0 -24 -9 -45t-25 -36.5t-37.5 -24t-45.5 -8.5t-45 8.5t-36.5 24t-24.5 36.5t-9 45q0 25 9 46t24.5 37t36.5 25
t45 9z" />
    <glyph glyph-name="uni1E44" unicode="&#x1e44;" horiz-adv-x="1581" 
d="M1381 -1h-159l-846 1100l-1 -1099h-176v1401h159l847 -1100v1099h176v-1401zM827.646 1792.37q24.9229 0 47.249 -9.3457q22.3271 -9.34668 38.9424 -25.9619t25.9609 -38.4219q9.34668 -21.8076 9.34668 -47.7695q0 -24.9229 -9.34668 -46.7305
q-9.3457 -21.8066 -25.9609 -37.9033q-16.6152 -16.0957 -38.9424 -24.9229q-22.3262 -8.82617 -47.249 -8.82617t-46.7305 8.82617q-21.8076 8.82715 -37.9033 24.9229q-16.0967 16.0967 -25.4424 37.9033q-9.3457 21.8076 -9.3457 46.7305q0 25.9619 9.3457 47.7695
q9.3457 21.8066 25.4424 38.4219q16.0957 16.6152 37.9033 25.9619q21.8076 9.3457 46.7305 9.3457z" />
    <glyph glyph-name="uni1E45" unicode="&#x1e45;" horiz-adv-x="1205" 
d="M646 970q88 0 160.5 -27.5t125 -77t81.5 -120t29 -155.5v-590h-164v537q0 132 -68 205t-193 73q-57 0 -108.5 -19t-89.5 -55.5t-60.5 -89t-22.5 -118.5v-533h-163v950h162v-124q29 40 66 67.5t77.5 44.5t83.5 24.5t84 7.5zM618 1401q24 0 45.5 -9t37.5 -25t25 -37t9 -46
q0 -24 -9 -45t-25 -36.5t-37.5 -24t-45.5 -8.5t-45 8.5t-36.5 24t-24.5 36.5t-9 45q0 25 9 46t24.5 37t36.5 25t45 9z" />
    <glyph glyph-name="uni1E46" unicode="&#x1e46;" horiz-adv-x="1581" 
d="M1381 -1h-159l-846 1100l-1 -1099h-176v1401h159l847 -1100v1099h176v-1401zM783 -149q24 0 45.5 -9t37.5 -25t25 -37t9 -46q0 -24 -9 -45t-25 -36.5t-37.5 -24t-45.5 -8.5t-45 8.5t-36.5 24t-24.5 36.5t-9 45q0 25 9 46t24.5 37t36.5 25t45 9z" />
    <glyph glyph-name="uni1E47" unicode="&#x1e47;" horiz-adv-x="1205" 
d="M646 970q88 0 160.5 -27.5t125 -77t81.5 -120t29 -155.5v-590h-164v537q0 132 -68 205t-193 73q-57 0 -108.5 -19t-89.5 -55.5t-60.5 -89t-22.5 -118.5v-533h-163v950h162v-124q29 40 66 67.5t77.5 44.5t83.5 24.5t84 7.5zM607 -149q24 0 45.5 -9t37.5 -25t25 -37t9 -46
q0 -24 -9 -45t-25 -36.5t-37.5 -24t-45.5 -8.5t-45 8.5t-36.5 24t-24.5 36.5t-9 45q0 25 9 46t24.5 37t36.5 25t45 9z" />
    <glyph glyph-name="uni1E48" unicode="&#x1e48;" horiz-adv-x="1581" 
d="M1381 -1h-159l-846 1100l-1 -1099h-176v1401h159l847 -1100v1099h176v-1401zM483 -197h603v-133h-603v133z" />
    <glyph glyph-name="uni1E49" unicode="&#x1e49;" horiz-adv-x="1205" 
d="M646 970q88 0 160.5 -27.5t125 -77t81.5 -120t29 -155.5v-590h-164v537q0 132 -68 205t-193 73q-57 0 -108.5 -19t-89.5 -55.5t-60.5 -89t-22.5 -118.5v-533h-163v950h162v-124q29 40 66 67.5t77.5 44.5t83.5 24.5t84 7.5zM306 -197h603v-133h-603v133z" />
    <glyph glyph-name="uni1E58" unicode="&#x1e58;" horiz-adv-x="1357" 
d="M755 1400q238 0 364 -102.5t126 -294.5q0 -91 -34 -165t-98 -126t-154.5 -80t-202.5 -28h-11l493 -604h-218l-481 604h-164v-604h-176v1400h556zM375 1235v-471h376q155 0 233 60.5t78 178.5q0 117 -79 174.5t-232 57.5h-376zM697.84 1792.37q24.9229 0 47.25 -9.3457
q22.3262 -9.34668 38.9414 -25.9619t25.9609 -38.4219q9.34668 -21.8076 9.34668 -47.7695q0 -24.9229 -9.34668 -46.7305q-9.3457 -21.8066 -25.9609 -37.9033q-16.6152 -16.0957 -38.9414 -24.9229q-22.3271 -8.82617 -47.25 -8.82617t-46.7305 8.82617
q-21.8076 8.82715 -37.9033 24.9229q-16.0957 16.0967 -25.4424 37.9033q-9.3457 21.8076 -9.3457 46.7305q0 25.9619 9.3457 47.7695q9.34668 21.8066 25.4424 38.4219t37.9033 25.9619q21.8076 9.3457 46.7305 9.3457z" />
    <glyph glyph-name="uni1E59" unicode="&#x1e59;" horiz-adv-x="838" 
d="M612 970q51 0 93.5 -7t80.5 -24l-40 -161q-34 18 -78 27.5t-85 9.5q-54 0 -99.5 -20t-78.5 -57.5t-51 -90t-18 -118.5v-529h-163v950h161v-125q50 70 121.5 107.5t156.5 37.5zM478 1401q24 0 45.5 -9t37.5 -25t25 -37t9 -46q0 -24 -9 -45t-25 -36.5t-37.5 -24t-45.5 -8.5
t-45 8.5t-36.5 24t-24.5 36.5t-9 45q0 25 9 46t24.5 37t36.5 25t45 9z" />
    <glyph glyph-name="uni1E5A" unicode="&#x1e5a;" horiz-adv-x="1357" 
d="M755 1400q238 0 364 -102.5t126 -294.5q0 -91 -34 -165t-98 -126t-154.5 -80t-202.5 -28h-11l493 -604h-218l-481 604h-164v-604h-176v1400h556zM375 1235v-471h376q155 0 233 60.5t78 178.5q0 117 -79 174.5t-232 57.5h-376zM667 -149q24 0 45.5 -9t37.5 -25t25 -37
t9 -46q0 -24 -9 -45t-25 -36.5t-37.5 -24t-45.5 -8.5t-45 8.5t-36.5 24t-24.5 36.5t-9 45q0 25 9 46t24.5 37t36.5 25t45 9z" />
    <glyph glyph-name="uni1E5B" unicode="&#x1e5b;" horiz-adv-x="838" 
d="M612 970q51 0 93.5 -7t80.5 -24l-40 -161q-34 18 -78 27.5t-85 9.5q-54 0 -99.5 -20t-78.5 -57.5t-51 -90t-18 -118.5v-529h-163v950h161v-125q50 70 121.5 107.5t156.5 37.5zM256 -149q24 0 45.5 -9t37.5 -25t25 -37t9 -46q0 -24 -9 -45t-25 -36.5t-37.5 -24t-45.5 -8.5
t-45 8.5t-36.5 24t-24.5 36.5t-9 45q0 25 9 46t24.5 37t36.5 25t45 9z" />
    <glyph glyph-name="uni1E5C" unicode="&#x1e5c;" horiz-adv-x="1357" 
d="M755 1400q238 0 364 -102.5t126 -294.5q0 -91 -34 -165t-98 -126t-154.5 -80t-202.5 -28h-11l493 -604h-218l-481 604h-164v-604h-176v1400h556zM375 1235v-471h376q155 0 233 60.5t78 178.5q0 117 -79 174.5t-232 57.5h-376zM667 -149q24 0 45.5 -9t37.5 -25t25 -37
t9 -46q0 -24 -9 -45t-25 -36.5t-37.5 -24t-45.5 -8.5t-45 8.5t-36.5 24t-24.5 36.5t-9 45q0 25 9 46t24.5 37t36.5 25t45 9zM363 1720h603v-133h-603v133z" />
    <glyph glyph-name="uni1E5D" unicode="&#x1e5d;" horiz-adv-x="838" 
d="M612 970q51 0 93.5 -7t80.5 -24l-40 -161q-34 18 -78 27.5t-85 9.5q-54 0 -99.5 -20t-78.5 -57.5t-51 -90t-18 -118.5v-529h-163v950h161v-125q50 70 121.5 107.5t156.5 37.5zM178 1305h603v-133h-603v133zM256 -149q24 0 45.5 -9t37.5 -25t25 -37t9 -46q0 -24 -9 -45
t-25 -36.5t-37.5 -24t-45.5 -8.5t-45 8.5t-36.5 24t-24.5 36.5t-9 45q0 25 9 46t24.5 37t36.5 25t45 9z" />
    <glyph glyph-name="uni1E5E" unicode="&#x1e5e;" horiz-adv-x="1357" 
d="M755 1400q238 0 364 -102.5t126 -294.5q0 -91 -34 -165t-98 -126t-154.5 -80t-202.5 -28h-11l493 -604h-218l-481 604h-164v-604h-176v1400h556zM375 1235v-471h376q155 0 233 60.5t78 178.5q0 117 -79 174.5t-232 57.5h-376zM367 -197h603v-133h-603v133z" />
    <glyph glyph-name="uni1E5F" unicode="&#x1e5f;" horiz-adv-x="838" 
d="M612 970q51 0 93.5 -7t80.5 -24l-40 -161q-34 18 -78 27.5t-85 9.5q-54 0 -99.5 -20t-78.5 -57.5t-51 -90t-18 -118.5v-529h-163v950h161v-125q50 70 121.5 107.5t156.5 37.5zM-45 -197h603v-133h-603v133z" />
    <glyph glyph-name="uni1E62" unicode="&#x1e62;" horiz-adv-x="1347" 
d="M1113 1124q-86 58 -189.5 93.5t-225.5 35.5q-77 0 -141.5 -16.5t-111 -48t-72.5 -76.5t-26 -102q0 -96 79.5 -147t237.5 -71l123 -15q89 -11 169 -35.5t140 -68.5t95.5 -109.5t35.5 -158.5q0 -105 -44.5 -184.5t-120 -133t-176.5 -80.5t-215 -27q-75 0 -151.5 12.5
t-148.5 36t-136.5 57.5t-115.5 76l96 140q36 -32 87 -60t110.5 -49t125.5 -33.5t133 -12.5q78 0 146.5 15.5t118.5 46.5t79 76.5t29 104.5q0 97 -86 148t-249 71l-130 16q-87 10 -162.5 36.5t-131.5 71.5t-88.5 110.5t-32.5 155.5q0 101 42 179.5t115 132t170 81.5t208 28
q79 0 149 -11t132.5 -31.5t117.5 -48.5t105 -62zM694 -149q24 0 45.5 -9t37.5 -25t25 -37t9 -46q0 -24 -9 -45t-25 -36.5t-37.5 -24t-45.5 -8.5t-45 8.5t-36.5 24t-24.5 36.5t-9 45q0 25 9 46t24.5 37t36.5 25t45 9z" />
    <glyph glyph-name="uni1E63" unicode="&#x1e63;" horiz-adv-x="994" 
d="M813 739q-23 15 -56 31t-73 28.5t-85 20.5t-92 8q-98 0 -156 -38t-58 -103q0 -57 48.5 -85.5t135.5 -39.5l110 -14q76 -10 135.5 -31.5t100.5 -54.5t63 -78.5t22 -104.5q0 -68 -29.5 -123t-84 -94t-132.5 -60t-175 -21q-44 0 -94.5 6t-102.5 20t-104 37.5t-99 58.5
l76 122q27 -21 58.5 -39t71 -32t87.5 -22t108 -8q118 0 185 37t67 108q0 106 -191 130l-110 13q-161 20 -238.5 88.5t-77.5 177.5q0 68 27 122.5t77 92t120.5 57.5t157.5 20q113 0 211.5 -27.5t167.5 -75.5zM512 -149q24 0 45.5 -9t37.5 -25t25 -37t9 -46q0 -24 -9 -45
t-25 -36.5t-37.5 -24t-45.5 -8.5t-45 8.5t-36.5 24t-24.5 36.5t-9 45q0 25 9 46t24.5 37t36.5 25t45 9z" />
    <glyph glyph-name="uni1E6C" unicode="&#x1e6c;" horiz-adv-x="1211" 
d="M1171 1233h-477v-1233h-176v1233h-478v167h1131v-167zM605 -149q24 0 45.5 -9t37.5 -25t25 -37t9 -46q0 -24 -9 -45t-25 -36.5t-37.5 -24t-45.5 -8.5t-45 8.5t-36.5 24t-24.5 36.5t-9 45q0 25 9 46t24.5 37t36.5 25t45 9z" />
    <glyph glyph-name="uni1E6D" unicode="&#x1e6d;" horiz-adv-x="907" 
d="M818 801h-399v-463q0 -54 13.5 -92.5t37.5 -63.5t56.5 -37t71.5 -12q53 0 103 18t91 46l77 -123q-55 -40 -126 -67t-159 -27q-77 0 -138 21.5t-103.5 65.5t-65 110.5t-22.5 157.5v466h-203v149h203v298h164v-298h399v-149zM550 -149q24 0 45.5 -9t37.5 -25t25 -37t9 -46
q0 -24 -9 -45t-25 -36.5t-37.5 -24t-45.5 -8.5t-45 8.5t-36.5 24t-24.5 36.5t-9 45q0 25 9 46t24.5 37t36.5 25t45 9z" />
    <glyph glyph-name="uni1E6E" unicode="&#x1e6e;" horiz-adv-x="1211" 
d="M1171 1233h-477v-1233h-176v1233h-478v167h1131v-167zM305 -197h603v-133h-603v133z" />
    <glyph glyph-name="uni1E6F" unicode="&#x1e6f;" horiz-adv-x="907" 
d="M818 801h-399v-463q0 -54 13.5 -92.5t37.5 -63.5t56.5 -37t71.5 -12q53 0 103 18t91 46l77 -123q-55 -40 -126 -67t-159 -27q-77 0 -138 21.5t-103.5 65.5t-65 110.5t-22.5 157.5v466h-203v149h203v298h164v-298h399v-149zM249 -197h603v-133h-603v133z" />
    <glyph glyph-name="Wgrave" unicode="&#x1e80;" horiz-adv-x="2194" 
d="M1690 -1h-218l-375 1169l-375 -1169h-217l-449 1401h185l375 -1202l383 1203h200l384 -1203l374 1202h181zM818 1812h208l204 -300h-161z" />
    <glyph glyph-name="wgrave" unicode="&#x1e81;" horiz-adv-x="1699" 
d="M1215 171l270 779h171l-342 -950h-195l-272 773l-271 -773h-192l-342 950h175l269 -777l271 777h185zM559 1397h208l204 -300h-161z" />
    <glyph glyph-name="Wacute" unicode="&#x1e82;" horiz-adv-x="2194" 
d="M1690 -1h-218l-375 1169l-375 -1169h-217l-449 1401h185l375 -1202l383 1203h200l384 -1203l374 1202h181zM952 1512l205 300h207l-251 -300h-161z" />
    <glyph glyph-name="wacute" unicode="&#x1e83;" horiz-adv-x="1699" 
d="M1215 171l270 779h171l-342 -950h-195l-272 773l-271 -773h-192l-342 950h175l269 -777l271 777h185zM714 1097l205 300h207l-251 -300h-161z" />
    <glyph glyph-name="Wdieresis" unicode="&#x1e84;" horiz-adv-x="2194" 
d="M1690 -1h-218l-375 1169l-375 -1169h-217l-449 1401h185l375 -1202l383 1203h200l384 -1203l374 1202h181zM894 1771q24 0 45.5 -9t37 -24.5t24.5 -37t9 -45.5q0 -25 -9 -46t-24.5 -36.5t-37 -24t-45.5 -8.5t-45 8.5t-36.5 24t-24.5 36.5t-9 46q0 24 9 45.5t24.5 37
t36.5 24.5t45 9zM1299 1771q24 0 45.5 -9t37 -24.5t24.5 -37t9 -45.5q0 -25 -9 -46t-24.5 -36.5t-37 -24t-45.5 -8.5q-50 0 -82.5 32.5t-32.5 82.5q0 24 8.5 45.5t24 37t36.5 24.5t46 9z" />
    <glyph glyph-name="wdieresis" unicode="&#x1e85;" horiz-adv-x="1699" 
d="M1215 171l270 779h171l-342 -950h-195l-272 773l-271 -773h-192l-342 950h175l269 -777l271 777h185zM646 1356q24 0 45.5 -9t37 -24.5t24.5 -37t9 -45.5q0 -25 -9 -46t-24.5 -36.5t-37 -24t-45.5 -8.5t-45 8.5t-36.5 24t-24.5 36.5t-9 46q0 24 9 45.5t24.5 37t36.5 24.5
t45 9zM1051 1356q24 0 45.5 -9t37 -24.5t24.5 -37t9 -45.5q0 -25 -9 -46t-24.5 -36.5t-37 -24t-45.5 -8.5q-50 0 -82.5 32.5t-32.5 82.5q0 24 8.5 45.5t24 37t36.5 24.5t46 9z" />
    <glyph glyph-name="uni1E88" unicode="&#x1e88;" horiz-adv-x="2194" 
d="M1690 -1h-218l-375 1169l-375 -1169h-217l-449 1401h185l375 -1202l383 1203h200l384 -1203l374 1202h181zM1097 -149q24 0 45.5 -9t37.5 -25t25 -37t9 -46q0 -24 -9 -45t-25 -36.5t-37.5 -24t-45.5 -8.5t-45 8.5t-36.5 24t-24.5 36.5t-9 45q0 25 9 46t24.5 37t36.5 25
t45 9z" />
    <glyph glyph-name="uni1E89" unicode="&#x1e89;" horiz-adv-x="1699" 
d="M1215 171l270 779h171l-342 -950h-195l-272 773l-271 -773h-192l-342 950h175l269 -777l271 777h185zM848 -149q24 0 45.5 -9t37.5 -25t25 -37t9 -46q0 -24 -9 -45t-25 -36.5t-37.5 -24t-45.5 -8.5t-45 8.5t-36.5 24t-24.5 36.5t-9 45q0 25 9 46t24.5 37t36.5 25t45 9z
" />
    <glyph glyph-name="uni1E92" unicode="&#x1e92;" horiz-adv-x="1308" 
d="M1186 1264l-833 -1097h835v-167h-1069v136l833 1097h-825v167h1059v-136zM653 -149q24 0 45.5 -9t37.5 -25t25 -37t9 -46q0 -24 -9 -45t-25 -36.5t-37.5 -24t-45.5 -8.5t-45 8.5t-36.5 24t-24.5 36.5t-9 45q0 25 9 46t24.5 37t36.5 25t45 9z" />
    <glyph glyph-name="uni1E93" unicode="&#x1e93;" horiz-adv-x="1053" 
d="M923 831l-585 -683h594v-148h-811v119l592 682h-575v149h785v-119zM527 -149q24 0 45.5 -9t37.5 -25t25 -37t9 -46q0 -24 -9 -45t-25 -36.5t-37.5 -24t-45.5 -8.5t-45 8.5t-36.5 24t-24.5 36.5t-9 45q0 25 9 46t24.5 37t36.5 25t45 9z" />
    <glyph glyph-name="uni1E94" unicode="&#x1e94;" horiz-adv-x="1308" 
d="M1186 1264l-833 -1097h835v-167h-1069v136l833 1097h-825v167h1059v-136zM353 -197h603v-133h-603v133z" />
    <glyph glyph-name="uni1E95" unicode="&#x1e95;" horiz-adv-x="1053" 
d="M923 831l-585 -683h594v-148h-811v119l592 682h-575v149h785v-119zM226 -197h603v-133h-603v133z" />
    <glyph glyph-name="uni1E96" unicode="&#x1e96;" horiz-adv-x="1205" 
d="M336 827q29 40 65.5 67.5t77 44t83.5 24t84 7.5q88 0 160.5 -27.5t125 -77t81.5 -120t29 -155.5v-590h-164v537q0 132 -68 205t-193 73q-57 0 -108.5 -19t-89.5 -55.5t-60.5 -89t-22.5 -118.5v-533h-163v1440h163v-613zM306 -197h603v-133h-603v133z" />
    <glyph glyph-name="uni1E9E" unicode="&#x1e9e;" horiz-adv-x="1464" 
d="M695 754l355 394q-48 48 -124 75.5t-188 27.5q-89 0 -160 -24t-120 -68t-75 -106.5t-26 -139.5v-913h-177v923q0 102 35 192.5t105 158t175 107t246 39.5q102 0 184 -17t149 -49.5t120.5 -78t97.5 -102.5l-366 -399q89 -12 165.5 -43.5t132.5 -81.5t88 -117t32 -150
q0 -93 -41 -167.5t-110.5 -126.5t-163 -80t-198.5 -28q-99 0 -166 10.5t-124 28.5l43 167q46 -16 100 -26t120 -10q82 0 147.5 15.5t111.5 45t70.5 72.5t24.5 99q0 57 -25 102t-72 76t-114 47t-152 16h-100v131z" />
    <glyph glyph-name="Ygrave" unicode="&#x1ef2;" horiz-adv-x="1298" 
d="M739 582v-582h-176v584l-552 816h211l430 -655l430 655h205zM373 1812h208l204 -300h-161z" />
    <glyph glyph-name="ygrave" unicode="&#x1ef3;" horiz-adv-x="1064" 
d="M283 -405h-181l351 608l-433 747h183l342 -584l325 584h180zM247 1397h208l204 -300h-161z" />
    <glyph glyph-name="uni1EF4" unicode="&#x1ef4;" horiz-adv-x="1298" 
d="M739 582v-582h-176v584l-552 816h211l430 -655l430 655h205zM650 -149q24 0 45.5 -9t37.5 -25t25 -37t9 -46q0 -24 -9 -45t-25 -36.5t-37.5 -24t-45.5 -8.5t-45 8.5t-36.5 24t-24.5 36.5t-9 45q0 25 9 46t24.5 37t36.5 25t45 9z" />
    <glyph glyph-name="uni1EF5" unicode="&#x1ef5;" horiz-adv-x="1064" 
d="M283 -405h-181l351 608l-433 747h183l342 -584l325 584h180zM774 -149q24 0 45.5 -9t37.5 -25t25 -37t9 -46q0 -24 -9 -45t-25 -36.5t-37.5 -24t-45.5 -8.5t-45 8.5t-36.5 24t-24.5 36.5t-9 45q0 25 9 46t24.5 37t36.5 25t45 9z" />
    <glyph glyph-name="uni2007" unicode="&#x2007;" 
 />
    <glyph glyph-name="uni2008" unicode="&#x2008;" horiz-adv-x="525" 
 />
    <glyph glyph-name="uni2009" unicode="&#x2009;" horiz-adv-x="178" 
 />
    <glyph glyph-name="uni200B" unicode="&#x200b;" horiz-adv-x="0" 
 />
    <glyph glyph-name="uniFEFF" unicode="&#xfeff;" horiz-adv-x="0" 
 />
    <glyph glyph-name="uni2010" unicode="&#x2010;" horiz-adv-x="841" 
d="M702 456h-562v148h562v-148z" />
    <glyph glyph-name="uni2011" unicode="&#x2011;" horiz-adv-x="841" 
d="M702 456h-562v148h562v-148z" />
    <glyph glyph-name="figuredash" unicode="&#x2012;" 
d="M1075 456h-950v148h950v-148z" />
    <glyph glyph-name="endash" unicode="&#x2013;" horiz-adv-x="1189" 
d="M1070 456h-950v148h950v-148z" />
    <glyph glyph-name="emdash" unicode="&#x2014;" horiz-adv-x="1620" 
d="M1560 456h-1500v148h1500v-148z" />
    <glyph glyph-name="quoteleft" unicode="&#x2018;" horiz-adv-x="497" 
d="M127 925l108 515h141l-58 -515h-191z" />
    <glyph glyph-name="quoteright" unicode="&#x2019;" horiz-adv-x="497" 
d="M370 1440l-108 -515h-141l58 515h191z" />
    <glyph glyph-name="quotesinglbase" unicode="&#x201a;" horiz-adv-x="497" 
d="M370 253l-108 -515h-141l58 515h191z" />
    <glyph glyph-name="quotedblleft" unicode="&#x201c;" horiz-adv-x="860" 
d="M127 925l108 515h141l-58 -515h-191zM490 925l108 515h141l-58 -515h-191z" />
    <glyph glyph-name="quotedblright" unicode="&#x201d;" horiz-adv-x="860" 
d="M733 1440l-108 -515h-141l58 515h191zM370 1440l-108 -515h-141l58 515h191z" />
    <glyph glyph-name="quotedblbase" unicode="&#x201e;" horiz-adv-x="860" 
d="M733 253l-108 -515h-141l58 515h191zM370 253l-108 -515h-141l58 515h191z" />
    <glyph glyph-name="dagger" unicode="&#x2020;" horiz-adv-x="753" 
d="M308 662v437h-208v132h208v209h136v-209h209v-132h-209v-437h-136z" />
    <glyph glyph-name="daggerdbl" unicode="&#x2021;" horiz-adv-x="753" 
d="M444 1262h209v-132h-209v-157h209v-133h-209v-178h-136v178h-208v133h208v157h-208v132h208v178h136v-178z" />
    <glyph glyph-name="bullet" unicode="&#x2022;" horiz-adv-x="860" 
d="M431 771q49 0 93 -19t77 -51.5t52 -76.5t19 -94t-19 -94t-52 -76.5t-77 -51.5t-93 -19q-51 0 -95 19t-76.5 51.5t-51.5 76.5t-19 94t19 94t51.5 76.5t76.5 51.5t95 19z" />
    <glyph glyph-name="uni2023" unicode="&#x2023;" horiz-adv-x="1024" 
d="M249 165v730l630 -365z" />
    <glyph glyph-name="ellipsis" unicode="&#x2026;" horiz-adv-x="1524" 
d="M263 255q27 0 52 -11t43.5 -30t29.5 -43.5t11 -52.5q0 -27 -11 -52t-29.5 -44t-43.5 -30.5t-52 -11.5t-52 11.5t-44 30.5t-30 44t-11 52q0 28 11 52.5t30 43.5t44 30t52 11zM762 255q27 0 52 -11t44 -30t30 -43.5t11 -52.5q0 -27 -11 -52t-30 -44t-44 -30.5t-52 -11.5
t-52 11.5t-44 30.5t-30 44t-11 52q0 28 11 52.5t30 43.5t44 30t52 11zM1261 255q27 0 52 -11t44 -30t30 -43.5t11 -52.5q0 -27 -11 -52t-30 -44t-44 -30.5t-52 -11.5t-52 11.5t-44 30.5t-30 44t-11 52q0 28 11 52.5t30 43.5t44 30t52 11z" />
    <glyph glyph-name="perthousand" unicode="&#x2030;" horiz-adv-x="2792" 
d="M467 1420q80 0 148.5 -28t119 -77t79 -116t28.5 -145q0 -79 -28.5 -146t-79 -116t-119 -77t-148.5 -28q-79 0 -147 28t-117.5 77t-78 116t-28.5 146q0 78 28.5 145t78 116t117.5 77t147 28zM467 1276q-46 0 -85.5 -16.5t-69 -46t-46 -70t-16.5 -89.5t16.5 -89.5t46 -70
t69 -46t85.5 -16.5q48 0 88.5 16.5t70 46t46 70t16.5 89.5t-16.5 89.5t-46 70t-70 46t-88.5 16.5zM619 0h-171l883 1400h171zM1480 713q80 0 148.5 -28.5t118.5 -78t78.5 -116.5t28.5 -144q0 -78 -28.5 -145t-78.5 -116t-118.5 -77t-148.5 -28t-147.5 28t-117.5 77t-78 116
t-28 145t28 145.5t78 116.5t117.5 77t147.5 28zM1480 568q-47 0 -86.5 -16.5t-68.5 -46t-45.5 -70t-16.5 -89.5t16.5 -89.5t45.5 -70t68.5 -46t86.5 -16.5q48 0 88 16.5t69.5 46t46 70t16.5 89.5t-16.5 89.5t-46 70t-69.5 46t-88 16.5zM2321 713q80 0 148.5 -28t119 -77
t79 -116.5t28.5 -145.5t-28.5 -145t-79 -116t-119 -77t-148.5 -28q-79 0 -147 28t-117.5 77t-78 116t-28.5 145t28.5 145.5t78 116.5t117.5 77t147 28zM2321 568q-46 0 -85.5 -16.5t-69 -46t-46 -70t-16.5 -89.5t16.5 -89.5t46 -70t69 -46t85.5 -16.5q48 0 88.5 16.5t70 46
t46 70t16.5 89.5t-16.5 89.5t-46 70t-70 46t-88.5 16.5z" />
    <glyph glyph-name="minute" unicode="&#x2032;" horiz-adv-x="540" 
d="M413 1400l-136 -638h-156l135 638h157z" />
    <glyph glyph-name="second" unicode="&#x2033;" horiz-adv-x="859" 
d="M732 1400l-136 -638h-156l135 638h157zM413 1400l-136 -638h-156l135 638h157z" />
    <glyph glyph-name="uni2034" unicode="&#x2034;" horiz-adv-x="1134" 
d="M710 1400l-136 -638h-156l135 638h157zM1007 1400l-136 -638h-156l135 638h157zM413 1400l-136 -638h-156l135 638h157z" />
    <glyph glyph-name="guilsinglleft" unicode="&#x2039;" horiz-adv-x="628" 
d="M488 158h-176l-191 372l191 372h176l-191 -372z" />
    <glyph glyph-name="guilsinglright" unicode="&#x203a;" horiz-adv-x="628" 
d="M140 902h176l191 -372l-191 -372h-176l191 372z" />
    <glyph glyph-name="fraction" unicode="&#x2044;" horiz-adv-x="442" 
d="M-139 0h-163l883 1400h163z" />
    <glyph glyph-name="uni2070" unicode="&#x2070;" horiz-adv-x="880" 
d="M440 1411q71 0 133 -27.5t108.5 -80t73 -128t26.5 -170.5q0 -96 -26.5 -171t-73 -127.5t-108.5 -80t-133 -27.5t-133 27.5t-108.5 80t-73.5 127.5t-27 171q0 95 27 170.5t73.5 128t108.5 80t133 27.5zM440 1282q-42 0 -78.5 -18t-64 -53.5t-43 -87t-15.5 -118.5
t15.5 -118.5t43 -87t64 -53.5t78.5 -18t78.5 18t64 53.5t43 87t15.5 118.5t-15.5 118.5t-43 87t-64 53.5t-78.5 18z" />
    <glyph glyph-name="uni2071" unicode="&#x2071;" horiz-adv-x="379" 
d="M257 610h-135v665h135v-665zM189 1588q38 0 64 -25.5t26 -63.5q0 -19 -7 -35.5t-19 -28.5t-28.5 -18.5t-35.5 -6.5q-38 0 -63.5 25.5t-25.5 63.5t25.5 63.5t63.5 25.5z" />
    <glyph glyph-name="uni2074" unicode="&#x2074;" horiz-adv-x="698" 
d="M540 884h119v-124h-119v-150h-135v150h-366v97l278 542h149l-267 -515h206v217h135v-217z" />
    <glyph glyph-name="uni2075" unicode="&#x2075;" horiz-adv-x="721" 
d="M590 1275h-335l-5 -179h91q72 0 126.5 -17.5t91.5 -49t55.5 -74.5t18.5 -94q0 -62 -22 -110.5t-61 -82.5t-92 -52t-115 -18q-88 0 -159 30t-120 84l80 90q35 -35 88 -57.5t110 -22.5q73 0 112 36t39 93q0 26 -9.5 48.5t-31 39.5t-56 26.5t-83.5 9.5h-186l11 424h452v-124
z" />
    <glyph glyph-name="uni2076" unicode="&#x2076;" horiz-adv-x="719" 
d="M319 1118q25 6 57 6q63 0 114 -20t88 -55t57 -82.5t20 -102.5q0 -57 -22.5 -106t-62.5 -84t-94.5 -55t-118.5 -20t-118.5 19.5t-94.5 54.5t-62.5 83t-22.5 105q0 51 18 99t50 97l226 342h163zM357 1009q-34 0 -62.5 -11t-49.5 -30t-33 -46t-12 -58q0 -32 12 -58.5t33 -46
t49.5 -30.5t62.5 -11t62.5 10.5t49.5 30t33 46.5t12 59q0 31 -12 58t-33 46t-49.5 30t-62.5 11z" />
    <glyph glyph-name="uni2077" unicode="&#x2077;" horiz-adv-x="670" 
d="M621 1294l-339 -684h-160l339 663h-402v126h562v-105z" />
    <glyph glyph-name="uni2078" unicode="&#x2078;" horiz-adv-x="785" 
d="M391 1411q60 0 112.5 -15t91.5 -43t62 -69t23 -93q0 -35 -10 -63.5t-28 -51t-42 -39t-52 -28.5q32 -11 59.5 -27.5t48 -39.5t32.5 -53t12 -67q0 -53 -24.5 -95t-66.5 -70.5t-98 -43.5t-120 -15t-120 15t-98 43.5t-66 70.5t-24 95q0 37 12 66.5t32 52.5t47.5 40t59.5 28
q-28 11 -52 27.5t-42 39t-28 51.5t-10 64q0 52 23 93t62 69t91.5 43t112.5 15zM391 955q-33 0 -62.5 -8t-51.5 -23t-35 -37t-13 -51q0 -30 13 -53t35 -38t51.5 -23t62.5 -8t62.5 8t52 23t35.5 38t13 53q0 29 -13 51t-35.5 37t-52 23t-62.5 8zM391 1293q-30 0 -56 -7.5
t-46 -22t-31.5 -36t-11.5 -49.5t11.5 -49t31.5 -35.5t46 -21.5t56 -7t56.5 7t46 21.5t31 35.5t11.5 49t-11.5 49.5t-31 36t-46 22t-56.5 7.5z" />
    <glyph glyph-name="uni2079" unicode="&#x2079;" horiz-adv-x="719" 
d="M398 891q-12 -2 -26 -3.5t-29 -1.5q-63 0 -114 20t-88 55t-57 82.5t-20 101.5q0 57 22.5 106t62.5 84.5t94.5 55.5t118.5 20t118.5 -20t94.5 -55t62.5 -83t22.5 -105q0 -51 -18.5 -98t-50.5 -97l-225 -343h-163zM362 1000q34 0 62.5 11t49.5 30.5t32.5 46t11.5 58.5
t-11.5 58.5t-32.5 46t-49.5 30.5t-62.5 11t-62.5 -11t-49.5 -30.5t-33 -46t-12 -58.5t12 -58.5t33 -46t49.5 -30.5t62.5 -11z" />
    <glyph glyph-name="uni207F" unicode="&#x207f;" horiz-adv-x="851" 
d="M469 1290q59 0 108 -19t84.5 -53.5t55 -83t19.5 -108.5v-416h-135v373q0 85 -43.5 132t-124.5 47q-36 0 -68 -12.5t-56 -35.5t-38 -56.5t-14 -76.5v-371h-136v665h133v-100q37 63 94.5 89t120.5 26z" />
    <glyph glyph-name="uni2080" unicode="&#x2080;" horiz-adv-x="880" 
d="M440 426q71 0 133 -27.5t108.5 -80t73 -128t26.5 -170.5q0 -96 -26.5 -171t-73 -127.5t-108.5 -80t-133 -27.5t-133 27.5t-108.5 80t-73.5 127.5t-27 171q0 95 27 170.5t73.5 128t108.5 80t133 27.5zM440 297q-42 0 -78.5 -18t-64 -53.5t-43 -87t-15.5 -118.5
t15.5 -118.5t43 -87t64 -53.5t78.5 -18t78.5 18t64 53.5t43 87t15.5 118.5t-15.5 118.5t-43 87t-64 53.5t-78.5 18z" />
    <glyph glyph-name="uni2081" unicode="&#x2081;" horiz-adv-x="554" 
d="M396 -375h-136v612l-211 -84v134l347 138v-800z" />
    <glyph glyph-name="uni2082" unicode="&#x2082;" horiz-adv-x="690" 
d="M64 291q16 22 40 46t57 43.5t75.5 32.5t96.5 13q62 0 111 -18.5t83.5 -51.5t53 -78.5t18.5 -100.5q0 -71 -32 -126t-85 -107l-193 -193h333v-126h-526v106l291 290q33 32 52.5 68t19.5 78q0 28 -10 51.5t-28 41t-43.5 27.5t-56.5 10q-30 0 -54.5 -7.5t-45 -20
t-37.5 -28.5t-32 -34z" />
    <glyph glyph-name="uni2083" unicode="&#x2083;" horiz-adv-x="695" 
d="M313 426q62 0 114 -16t89 -44.5t57.5 -69.5t20.5 -90q0 -66 -34.5 -112.5t-93.5 -70.5q66 -23 105.5 -70t39.5 -113q0 -57 -24.5 -99.5t-65 -70.5t-93.5 -42t-109 -14q-88 0 -156 28t-114 80l79 89q35 -36 83 -56t102 -20q32 0 60.5 7t50 21.5t34 36t12.5 51.5
q0 27 -13.5 48t-36 35t-53 21.5t-64.5 7.5h-99v120h100q31 0 58.5 7t48 21.5t32 35.5t11.5 48q0 51 -41.5 80t-105.5 29q-59 0 -101.5 -24t-70.5 -58l-82 87q42 51 105 84t155 33z" />
    <glyph glyph-name="uni2084" unicode="&#x2084;" horiz-adv-x="698" 
d="M540 -101h119v-124h-119v-150h-135v150h-366v97l278 542h149l-267 -515h206v217h135v-217z" />
    <glyph glyph-name="uni2085" unicode="&#x2085;" horiz-adv-x="721" 
d="M590 290h-335l-5 -179h91q72 0 126.5 -17.5t91.5 -49t55.5 -74.5t18.5 -94q0 -62 -22 -110.5t-61 -82.5t-92 -52t-115 -18q-88 0 -159 30t-120 84l80 90q35 -35 88 -57.5t110 -22.5q73 0 112 36t39 93q0 26 -9.5 48.5t-31 39.5t-56 26.5t-83.5 9.5h-186l11 424h452v-124z
" />
    <glyph glyph-name="uni2086" unicode="&#x2086;" horiz-adv-x="719" 
d="M319 133q25 6 57 6q63 0 114 -20t88 -55t57 -82.5t20 -102.5q0 -57 -22.5 -106t-62.5 -84t-94.5 -55t-118.5 -20t-118.5 19.5t-94.5 54.5t-62.5 83t-22.5 105q0 51 18 99t50 97l226 342h163zM357 24q-34 0 -62.5 -11t-49.5 -30t-33 -46t-12 -58q0 -32 12 -58.5t33 -46
t49.5 -30.5t62.5 -11t62.5 10.5t49.5 30t33 46.5t12 59q0 31 -12 58t-33 46t-49.5 30t-62.5 11z" />
    <glyph glyph-name="uni2087" unicode="&#x2087;" horiz-adv-x="670" 
d="M621 309l-339 -684h-160l339 663h-402v126h562v-105z" />
    <glyph glyph-name="uni2088" unicode="&#x2088;" horiz-adv-x="785" 
d="M391 426q60 0 112.5 -15t91.5 -43t62 -69t23 -93q0 -35 -10 -63.5t-28 -51t-42 -39t-52 -28.5q32 -11 59.5 -27.5t48 -39.5t32.5 -53t12 -67q0 -53 -24.5 -95t-66.5 -70.5t-98 -43.5t-120 -15t-120 15t-98 43.5t-66 70.5t-24 95q0 37 12 66.5t32 52.5t47.5 40t59.5 28
q-28 11 -52 27.5t-42 39t-28 51.5t-10 64q0 52 23 93t62 69t91.5 43t112.5 15zM391 -30q-33 0 -62.5 -8t-51.5 -23t-35 -37t-13 -51q0 -30 13 -53t35 -38t51.5 -23t62.5 -8t62.5 8t52 23t35.5 38t13 53q0 29 -13 51t-35.5 37t-52 23t-62.5 8zM391 308q-30 0 -56 -7.5
t-46 -22t-31.5 -36t-11.5 -49.5t11.5 -49t31.5 -35.5t46 -21.5t56 -7t56.5 7t46 21.5t31 35.5t11.5 49t-11.5 49.5t-31 36t-46 22t-56.5 7.5z" />
    <glyph glyph-name="uni2089" unicode="&#x2089;" horiz-adv-x="719" 
d="M398 -94q-12 -2 -26 -3.5t-29 -1.5q-63 0 -114 20t-88 55t-57 82.5t-20 101.5q0 57 22.5 106t62.5 84.5t94.5 55.5t118.5 20t118.5 -20t94.5 -55t62.5 -83t22.5 -105q0 -51 -18.5 -98t-50.5 -97l-225 -343h-163zM362 15q34 0 62.5 11t49.5 30.5t32.5 46t11.5 58.5
t-11.5 58.5t-32.5 46t-49.5 30.5t-62.5 11t-62.5 -11t-49.5 -30.5t-33 -46t-12 -58.5t12 -58.5t33 -46t49.5 -30.5t62.5 -11z" />
    <glyph glyph-name="Euro" unicode="&#x20ac;" horiz-adv-x="1400" 
d="M1043 471h-612q22 -78 61 -140t92 -105t119.5 -66t145.5 -23q62 0 115.5 14.5t98.5 40t82.5 61.5t67.5 79l108 -113q-80 -111 -197.5 -175t-274.5 -64q-116 0 -213.5 34.5t-173.5 98t-129 154.5t-80 204h-177v136h156q-2 23 -3 46t-1 47q0 23 1 46.5t3 46.5h-156v136h177
q27 112 80 203t129 155t173.5 98.5t213.5 34.5q157 0 276.5 -63t199.5 -170l-113 -119q-30 43 -67.5 79t-82.5 61.5t-98.5 40t-115.5 14.5q-79 0 -146 -23t-119.5 -66.5t-91 -105t-60.5 -139.5h612v-136h-638q-2 -23 -3 -46t-1 -47t1 -47t3 -46h638v-136z" />
    <glyph glyph-name="uni20BA" unicode="&#x20ba;" horiz-adv-x="1400" 
d="M1002 666l-498 -230v-274h223q67 0 125.5 15t109.5 48.5t96.5 86.5t86.5 129l145 -81q-54 -98 -114.5 -166t-131 -111.5t-152 -63t-178.5 -19.5h-379v358l-193 -89v144l193 89v183l-193 -89v145l193 89v570h169v-492l498 231v-145l-498 -231v-183l498 230v-144z" />
    <glyph glyph-name="uni2100" unicode="&#x2100;" horiz-adv-x="1931" 
d="M497 1421q68 0 123 -17.5t93.5 -53t59.5 -88.5t21 -124v-397h-132v84q-38 -42 -95.5 -70.5t-132.5 -28.5q-55 0 -98.5 15.5t-74 43t-46.5 66t-16 84.5q0 91 72.5 144.5t202.5 53.5h185q-2 85 -47.5 126.5t-130.5 41.5q-61 0 -109.5 -21t-84.5 -49l-53 104
q53 41 118.5 63.5t144.5 22.5zM465 838q57 0 108.5 26.5t87.5 70.5v104h-168q-41 0 -70 -8t-47 -22t-26.5 -32.5t-8.5 -38.5q0 -40 31 -70t93 -30zM651 0h-163l883 1400h163zM1475 674q79 0 145 -30t112 -86l-96 -84q-34 35 -74 54.5t-90 19.5q-44 0 -82 -16.5t-65.5 -45.5
t-43.5 -69.5t-16 -89.5t15.5 -89.5t43.5 -70t65.5 -45.5t81.5 -16q50 0 93 20.5t75 53.5l93 -85q-47 -55 -112.5 -85.5t-144.5 -30.5q-78 0 -142 26.5t-110 73t-71.5 110t-25.5 138.5t25.5 138.5t71.5 110t110 72.5t142 26z" />
    <glyph glyph-name="uni2101" unicode="&#x2101;" horiz-adv-x="1931" 
d="M502 1421q68 0 123 -17.5t93.5 -53t59.5 -88.5t21 -124v-397h-132v84q-38 -42 -95.5 -70.5t-132.5 -28.5q-55 0 -98.5 15.5t-74 43t-46.5 66t-16 84.5q0 91 72.5 144.5t202.5 53.5h185q-2 85 -47.5 126.5t-130.5 41.5q-61 0 -109.5 -21t-84.5 -49l-53 104
q53 41 118.5 63.5t144.5 22.5zM470 838q57 0 108.5 26.5t87.5 70.5v104h-168q-41 0 -70 -8t-47 -22t-26.5 -32.5t-8.5 -38.5q0 -40 31 -70t93 -30zM656 0h-163l883 1400h163zM1654 500q-38 22 -96.5 41t-121.5 19t-99 -23.5t-36 -64.5q0 -36 33.5 -53.5t93.5 -25.5l71 -9
q106 -14 163.5 -61t57.5 -129q0 -50 -20.5 -89.5t-59 -67t-93.5 -42.5t-124 -15q-35 0 -72.5 4t-74.5 14t-72.5 25t-66.5 38l56 102q42 -29 96.5 -49t135.5 -20q75 0 116.5 22.5t41.5 67.5q0 34 -31.5 54.5t-99.5 28.5l-66 8q-115 14 -170 63t-55 128q0 49 19 87.5
t54.5 65.5t86 41t112.5 14q79 0 145.5 -18.5t124.5 -50.5z" />
    <glyph glyph-name="afii61248" unicode="&#x2105;" horiz-adv-x="1931" 
d="M509 1421q79 0 145 -30t112 -86l-96 -84q-34 35 -74 54.5t-90 19.5q-44 0 -82 -16.5t-65.5 -45.5t-43.5 -69.5t-16 -89.5t15.5 -89.5t43.5 -70t65.5 -45.5t81.5 -16q50 0 93 20.5t75 53.5l93 -85q-47 -55 -112.5 -85.5t-144.5 -30.5q-78 0 -142 26.5t-110 73t-71.5 110
t-25.5 138.5t25.5 138.5t71.5 110t110 72.5t142 26zM596 0h-163l883 1400h163zM1418 674q76 0 141 -26.5t112 -73t74 -110t27 -137.5t-27 -138t-74 -110.5t-112 -73t-141 -26.5t-140.5 26.5t-112 73t-74 110.5t-26.5 138t26.5 137.5t74 110t112 73t140.5 26.5zM1418 548
q-46 0 -85 -16.5t-67.5 -46t-45 -70t-16.5 -88.5t16.5 -89t45 -70t67.5 -45.5t85 -16.5t85.5 16.5t68.5 45.5t45.5 70t16.5 89t-16.5 88.5t-45.5 70t-68.5 46t-85.5 16.5z" />
    <glyph glyph-name="uni2106" unicode="&#x2106;" horiz-adv-x="1931" 
d="M506 1421q79 0 145 -30t112 -86l-96 -84q-34 35 -74 54.5t-90 19.5q-44 0 -82 -16.5t-65.5 -45.5t-43.5 -69.5t-16 -89.5t15.5 -89.5t43.5 -70t65.5 -45.5t81.5 -16q50 0 93 20.5t75 53.5l93 -85q-47 -55 -112.5 -85.5t-144.5 -30.5q-78 0 -142 26.5t-110 73t-71.5 110
t-25.5 138.5t25.5 138.5t71.5 110t110 72.5t142 26zM592 0h-163l883 1400h163zM1774 274q0 -75 -25 -130.5t-67 -92t-97.5 -54.5t-117.5 -18t-118 18t-98 54.5t-67 92t-25 130.5v385h136v-373q0 -46 13 -79.5t35.5 -56t54 -33.5t69.5 -11q37 0 69 11t54.5 33.5t35.5 56
t13 79.5v373h135v-385z" />
    <glyph glyph-name="afii61289" unicode="&#x2113;" horiz-adv-x="1068" 
d="M136 515q42 17 82.5 35.5t78.5 38.5l1 495q0 81 22.5 149.5t63.5 119t99 79t131 28.5q67 0 123 -23t96 -64.5t62 -98.5t22 -125q0 -99 -34.5 -189t-96 -170.5t-145 -151t-180.5 -130.5v-171q0 -54 13 -92.5t36 -63.5t54.5 -36.5t69.5 -11.5q54 0 105.5 20t93.5 50
l66 -130q-54 -40 -123 -67t-156 -27q-152 0 -237.5 86.5t-85.5 268.5v85q-25 -11 -49.5 -22t-50.5 -22zM461 690q66 48 119.5 102t91 111.5t58 119t20.5 126.5q0 74 -36 116t-100 42q-33 0 -61 -15t-48 -43.5t-31.5 -70t-11.5 -94.5z" />
    <glyph glyph-name="afii61352" unicode="&#x2116;" horiz-adv-x="2440" 
d="M2347 432h-669v149h669v-149zM2012 1415q76 0 140.5 -26.5t111.5 -73t73.5 -109.5t26.5 -137t-26.5 -137t-73.5 -109.5t-111.5 -73t-140.5 -26.5q-75 0 -139.5 26.5t-111.5 73t-73.5 109.5t-26.5 137t26.5 137t73.5 109.5t111.5 73t139.5 26.5zM2012 1290
q-46 0 -85 -16.5t-68 -45.5t-45.5 -70t-16.5 -89t16.5 -89t45.5 -70t68 -45.5t85 -16.5t85.5 16.5t69 45.5t46 70t16.5 89t-16.5 89t-46 70t-69 45.5t-85.5 16.5zM1381 -1h-159l-846 1100l-1 -1099h-176v1401h159l847 -1100v1099h176v-1401z" />
    <glyph glyph-name="uni2117" unicode="&#x2117;" horiz-adv-x="1907" 
d="M954 1512q112 0 215.5 -29t193 -81t163.5 -125.5t126.5 -163t81.5 -192t29 -213.5t-29 -213.5t-81.5 -192t-126.5 -163t-163.5 -125.5t-193 -81t-215.5 -29t-215.5 29t-193.5 81t-164 125.5t-126.5 163t-81.5 192t-29 213.5t29 213.5t81.5 192t126.5 163t164 125.5
t193.5 81t215.5 29zM954 1367q-91 0 -175.5 -23.5t-158 -66.5t-133.5 -103t-103 -133t-66.5 -157.5t-23.5 -175.5q0 -137 52 -257t141.5 -209.5t209.5 -141.5t257 -52q91 0 175.5 23.5t157.5 66.5t133.5 103t103.5 133.5t66.5 158t23.5 175.5t-23.5 175.5t-66.5 157.5
t-103.5 133t-133.5 103t-157.5 66.5t-175.5 23.5zM1016 1126q81 0 144 -18.5t106 -53.5t65.5 -84.5t22.5 -110.5q0 -60 -22.5 -109t-65 -83t-105.5 -52.5t-144 -18.5h-208v-319h-146v849h353zM809 993v-267h204q93 0 142 34t49 99q0 66 -49 100t-142 34h-204z" />
    <glyph glyph-name="uni2120" unicode="&#x2120;" horiz-adv-x="1519" 
d="M568 1254q-36 19 -83 34.5t-105 15.5t-96.5 -19t-38.5 -56q0 -35 38.5 -50t102.5 -22l44 -5q46 -5 84.5 -17t66.5 -32.5t43 -49t15 -64.5q0 -52 -22.5 -89.5t-60 -62t-86.5 -36t-103 -11.5q-75 0 -146 18.5t-121 51.5l58 96q35 -23 89.5 -41t120.5 -18q30 0 56 4.5
t45.5 14t30.5 23.5t11 34q0 35 -36 49.5t-107 22.5l-48 5q-95 10 -149.5 51.5t-54.5 116.5q0 45 20 80.5t55 60t82.5 38t103.5 13.5q79 0 136 -16t108 -43zM1321 802v442l-160 -381h-124l-160 381v-442h-118v598h168l173 -404l171 404h168v-598h-118z" />
    <glyph glyph-name="trademark" unicode="&#x2122;" horiz-adv-x="1469" 
d="M1271 802v443l-160 -382h-123l-161 381v-442h-117v598h167l173 -404l171 404h168v-598h-118zM277 802v490h-197v108h513v-108h-198v-490h-118z" />
    <glyph glyph-name="Omega" unicode="&#x2126;" horiz-adv-x="1720" 
d="M405 167q-62 43 -112 99.5t-85 123.5t-54 144.5t-19 162.5q0 158 54 291t151 229t229.5 150t290.5 54q157 0 290 -54t230 -150t151 -229t54 -291q0 -85 -19 -162.5t-54 -144.5t-84.5 -123.5t-111.5 -99.5h324v-167h-607v143q82 26 149.5 76t116 120.5t75.5 158.5t27 191
q0 126 -41 229.5t-114 177.5t-172 115t-214 41q-116 0 -214.5 -41t-171.5 -115t-114 -177.5t-41 -229.5q0 -103 27 -191t75.5 -158.5t116.5 -120.5t149 -76v-143h-607v167h325z" />
    <glyph glyph-name="estimated" unicode="&#x212e;" horiz-adv-x="2000" 
d="M457 328q0 -38 5 -70.5t17 -61.5t32.5 -54.5t51.5 -47.5q92 -66 202.5 -101t234.5 -35q96 0 185.5 21.5t168 62t144.5 99.5t115 133l51 -39q-54 -80 -125.5 -143.5t-157 -107t-182 -66.5t-199.5 -23q-165 0 -310 58t-254 163.5t-172 254t-63 329.5t63 329.5t172 254
t254 163.5t310 58t310 -58t254 -163.5t172 -254t63 -329.5v-32h-1342v-340zM1554 732v330q0 75 -21.5 132t-80.5 102q-94 72 -209 109t-243 37q-124 0 -234.5 -35t-202.5 -101q-31 -22 -51.5 -47.5t-32.5 -54.5t-17 -62t-5 -70v-340h1097z" />
    <glyph glyph-name="uni214D" unicode="&#x214d;" horiz-adv-x="1931" 
d="M856 672h-144l-60 165h-314l-59 -165h-142l279 728h161zM1714 553q-40 24 -94 43.5t-123 19.5q-33 0 -60.5 -6.5t-48 -18.5t-32 -29.5t-11.5 -39.5q0 -42 45 -61t120 -29l51 -7q108 -15 170.5 -62.5t62.5 -135.5q0 -63 -25.5 -108t-68.5 -74t-98.5 -42.5t-115.5 -13.5
q-89 0 -168.5 23t-136.5 62l65 111q21 -13 46.5 -26t55.5 -23.5t65 -17t74 -6.5q34 0 63.5 5.5t51 17.5t34 30t12.5 43q0 44 -41 63t-121 28l-53 6q-115 13 -174.5 63.5t-59.5 141.5q0 52 22 94.5t61 72.5t92.5 46t116.5 16q47 0 86 -5.5t73 -15t63.5 -23t58.5 -29.5z
M383 961h225l-113 311zM681 0h-163l883 1400h163z" />
    <glyph glyph-name="uni2150" unicode="&#x2150;" horiz-adv-x="1719" 
d="M440 0h-163l883 1400h163zM1670 684l-339 -684h-160l339 663h-402v126h562v-105zM396 610h-136v612l-211 -84v134l347 138v-800z" />
    <glyph glyph-name="uni2151" unicode="&#x2151;" horiz-adv-x="1739" 
d="M440 0h-163l883 1400h163zM1419 281q-12 -2 -26 -3.5t-29 -1.5q-63 0 -114 20t-88 55t-57 82.5t-20 101.5q0 57 22.5 106t62.5 84.5t94.5 55.5t118.5 20t118.5 -20t94.5 -55t62.5 -83t22.5 -105q0 -51 -18.5 -98t-50.5 -97l-225 -343h-163zM1383 390q34 0 62.5 11
t49.5 30.5t32.5 46t11.5 58.5t-11.5 58.5t-32.5 46t-49.5 30.5t-62.5 11t-62.5 -11t-49.5 -30.5t-33 -46t-12 -58.5t12 -58.5t33 -46t49.5 -30.5t62.5 -11zM396 610h-136v612l-211 -84v134l347 138v-800z" />
    <glyph glyph-name="uni2152" unicode="&#x2152;" horiz-adv-x="2474" 
d="M440 0h-163l883 1400h163zM1437 0h-136v612l-211 -84v134l347 138v-800zM2034 801q71 0 133 -27.5t108.5 -80t73 -128t26.5 -170.5q0 -96 -26.5 -171t-73 -127.5t-108.5 -80t-133 -27.5t-133 27.5t-108.5 80t-73.5 127.5t-27 171q0 95 27 170.5t73.5 128t108.5 80
t133 27.5zM2034 672q-42 0 -78.5 -18t-64 -53.5t-43 -87t-15.5 -118.5t15.5 -118.5t43 -87t64 -53.5t78.5 -18t78.5 18t64 53.5t43 87t15.5 118.5t-15.5 118.5t-43 87t-64 53.5t-78.5 18zM396 610h-136v612l-211 -84v134l347 138v-800z" />
    <glyph glyph-name="onethird" unicode="&#x2153;" horiz-adv-x="1716" 
d="M440 0h-163l883 1400h163zM1334 801q62 0 114 -16t89 -44.5t57.5 -69.5t20.5 -90q0 -66 -34.5 -112.5t-93.5 -70.5q66 -23 105.5 -70t39.5 -113q0 -57 -24.5 -99.5t-65 -70.5t-93.5 -42t-109 -14q-88 0 -156 28t-114 80l79 89q35 -36 83 -56t102 -20q32 0 60.5 7t50 21.5
t34 36t12.5 51.5q0 27 -13.5 48t-36 35t-53 21.5t-64.5 7.5h-99v120h100q31 0 58.5 7t48 21.5t32 35.5t11.5 48q0 51 -41.5 80t-105.5 29q-59 0 -101.5 -24t-70.5 -58l-82 87q42 51 105 84t155 33zM396 610h-136v612l-211 -84v134l347 138v-800z" />
    <glyph glyph-name="twothirds" unicode="&#x2154;" horiz-adv-x="1858" 
d="M581 0h-163l883 1400h163zM1475 801q62 0 114 -16t89 -44.5t57.5 -69.5t20.5 -90q0 -66 -34.5 -112.5t-93.5 -70.5q66 -23 105.5 -70t39.5 -113q0 -57 -24.5 -99.5t-65 -70.5t-93.5 -42t-109 -14q-88 0 -156 28t-114 80l79 89q35 -36 83 -56t102 -20q32 0 60.5 7t50 21.5
t34 36t12.5 51.5q0 27 -13.5 48t-36 35t-53 21.5t-64.5 7.5h-99v120h100q31 0 58.5 7t48 21.5t32 35.5t11.5 48q0 51 -41.5 80t-105.5 29q-59 0 -101.5 -24t-70.5 -58l-82 87q42 51 105 84t155 33zM64 1276q16 22 40 46t57 43.5t75.5 32.5t96.5 13q62 0 111 -18.5
t83.5 -51.5t53 -78.5t18.5 -100.5q0 -71 -32 -126t-85 -107l-193 -193h333v-126h-526v106l291 290q33 32 52.5 68t19.5 78q0 28 -10 51.5t-28 41t-43.5 27.5t-56.5 10q-30 0 -54.5 -7.5t-45 -20t-37.5 -28.5t-32 -34z" />
    <glyph glyph-name="uni2155" unicode="&#x2155;" horiz-adv-x="1742" 
d="M440 0h-163l883 1400h163zM1611 665h-335l-5 -179h91q72 0 126.5 -17.5t91.5 -49t55.5 -74.5t18.5 -94q0 -62 -22 -110.5t-61 -82.5t-92 -52t-115 -18q-88 0 -159 30t-120 84l80 90q35 -35 88 -57.5t110 -22.5q73 0 112 36t39 93q0 26 -9.5 48.5t-31 39.5t-56 26.5
t-83.5 9.5h-186l11 424h452v-124zM396 610h-136v612l-211 -84v134l347 138v-800z" />
    <glyph glyph-name="uni2156" unicode="&#x2156;" horiz-adv-x="1883" 
d="M581 0h-163l883 1400h163zM1752 665h-335l-5 -179h91q72 0 126.5 -17.5t91.5 -49t55.5 -74.5t18.5 -94q0 -62 -22 -110.5t-61 -82.5t-92 -52t-115 -18q-88 0 -159 30t-120 84l80 90q35 -35 88 -57.5t110 -22.5q73 0 112 36t39 93q0 26 -9.5 48.5t-31 39.5t-56 26.5
t-83.5 9.5h-186l11 424h452v-124zM64 1276q16 22 40 46t57 43.5t75.5 32.5t96.5 13q62 0 111 -18.5t83.5 -51.5t53 -78.5t18.5 -100.5q0 -71 -32 -126t-85 -107l-193 -193h333v-126h-526v106l291 290q33 32 52.5 68t19.5 78q0 28 -10 51.5t-28 41t-43.5 27.5t-56.5 10
q-30 0 -54.5 -7.5t-45 -20t-37.5 -28.5t-32 -34z" />
    <glyph glyph-name="uni2157" unicode="&#x2157;" horiz-adv-x="1858" 
d="M556 0h-163l883 1400h163zM1727 665h-335l-5 -179h91q72 0 126.5 -17.5t91.5 -49t55.5 -74.5t18.5 -94q0 -62 -22 -110.5t-61 -82.5t-92 -52t-115 -18q-88 0 -159 30t-120 84l80 90q35 -35 88 -57.5t110 -22.5q73 0 112 36t39 93q0 26 -9.5 48.5t-31 39.5t-56 26.5
t-83.5 9.5h-186l11 424h452v-124zM313 1411q62 0 114 -16t89 -44.5t57.5 -69.5t20.5 -90q0 -66 -34.5 -112.5t-93.5 -70.5q66 -23 105.5 -70t39.5 -113q0 -57 -24.5 -99.5t-65 -70.5t-93.5 -42t-109 -14q-88 0 -156 28t-114 80l79 89q35 -36 83 -56t102 -20q32 0 60.5 7
t50 21.5t34 36t12.5 51.5q0 27 -13.5 48t-36 35t-53 21.5t-64.5 7.5h-99v120h100q31 0 58.5 7t48 21.5t32 35.5t11.5 48q0 51 -41.5 80t-105.5 29q-59 0 -101.5 -24t-70.5 -58l-82 87q42 51 105 84t155 33z" />
    <glyph glyph-name="uni2158" unicode="&#x2158;" horiz-adv-x="1861" 
d="M559 0h-163l883 1400h163zM1730 665h-335l-5 -179h91q72 0 126.5 -17.5t91.5 -49t55.5 -74.5t18.5 -94q0 -62 -22 -110.5t-61 -82.5t-92 -52t-115 -18q-88 0 -159 30t-120 84l80 90q35 -35 88 -57.5t110 -22.5q73 0 112 36t39 93q0 26 -9.5 48.5t-31 39.5t-56 26.5
t-83.5 9.5h-186l11 424h452v-124zM540 884h119v-124h-119v-150h-135v150h-366v97l278 542h149l-267 -515h206v217h135v-217z" />
    <glyph glyph-name="uni2159" unicode="&#x2159;" horiz-adv-x="1654" 
d="M440 0h-163l883 1400h163zM1255 508q25 6 57 6q63 0 114 -20t88 -55t57 -82.5t20 -102.5q0 -57 -22.5 -106t-62.5 -84t-94.5 -55t-118.5 -20t-118.5 19.5t-94.5 54.5t-62.5 83t-22.5 105q0 51 18 99t50 97l226 342h163zM1293 399q-34 0 -62.5 -11t-49.5 -30t-33 -46
t-12 -58q0 -32 12 -58.5t33 -46t49.5 -30.5t62.5 -11t62.5 10.5t49.5 30t33 46.5t12 59q0 31 -12 58t-33 46t-49.5 30t-62.5 11zM396 610h-136v612l-211 -84v134l347 138v-800z" />
    <glyph glyph-name="uni215A" unicode="&#x215a;" horiz-adv-x="1789" 
d="M574 0h-163l883 1400h163zM1389 508q25 6 57 6q63 0 114 -20t88 -55t57 -82.5t20 -102.5q0 -57 -22.5 -106t-62.5 -84t-94.5 -55t-118.5 -20t-118.5 19.5t-94.5 54.5t-62.5 83t-22.5 105q0 51 18 99t50 97l226 342h163zM1427 399q-34 0 -62.5 -11t-49.5 -30t-33 -46
t-12 -58q0 -32 12 -58.5t33 -46t49.5 -30.5t62.5 -11t62.5 10.5t49.5 30t33 46.5t12 59q0 31 -12 58t-33 46t-49.5 30t-62.5 11zM590 1275h-335l-5 -179h91q72 0 126.5 -17.5t91.5 -49t55.5 -74.5t18.5 -94q0 -62 -22 -110.5t-61 -82.5t-92 -52t-115 -18q-88 0 -159 30
t-120 84l80 90q35 -35 88 -57.5t110 -22.5q73 0 112 36t39 93q0 26 -9.5 48.5t-31 39.5t-56 26.5t-83.5 9.5h-186l11 424h452v-124z" />
    <glyph glyph-name="oneeighth" unicode="&#x215b;" horiz-adv-x="1778" 
d="M440 0h-163l883 1400h163zM1384 801q60 0 112.5 -15t91.5 -43t62 -69t23 -93q0 -35 -10 -63.5t-28 -51t-42 -39t-52 -28.5q32 -11 59.5 -27.5t48 -39.5t32.5 -53t12 -67q0 -53 -24.5 -95t-66.5 -70.5t-98 -43.5t-120 -15t-120 15t-98 43.5t-66 70.5t-24 95q0 37 12 66.5
t32 52.5t47.5 40t59.5 28q-28 11 -52 27.5t-42 39t-28 51.5t-10 64q0 52 23 93t62 69t91.5 43t112.5 15zM1384 345q-33 0 -62.5 -8t-51.5 -23t-35 -37t-13 -51q0 -30 13 -53t35 -38t51.5 -23t62.5 -8t62.5 8t52 23t35.5 38t13 53q0 29 -13 51t-35.5 37t-52 23t-62.5 8z
M1384 683q-30 0 -56 -7.5t-46 -22t-31.5 -36t-11.5 -49.5t11.5 -49t31.5 -35.5t46 -21.5t56 -7t56.5 7t46 21.5t31 35.5t11.5 49t-11.5 49.5t-31 36t-46 22t-56.5 7.5zM396 610h-136v612l-211 -84v134l347 138v-800z" />
    <glyph glyph-name="threeeighths" unicode="&#x215c;" horiz-adv-x="1894" 
d="M556 0h-163l883 1400h163zM1500 801q60 0 112.5 -15t91.5 -43t62 -69t23 -93q0 -35 -10 -63.5t-28 -51t-42 -39t-52 -28.5q32 -11 59.5 -27.5t48 -39.5t32.5 -53t12 -67q0 -53 -24.5 -95t-66.5 -70.5t-98 -43.5t-120 -15t-120 15t-98 43.5t-66 70.5t-24 95q0 37 12 66.5
t32 52.5t47.5 40t59.5 28q-28 11 -52 27.5t-42 39t-28 51.5t-10 64q0 52 23 93t62 69t91.5 43t112.5 15zM1500 345q-33 0 -62.5 -8t-51.5 -23t-35 -37t-13 -51q0 -30 13 -53t35 -38t51.5 -23t62.5 -8t62.5 8t52 23t35.5 38t13 53q0 29 -13 51t-35.5 37t-52 23t-62.5 8z
M1500 683q-30 0 -56 -7.5t-46 -22t-31.5 -36t-11.5 -49.5t11.5 -49t31.5 -35.5t46 -21.5t56 -7t56.5 7t46 21.5t31 35.5t11.5 49t-11.5 49.5t-31 36t-46 22t-56.5 7.5zM313 1411q62 0 114 -16t89 -44.5t57.5 -69.5t20.5 -90q0 -66 -34.5 -112.5t-93.5 -70.5
q66 -23 105.5 -70t39.5 -113q0 -57 -24.5 -99.5t-65 -70.5t-93.5 -42t-109 -14q-88 0 -156 28t-114 80l79 89q35 -36 83 -56t102 -20q32 0 60.5 7t50 21.5t34 36t12.5 51.5q0 27 -13.5 48t-36 35t-53 21.5t-64.5 7.5h-99v120h100q31 0 58.5 7t48 21.5t32 35.5t11.5 48
q0 51 -41.5 80t-105.5 29q-59 0 -101.5 -24t-70.5 -58l-82 87q42 51 105 84t155 33z" />
    <glyph glyph-name="fiveeighths" unicode="&#x215d;" horiz-adv-x="1912" 
d="M574 0h-163l883 1400h163zM1518 801q60 0 112.5 -15t91.5 -43t62 -69t23 -93q0 -35 -10 -63.5t-28 -51t-42 -39t-52 -28.5q32 -11 59.5 -27.5t48 -39.5t32.5 -53t12 -67q0 -53 -24.5 -95t-66.5 -70.5t-98 -43.5t-120 -15t-120 15t-98 43.5t-66 70.5t-24 95q0 37 12 66.5
t32 52.5t47.5 40t59.5 28q-28 11 -52 27.5t-42 39t-28 51.5t-10 64q0 52 23 93t62 69t91.5 43t112.5 15zM1518 345q-33 0 -62.5 -8t-51.5 -23t-35 -37t-13 -51q0 -30 13 -53t35 -38t51.5 -23t62.5 -8t62.5 8t52 23t35.5 38t13 53q0 29 -13 51t-35.5 37t-52 23t-62.5 8z
M1518 683q-30 0 -56 -7.5t-46 -22t-31.5 -36t-11.5 -49.5t11.5 -49t31.5 -35.5t46 -21.5t56 -7t56.5 7t46 21.5t31 35.5t11.5 49t-11.5 49.5t-31 36t-46 22t-56.5 7.5zM590 1275h-335l-5 -179h91q72 0 126.5 -17.5t91.5 -49t55.5 -74.5t18.5 -94q0 -62 -22 -110.5t-61 -82.5
t-92 -52t-115 -18q-88 0 -159 30t-120 84l80 90q35 -35 88 -57.5t110 -22.5q73 0 112 36t39 93q0 26 -9.5 48.5t-31 39.5t-56 26.5t-83.5 9.5h-186l11 424h452v-124z" />
    <glyph glyph-name="seveneighths" unicode="&#x215e;" horiz-adv-x="1756" 
d="M418 0h-163l883 1400h163zM1362 801q60 0 112.5 -15t91.5 -43t62 -69t23 -93q0 -35 -10 -63.5t-28 -51t-42 -39t-52 -28.5q32 -11 59.5 -27.5t48 -39.5t32.5 -53t12 -67q0 -53 -24.5 -95t-66.5 -70.5t-98 -43.5t-120 -15t-120 15t-98 43.5t-66 70.5t-24 95q0 37 12 66.5
t32 52.5t47.5 40t59.5 28q-28 11 -52 27.5t-42 39t-28 51.5t-10 64q0 52 23 93t62 69t91.5 43t112.5 15zM1362 345q-33 0 -62.5 -8t-51.5 -23t-35 -37t-13 -51q0 -30 13 -53t35 -38t51.5 -23t62.5 -8t62.5 8t52 23t35.5 38t13 53q0 29 -13 51t-35.5 37t-52 23t-62.5 8z
M1362 683q-30 0 -56 -7.5t-46 -22t-31.5 -36t-11.5 -49.5t11.5 -49t31.5 -35.5t46 -21.5t56 -7t56.5 7t46 21.5t31 35.5t11.5 49t-11.5 49.5t-31 36t-46 22t-56.5 7.5zM621 1294l-339 -684h-160l339 663h-402v126h562v-105z" />
    <glyph glyph-name="uni215F" unicode="&#x215f;" horiz-adv-x="1021" 
d="M440 0h-163l883 1400h163zM396 610h-136v612l-211 -84v134l347 138v-800z" />
    <glyph glyph-name="uni2189" unicode="&#x2189;" horiz-adv-x="1962" 
d="M686 0h-163l883 1400h163zM1580 801q62 0 114 -16t89 -44.5t57.5 -69.5t20.5 -90q0 -66 -34.5 -112.5t-93.5 -70.5q66 -23 105.5 -70t39.5 -113q0 -57 -24.5 -99.5t-65 -70.5t-93.5 -42t-109 -14q-88 0 -156 28t-114 80l79 89q35 -36 83 -56t102 -20q32 0 60.5 7t50 21.5
t34 36t12.5 51.5q0 27 -13.5 48t-36 35t-53 21.5t-64.5 7.5h-99v120h100q31 0 58.5 7t48 21.5t32 35.5t11.5 48q0 51 -41.5 80t-105.5 29q-59 0 -101.5 -24t-70.5 -58l-82 87q42 51 105 84t155 33zM440 1411q71 0 133 -27.5t108.5 -80t73 -128t26.5 -170.5q0 -96 -26.5 -171
t-73 -127.5t-108.5 -80t-133 -27.5t-133 27.5t-108.5 80t-73.5 127.5t-27 171q0 95 27 170.5t73.5 128t108.5 80t133 27.5zM440 1282q-42 0 -78.5 -18t-64 -53.5t-43 -87t-15.5 -118.5t15.5 -118.5t43 -87t64 -53.5t78.5 -18t78.5 18t64 53.5t43 87t15.5 118.5t-15.5 118.5
t-43 87t-64 53.5t-78.5 18z" />
    <glyph glyph-name="arrowleft" unicode="&#x2190;" horiz-adv-x="2000" 
d="M641 582q-22 0 -47 0.5t-54.5 2t-67.5 3.5q57 -46 111 -98t99 -97l259 -259l-104 -104l-627 626l627 626l104 -104l-259 -259q-45 -45 -99 -97t-111 -98q38 2 67.5 3.5t54.5 2t47 0.5h1149v-148h-1149z" />
    <glyph glyph-name="arrowup" unicode="&#x2191;" horiz-adv-x="2000" 
d="M926 1063q0 23 0.5 47.5t2 54t3.5 67.5q-45 -57 -97.5 -111t-97.5 -99l-258 -259l-105 105l626 626l627 -626l-105 -105l-259 259q-45 45 -97 99t-98 111q2 -38 3.5 -67.5t2 -54t0.5 -47.5v-1148h-148v1148z" />
    <glyph glyph-name="arrowright" unicode="&#x2192;" horiz-adv-x="2000" 
d="M1359 730q23 0 47.5 -0.5t54 -2t67.5 -3.5q-57 45 -111 97.5t-99 97.5l-259 258l105 105l626 -626l-626 -627l-105 105l259 259q45 45 99 97t111 98q-38 -2 -67.5 -3.5t-54 -2t-47.5 -0.5h-1149v148h1149z" />
    <glyph glyph-name="arrowdown" unicode="&#x2193;" horiz-adv-x="2000" 
d="M1074 344q0 -22 -0.5 -47t-2 -54.5t-3.5 -66.5q46 57 98 111t97 99l259 259l104 -105l-626 -627l-626 627l104 105l259 -259q45 -45 97 -99t98 -111q-2 37 -3.5 66.5t-2 54.5t-0.5 47v1149h148v-1149z" />
    <glyph glyph-name="uni2196" unicode="&#x2196;" horiz-adv-x="2000" 
d="M667 868q-16 16 -33 34t-37 39.5t-45 49.5q8 -72 9.5 -147t1.5 -139v-366h-148v886h886v-148h-367q-63 0 -138.5 1.5t-147.5 9.5q28 -25 50 -45t40 -37.5t34 -33t33 -32.5l779 -780l-105 -104z" />
    <glyph glyph-name="uni2197" unicode="&#x2197;" horiz-adv-x="2000" 
d="M1168 929q17 17 33.5 33t34.5 33.5t39.5 37t49.5 44.5q-72 -8 -147.5 -9t-139.5 -1h-365v148l886 -1v-885h-149v366q0 64 2 139t10 147q-26 -29 -45.5 -50.5t-37 -39.5t-33.5 -34l-812 -812l-105 105z" />
    <glyph glyph-name="uni2198" unicode="&#x2198;" horiz-adv-x="2000" 
d="M1274 488q17 -17 33 -33.5t33 -34.5t37 -39.5t45 -49.5q-8 72 -9.5 147.5t-1.5 139.5v365h148v-886h-886v149h366q64 0 139 -2t147 -10q-28 25 -49.5 45t-39.5 37.5t-34 33t-33 32.5l-780 780l106 105z" />
    <glyph glyph-name="uni2199" unicode="&#x2199;" horiz-adv-x="2000" 
d="M807 371l-33 -33q-16 -16 -34 -33t-40 -37t-50 -45q72 8 147.5 9.5t138.5 1.5h366v-148h-886v886h149v-366q0 -64 -2 -139t-10 -147q25 28 45 49.5t37 39.5t33 34l813 813l104 -106z" />
    <glyph glyph-name="partialdiff" unicode="&#x2202;" horiz-adv-x="1196" 
d="M353 1451q201 -82 341.5 -193t229 -238.5t129 -264.5t40.5 -270q0 -108 -38 -200t-105.5 -160t-159.5 -106.5t-200 -38.5t-200 37t-159 101.5t-105 153t-38 191.5q0 105 36 194t99.5 154.5t150 102.5t187.5 37q94 0 172.5 -38.5t135.5 -107.5q-30 73 -79 142.5t-121 135
t-168 125t-221 112.5zM590 797q-72 0 -133 -24.5t-106 -68.5t-70.5 -105.5t-25.5 -134.5q0 -72 25.5 -133t70.5 -105t106 -68.5t133 -24.5q71 0 132.5 24.5t106.5 68.5t70.5 105t25.5 133q0 73 -25.5 134.5t-70.5 105.5t-106.5 68.5t-132.5 24.5z" />
    <glyph glyph-name="Delta" unicode="&#x2206;" horiz-adv-x="1409" 
d="M1329 136v-136h-1249v136l515 1265h219zM278 167h853l-426 1056z" />
    <glyph glyph-name="product" unicode="&#x220f;" horiz-adv-x="1473" 
d="M1273 -265h-177v1498h-721v-1498h-176v1665h1074v-1665z" />
    <glyph glyph-name="summation" unicode="&#x2211;" horiz-adv-x="1313" 
d="M1190 1233h-809l542 -606v-97l-546 -628h817v-167h-1074v137l616 702l-613 689v137h1067v-167z" />
    <glyph glyph-name="minus" unicode="&#x2212;" 
d="M1038 456h-876v148h876v-148z" />
    <glyph glyph-name="uni2219" unicode="&#x2219;" 
d="M600 771q49 0 93 -19t77 -51.5t52 -76.5t19 -94t-19 -94t-52 -76.5t-77 -51.5t-93 -19q-51 0 -95 19t-76.5 51.5t-51.5 76.5t-19 94t19 94t51.5 76.5t76.5 51.5t95 19z" />
    <glyph glyph-name="radical" unicode="&#x221a;" horiz-adv-x="1245" 
d="M643 -265h-219l-396 1000h194l311 -793l498 1498h179z" />
    </font>
</defs>
</svg>
